<svg xmlns="http://www.w3.org/2000/svg" xmlns:xlink="http://www.w3.org/1999/xlink" width="600" height="400" viewBox="0 0 2400 1600">
<defs>
  <clipPath id="clip470">
    <rect x="0" y="0" width="2400" height="1600"></rect>
  </clipPath>
</defs>
<path clip-path="url(#clip470)" d="
M0 1600 L2400 1600 L2400 0 L0 0  Z
  " fill="#ffffff" fill-rule="evenodd" fill-opacity="1"></path>
<defs>
  <clipPath id="clip471">
    <rect x="480" y="0" width="1681" height="1600"></rect>
  </clipPath>
</defs>
<path clip-path="url(#clip470)" d="
M205.121 1423.18 L2352.76 1423.18 L2352.76 47.2441 L205.121 47.2441  Z
  " fill="#ffffff" fill-rule="evenodd" fill-opacity="1"></path>
<defs>
  <clipPath id="clip472">
    <rect x="205" y="47" width="2149" height="1377"></rect>
  </clipPath>
</defs>
<polyline clip-path="url(#clip472)" style="stroke:#000000; stroke-linecap:round; stroke-linejoin:round; stroke-width:2; stroke-opacity:0.1; fill:none" points="
  450.091,1423.18 450.091,47.2441 
  "></polyline>
<polyline clip-path="url(#clip472)" style="stroke:#000000; stroke-linecap:round; stroke-linejoin:round; stroke-width:2; stroke-opacity:0.1; fill:none" points="
  818.468,1423.18 818.468,47.2441 
  "></polyline>
<polyline clip-path="url(#clip472)" style="stroke:#000000; stroke-linecap:round; stroke-linejoin:round; stroke-width:2; stroke-opacity:0.1; fill:none" points="
  1186.84,1423.18 1186.84,47.2441 
  "></polyline>
<polyline clip-path="url(#clip472)" style="stroke:#000000; stroke-linecap:round; stroke-linejoin:round; stroke-width:2; stroke-opacity:0.1; fill:none" points="
  1555.22,1423.18 1555.22,47.2441 
  "></polyline>
<polyline clip-path="url(#clip472)" style="stroke:#000000; stroke-linecap:round; stroke-linejoin:round; stroke-width:2; stroke-opacity:0.1; fill:none" points="
  1923.6,1423.18 1923.6,47.2441 
  "></polyline>
<polyline clip-path="url(#clip472)" style="stroke:#000000; stroke-linecap:round; stroke-linejoin:round; stroke-width:2; stroke-opacity:0.1; fill:none" points="
  2291.97,1423.18 2291.97,47.2441 
  "></polyline>
<polyline clip-path="url(#clip470)" style="stroke:#000000; stroke-linecap:round; stroke-linejoin:round; stroke-width:4; stroke-opacity:1; fill:none" points="
  205.121,1423.18 2352.76,1423.18 
  "></polyline>
<polyline clip-path="url(#clip470)" style="stroke:#000000; stroke-linecap:round; stroke-linejoin:round; stroke-width:4; stroke-opacity:1; fill:none" points="
  450.091,1423.18 450.091,1404.28 
  "></polyline>
<polyline clip-path="url(#clip470)" style="stroke:#000000; stroke-linecap:round; stroke-linejoin:round; stroke-width:4; stroke-opacity:1; fill:none" points="
  818.468,1423.18 818.468,1404.28 
  "></polyline>
<polyline clip-path="url(#clip470)" style="stroke:#000000; stroke-linecap:round; stroke-linejoin:round; stroke-width:4; stroke-opacity:1; fill:none" points="
  1186.84,1423.18 1186.84,1404.28 
  "></polyline>
<polyline clip-path="url(#clip470)" style="stroke:#000000; stroke-linecap:round; stroke-linejoin:round; stroke-width:4; stroke-opacity:1; fill:none" points="
  1555.22,1423.18 1555.22,1404.28 
  "></polyline>
<polyline clip-path="url(#clip470)" style="stroke:#000000; stroke-linecap:round; stroke-linejoin:round; stroke-width:4; stroke-opacity:1; fill:none" points="
  1923.6,1423.18 1923.6,1404.28 
  "></polyline>
<polyline clip-path="url(#clip470)" style="stroke:#000000; stroke-linecap:round; stroke-linejoin:round; stroke-width:4; stroke-opacity:1; fill:none" points="
  2291.97,1423.18 2291.97,1404.28 
  "></polyline>
<path clip-path="url(#clip470)" d="M424.779 1481.64 L432.418 1481.64 L432.418 1455.28 L424.108 1456.95 L424.108 1452.69 L432.372 1451.02 L437.047 1451.02 L437.047 1481.64 L444.686 1481.64 L444.686 1485.58 L424.779 1485.58 L424.779 1481.64 Z" fill="#000000" fill-rule="evenodd" fill-opacity="1"></path><path clip-path="url(#clip470)" d="M464.131 1454.1 Q460.52 1454.1 458.691 1457.66 Q456.885 1461.2 456.885 1468.33 Q456.885 1475.44 458.691 1479.01 Q460.52 1482.55 464.131 1482.55 Q467.765 1482.55 469.57 1479.01 Q471.399 1475.44 471.399 1468.33 Q471.399 1461.2 469.57 1457.66 Q467.765 1454.1 464.131 1454.1 M464.131 1450.39 Q469.941 1450.39 472.996 1455 Q476.075 1459.58 476.075 1468.33 Q476.075 1477.06 472.996 1481.67 Q469.941 1486.25 464.131 1486.25 Q458.32 1486.25 455.242 1481.67 Q452.186 1477.06 452.186 1468.33 Q452.186 1459.58 455.242 1455 Q458.32 1450.39 464.131 1450.39 Z" fill="#000000" fill-rule="evenodd" fill-opacity="1"></path><path clip-path="url(#clip470)" d="M797.241 1481.64 L813.56 1481.64 L813.56 1485.58 L791.616 1485.58 L791.616 1481.64 Q794.278 1478.89 798.861 1474.26 Q803.468 1469.61 804.648 1468.27 Q806.894 1465.74 807.773 1464.01 Q808.676 1462.25 808.676 1460.56 Q808.676 1457.8 806.732 1456.07 Q804.81 1454.33 801.709 1454.33 Q799.51 1454.33 797.056 1455.09 Q794.625 1455.86 791.848 1457.41 L791.848 1452.69 Q794.672 1451.55 797.125 1450.97 Q799.579 1450.39 801.616 1450.39 Q806.986 1450.39 810.181 1453.08 Q813.375 1455.77 813.375 1460.26 Q813.375 1462.39 812.565 1464.31 Q811.778 1466.2 809.672 1468.8 Q809.093 1469.47 805.991 1472.69 Q802.889 1475.88 797.241 1481.64 Z" fill="#000000" fill-rule="evenodd" fill-opacity="1"></path><path clip-path="url(#clip470)" d="M833.375 1454.1 Q829.764 1454.1 827.935 1457.66 Q826.13 1461.2 826.13 1468.33 Q826.13 1475.44 827.935 1479.01 Q829.764 1482.55 833.375 1482.55 Q837.009 1482.55 838.815 1479.01 Q840.644 1475.44 840.644 1468.33 Q840.644 1461.2 838.815 1457.66 Q837.009 1454.1 833.375 1454.1 M833.375 1450.39 Q839.185 1450.39 842.241 1455 Q845.32 1459.58 845.32 1468.33 Q845.32 1477.06 842.241 1481.67 Q839.185 1486.25 833.375 1486.25 Q827.565 1486.25 824.486 1481.67 Q821.431 1477.06 821.431 1468.33 Q821.431 1459.58 824.486 1455 Q827.565 1450.39 833.375 1450.39 Z" fill="#000000" fill-rule="evenodd" fill-opacity="1"></path><path clip-path="url(#clip470)" d="M1175.69 1466.95 Q1179.04 1467.66 1180.92 1469.93 Q1182.82 1472.2 1182.82 1475.53 Q1182.82 1480.65 1179.3 1483.45 Q1175.78 1486.25 1169.3 1486.25 Q1167.12 1486.25 1164.81 1485.81 Q1162.52 1485.39 1160.06 1484.54 L1160.06 1480.02 Q1162.01 1481.16 1164.32 1481.74 Q1166.64 1482.32 1169.16 1482.32 Q1173.56 1482.32 1175.85 1480.58 Q1178.16 1478.84 1178.16 1475.53 Q1178.16 1472.48 1176.01 1470.77 Q1173.88 1469.03 1170.06 1469.03 L1166.03 1469.03 L1166.03 1465.19 L1170.25 1465.19 Q1173.7 1465.19 1175.52 1463.82 Q1177.35 1462.43 1177.35 1459.84 Q1177.35 1457.18 1175.46 1455.77 Q1173.58 1454.33 1170.06 1454.33 Q1168.14 1454.33 1165.94 1454.75 Q1163.74 1455.16 1161.1 1456.04 L1161.1 1451.88 Q1163.77 1451.14 1166.08 1450.77 Q1168.42 1450.39 1170.48 1450.39 Q1175.8 1450.39 1178.9 1452.83 Q1182.01 1455.23 1182.01 1459.35 Q1182.01 1462.22 1180.36 1464.21 Q1178.72 1466.18 1175.69 1466.95 Z" fill="#000000" fill-rule="evenodd" fill-opacity="1"></path><path clip-path="url(#clip470)" d="M1201.68 1454.1 Q1198.07 1454.1 1196.24 1457.66 Q1194.44 1461.2 1194.44 1468.33 Q1194.44 1475.44 1196.24 1479.01 Q1198.07 1482.55 1201.68 1482.55 Q1205.32 1482.55 1207.12 1479.01 Q1208.95 1475.44 1208.95 1468.33 Q1208.95 1461.2 1207.12 1457.66 Q1205.32 1454.1 1201.68 1454.1 M1201.68 1450.39 Q1207.49 1450.39 1210.55 1455 Q1213.63 1459.58 1213.63 1468.33 Q1213.63 1477.06 1210.55 1481.67 Q1207.49 1486.25 1201.68 1486.25 Q1195.87 1486.25 1192.79 1481.67 Q1189.74 1477.06 1189.74 1468.33 Q1189.74 1459.58 1192.79 1455 Q1195.87 1450.39 1201.68 1450.39 Z" fill="#000000" fill-rule="evenodd" fill-opacity="1"></path><path clip-path="url(#clip470)" d="M1543.39 1455.09 L1531.59 1473.54 L1543.39 1473.54 L1543.39 1455.09 M1542.17 1451.02 L1548.04 1451.02 L1548.04 1473.54 L1552.98 1473.54 L1552.98 1477.43 L1548.04 1477.43 L1548.04 1485.58 L1543.39 1485.58 L1543.39 1477.43 L1527.79 1477.43 L1527.79 1472.92 L1542.17 1451.02 Z" fill="#000000" fill-rule="evenodd" fill-opacity="1"></path><path clip-path="url(#clip470)" d="M1570.71 1454.1 Q1567.1 1454.1 1565.27 1457.66 Q1563.46 1461.2 1563.46 1468.33 Q1563.46 1475.44 1565.27 1479.01 Q1567.1 1482.55 1570.71 1482.55 Q1574.34 1482.55 1576.15 1479.01 Q1577.98 1475.44 1577.98 1468.33 Q1577.98 1461.2 1576.15 1457.66 Q1574.34 1454.1 1570.71 1454.1 M1570.71 1450.39 Q1576.52 1450.39 1579.57 1455 Q1582.65 1459.58 1582.65 1468.33 Q1582.65 1477.06 1579.57 1481.67 Q1576.52 1486.25 1570.71 1486.25 Q1564.9 1486.25 1561.82 1481.67 Q1558.76 1477.06 1558.76 1468.33 Q1558.76 1459.58 1561.82 1455 Q1564.9 1450.39 1570.71 1450.39 Z" fill="#000000" fill-rule="evenodd" fill-opacity="1"></path><path clip-path="url(#clip470)" d="M1898.3 1451.02 L1916.65 1451.02 L1916.65 1454.96 L1902.58 1454.96 L1902.58 1463.43 Q1903.6 1463.08 1904.62 1462.92 Q1905.63 1462.73 1906.65 1462.73 Q1912.44 1462.73 1915.82 1465.9 Q1919.2 1469.08 1919.2 1474.49 Q1919.2 1480.07 1915.73 1483.17 Q1912.25 1486.25 1905.94 1486.25 Q1903.76 1486.25 1901.49 1485.88 Q1899.25 1485.51 1896.84 1484.77 L1896.84 1480.07 Q1898.92 1481.2 1901.14 1481.76 Q1903.37 1482.32 1905.84 1482.32 Q1909.85 1482.32 1912.19 1480.21 Q1914.52 1478.1 1914.52 1474.49 Q1914.52 1470.88 1912.19 1468.77 Q1909.85 1466.67 1905.84 1466.67 Q1903.97 1466.67 1902.09 1467.08 Q1900.24 1467.5 1898.3 1468.38 L1898.3 1451.02 Z" fill="#000000" fill-rule="evenodd" fill-opacity="1"></path><path clip-path="url(#clip470)" d="M1938.41 1454.1 Q1934.8 1454.1 1932.97 1457.66 Q1931.17 1461.2 1931.17 1468.33 Q1931.17 1475.44 1932.97 1479.01 Q1934.8 1482.55 1938.41 1482.55 Q1942.05 1482.55 1943.85 1479.01 Q1945.68 1475.44 1945.68 1468.33 Q1945.68 1461.2 1943.85 1457.66 Q1942.05 1454.1 1938.41 1454.1 M1938.41 1450.39 Q1944.22 1450.39 1947.28 1455 Q1950.36 1459.58 1950.36 1468.33 Q1950.36 1477.06 1947.28 1481.67 Q1944.22 1486.25 1938.41 1486.25 Q1932.6 1486.25 1929.52 1481.67 Q1926.47 1477.06 1926.47 1468.33 Q1926.47 1459.58 1929.52 1455 Q1932.6 1450.39 1938.41 1450.39 Z" fill="#000000" fill-rule="evenodd" fill-opacity="1"></path><path clip-path="url(#clip470)" d="M2277.38 1466.44 Q2274.23 1466.44 2272.38 1468.59 Q2270.55 1470.74 2270.55 1474.49 Q2270.55 1478.22 2272.38 1480.39 Q2274.23 1482.55 2277.38 1482.55 Q2280.53 1482.55 2282.36 1480.39 Q2284.21 1478.22 2284.21 1474.49 Q2284.21 1470.74 2282.36 1468.59 Q2280.53 1466.44 2277.38 1466.44 M2286.66 1451.78 L2286.66 1456.04 Q2284.9 1455.21 2283.1 1454.77 Q2281.31 1454.33 2279.55 1454.33 Q2274.93 1454.33 2272.47 1457.45 Q2270.04 1460.58 2269.69 1466.9 Q2271.06 1464.89 2273.12 1463.82 Q2275.18 1462.73 2277.66 1462.73 Q2282.87 1462.73 2285.87 1465.9 Q2288.91 1469.05 2288.91 1474.49 Q2288.91 1479.82 2285.76 1483.03 Q2282.61 1486.25 2277.38 1486.25 Q2271.38 1486.25 2268.21 1481.67 Q2265.04 1477.06 2265.04 1468.33 Q2265.04 1460.14 2268.93 1455.28 Q2272.82 1450.39 2279.37 1450.39 Q2281.13 1450.39 2282.91 1450.74 Q2284.72 1451.09 2286.66 1451.78 Z" fill="#000000" fill-rule="evenodd" fill-opacity="1"></path><path clip-path="url(#clip470)" d="M2306.96 1454.1 Q2303.35 1454.1 2301.52 1457.66 Q2299.72 1461.2 2299.72 1468.33 Q2299.72 1475.44 2301.52 1479.01 Q2303.35 1482.55 2306.96 1482.55 Q2310.6 1482.55 2312.4 1479.01 Q2314.23 1475.44 2314.23 1468.33 Q2314.23 1461.2 2312.4 1457.66 Q2310.6 1454.1 2306.96 1454.1 M2306.96 1450.39 Q2312.77 1450.39 2315.83 1455 Q2318.91 1459.58 2318.91 1468.33 Q2318.91 1477.06 2315.83 1481.67 Q2312.77 1486.25 2306.96 1486.25 Q2301.15 1486.25 2298.07 1481.67 Q2295.02 1477.06 2295.02 1468.33 Q2295.02 1459.58 2298.07 1455 Q2301.15 1450.39 2306.96 1450.39 Z" fill="#000000" fill-rule="evenodd" fill-opacity="1"></path><path clip-path="url(#clip470)" d="M1097.01 1539.37 L1087.74 1539.37 L1085.07 1550 L1094.4 1550 L1097.01 1539.37 M1092.23 1521.26 L1088.92 1534.46 L1098.22 1534.46 L1101.56 1521.26 L1106.65 1521.26 L1103.37 1534.46 L1113.3 1534.46 L1113.3 1539.37 L1102.13 1539.37 L1099.52 1550 L1109.64 1550 L1109.64 1554.87 L1098.28 1554.87 L1094.97 1568.04 L1089.88 1568.04 L1093.16 1554.87 L1083.83 1554.87 L1080.55 1568.04 L1075.43 1568.04 L1078.74 1554.87 L1068.71 1554.87 L1068.71 1550 L1079.91 1550 L1082.59 1539.37 L1072.34 1539.37 L1072.34 1534.46 L1083.83 1534.46 L1087.08 1521.26 L1092.23 1521.26 Z" fill="#000000" fill-rule="evenodd" fill-opacity="1"></path><path clip-path="url(#clip470)" d="M1177.82 1561.26 L1177.82 1548.5 L1167.32 1548.5 L1167.32 1543.22 L1184.18 1543.22 L1184.18 1563.62 Q1180.46 1566.26 1175.97 1567.63 Q1171.49 1568.97 1166.39 1568.97 Q1155.25 1568.97 1148.95 1562.47 Q1142.68 1555.95 1142.68 1544.33 Q1142.68 1532.68 1148.95 1526.19 Q1155.25 1519.66 1166.39 1519.66 Q1171.04 1519.66 1175.21 1520.81 Q1179.41 1521.96 1182.94 1524.18 L1182.94 1531.03 Q1179.38 1528 1175.37 1526.48 Q1171.36 1524.95 1166.93 1524.95 Q1158.21 1524.95 1153.82 1529.82 Q1149.46 1534.69 1149.46 1544.33 Q1149.46 1553.94 1153.82 1558.81 Q1158.21 1563.68 1166.93 1563.68 Q1170.34 1563.68 1173.01 1563.11 Q1175.69 1562.51 1177.82 1561.26 Z" fill="#000000" fill-rule="evenodd" fill-opacity="1"></path><path clip-path="url(#clip470)" d="M1216.33 1537.87 Q1215.35 1537.3 1214.17 1537.04 Q1213.02 1536.76 1211.62 1536.76 Q1206.66 1536.76 1203.98 1540 Q1201.34 1543.22 1201.34 1549.27 L1201.34 1568.04 L1195.45 1568.04 L1195.45 1532.4 L1201.34 1532.4 L1201.34 1537.93 Q1203.19 1534.69 1206.15 1533.13 Q1209.11 1531.54 1213.34 1531.54 Q1213.94 1531.54 1214.68 1531.63 Q1215.41 1531.7 1216.3 1531.85 L1216.33 1537.87 Z" fill="#000000" fill-rule="evenodd" fill-opacity="1"></path><path clip-path="url(#clip470)" d="M1222.47 1532.4 L1228.33 1532.4 L1228.33 1568.04 L1222.47 1568.04 L1222.47 1532.4 M1222.47 1518.52 L1228.33 1518.52 L1228.33 1525.93 L1222.47 1525.93 L1222.47 1518.52 Z" fill="#000000" fill-rule="evenodd" fill-opacity="1"></path><path clip-path="url(#clip470)" d="M1264.04 1537.81 L1264.04 1518.52 L1269.9 1518.52 L1269.9 1568.04 L1264.04 1568.04 L1264.04 1562.7 Q1262.2 1565.88 1259.36 1567.44 Q1256.56 1568.97 1252.62 1568.97 Q1246.16 1568.97 1242.08 1563.81 Q1238.04 1558.65 1238.04 1550.25 Q1238.04 1541.85 1242.08 1536.69 Q1246.16 1531.54 1252.62 1531.54 Q1256.56 1531.54 1259.36 1533.1 Q1262.2 1534.62 1264.04 1537.81 M1244.09 1550.25 Q1244.09 1556.71 1246.73 1560.4 Q1249.4 1564.07 1254.05 1564.07 Q1258.7 1564.07 1261.37 1560.4 Q1264.04 1556.71 1264.04 1550.25 Q1264.04 1543.79 1261.37 1540.13 Q1258.7 1536.44 1254.05 1536.44 Q1249.4 1536.44 1246.73 1540.13 Q1244.09 1543.79 1244.09 1550.25 Z" fill="#000000" fill-rule="evenodd" fill-opacity="1"></path><path clip-path="url(#clip470)" d="M1309.37 1525.81 L1309.37 1543.66 L1317.45 1543.66 Q1321.94 1543.66 1324.39 1541.34 Q1326.84 1539.02 1326.84 1534.72 Q1326.84 1530.45 1324.39 1528.13 Q1321.94 1525.81 1317.45 1525.81 L1309.37 1525.81 M1302.94 1520.52 L1317.45 1520.52 Q1325.44 1520.52 1329.51 1524.15 Q1333.62 1527.75 1333.62 1534.72 Q1333.62 1541.75 1329.51 1545.35 Q1325.44 1548.95 1317.45 1548.95 L1309.37 1548.95 L1309.37 1568.04 L1302.94 1568.04 L1302.94 1520.52 Z" fill="#000000" fill-rule="evenodd" fill-opacity="1"></path><path clip-path="url(#clip470)" d="M1353.48 1536.5 Q1348.77 1536.5 1346.03 1540.19 Q1343.3 1543.85 1343.3 1550.25 Q1343.3 1556.65 1346 1560.34 Q1348.74 1564 1353.48 1564 Q1358.16 1564 1360.9 1560.31 Q1363.63 1556.62 1363.63 1550.25 Q1363.63 1543.92 1360.9 1540.23 Q1358.16 1536.5 1353.48 1536.5 M1353.48 1531.54 Q1361.12 1531.54 1365.48 1536.5 Q1369.84 1541.47 1369.84 1550.25 Q1369.84 1559 1365.48 1564 Q1361.12 1568.97 1353.48 1568.97 Q1345.81 1568.97 1341.45 1564 Q1337.12 1559 1337.12 1550.25 Q1337.12 1541.47 1341.45 1536.5 Q1345.81 1531.54 1353.48 1531.54 Z" fill="#000000" fill-rule="evenodd" fill-opacity="1"></path><path clip-path="url(#clip470)" d="M1379.55 1532.4 L1385.4 1532.4 L1385.4 1568.04 L1379.55 1568.04 L1379.55 1532.4 M1379.55 1518.52 L1385.4 1518.52 L1385.4 1525.93 L1379.55 1525.93 L1379.55 1518.52 Z" fill="#000000" fill-rule="evenodd" fill-opacity="1"></path><path clip-path="url(#clip470)" d="M1427.29 1546.53 L1427.29 1568.04 L1421.43 1568.04 L1421.43 1546.72 Q1421.43 1541.66 1419.46 1539.14 Q1417.49 1536.63 1413.54 1536.63 Q1408.8 1536.63 1406.06 1539.65 Q1403.32 1542.68 1403.32 1547.9 L1403.32 1568.04 L1397.44 1568.04 L1397.44 1532.4 L1403.32 1532.4 L1403.32 1537.93 Q1405.43 1534.72 1408.26 1533.13 Q1411.12 1531.54 1414.85 1531.54 Q1420.99 1531.54 1424.14 1535.36 Q1427.29 1539.14 1427.29 1546.53 Z" fill="#000000" fill-rule="evenodd" fill-opacity="1"></path><path clip-path="url(#clip470)" d="M1444.77 1522.27 L1444.77 1532.4 L1456.83 1532.4 L1456.83 1536.95 L1444.77 1536.95 L1444.77 1556.3 Q1444.77 1560.66 1445.94 1561.9 Q1447.15 1563.14 1450.81 1563.14 L1456.83 1563.14 L1456.83 1568.04 L1450.81 1568.04 Q1444.03 1568.04 1441.45 1565.53 Q1438.88 1562.98 1438.88 1556.3 L1438.88 1536.95 L1434.58 1536.95 L1434.58 1532.4 L1438.88 1532.4 L1438.88 1522.27 L1444.77 1522.27 Z" fill="#000000" fill-rule="evenodd" fill-opacity="1"></path><path clip-path="url(#clip470)" d="M1487.26 1533.45 L1487.26 1538.98 Q1484.77 1537.71 1482.1 1537.07 Q1479.43 1536.44 1476.56 1536.44 Q1472.2 1536.44 1470.01 1537.77 Q1467.84 1539.11 1467.84 1541.79 Q1467.84 1543.82 1469.4 1545 Q1470.96 1546.15 1475.67 1547.2 L1477.68 1547.64 Q1483.91 1548.98 1486.52 1551.43 Q1489.17 1553.85 1489.17 1558.21 Q1489.17 1563.17 1485.22 1566.07 Q1481.3 1568.97 1474.43 1568.97 Q1471.56 1568.97 1468.45 1568.39 Q1465.36 1567.85 1461.92 1566.74 L1461.92 1560.69 Q1465.17 1562.38 1468.32 1563.24 Q1471.47 1564.07 1474.56 1564.07 Q1478.69 1564.07 1480.92 1562.66 Q1483.15 1561.23 1483.15 1558.65 Q1483.15 1556.27 1481.53 1554.99 Q1479.94 1553.72 1474.49 1552.54 L1472.46 1552.07 Q1467.01 1550.92 1464.59 1548.56 Q1462.18 1546.18 1462.18 1542.04 Q1462.18 1537.01 1465.74 1534.27 Q1469.3 1531.54 1475.86 1531.54 Q1479.11 1531.54 1481.97 1532.01 Q1484.84 1532.49 1487.26 1533.45 Z" fill="#000000" fill-rule="evenodd" fill-opacity="1"></path><polyline clip-path="url(#clip472)" style="stroke:#000000; stroke-linecap:round; stroke-linejoin:round; stroke-width:2; stroke-opacity:0.1; fill:none" points="
  205.121,1384.25 2352.76,1384.25 
  "></polyline>
<polyline clip-path="url(#clip472)" style="stroke:#000000; stroke-linecap:round; stroke-linejoin:round; stroke-width:2; stroke-opacity:0.1; fill:none" points="
  205.121,1053.84 2352.76,1053.84 
  "></polyline>
<polyline clip-path="url(#clip472)" style="stroke:#000000; stroke-linecap:round; stroke-linejoin:round; stroke-width:2; stroke-opacity:0.1; fill:none" points="
  205.121,723.432 2352.76,723.432 
  "></polyline>
<polyline clip-path="url(#clip472)" style="stroke:#000000; stroke-linecap:round; stroke-linejoin:round; stroke-width:2; stroke-opacity:0.1; fill:none" points="
  205.121,393.022 2352.76,393.022 
  "></polyline>
<polyline clip-path="url(#clip472)" style="stroke:#000000; stroke-linecap:round; stroke-linejoin:round; stroke-width:2; stroke-opacity:0.1; fill:none" points="
  205.121,62.6112 2352.76,62.6112 
  "></polyline>
<polyline clip-path="url(#clip470)" style="stroke:#000000; stroke-linecap:round; stroke-linejoin:round; stroke-width:4; stroke-opacity:1; fill:none" points="
  205.121,1423.18 205.121,47.2441 
  "></polyline>
<polyline clip-path="url(#clip470)" style="stroke:#000000; stroke-linecap:round; stroke-linejoin:round; stroke-width:4; stroke-opacity:1; fill:none" points="
  205.121,1384.25 224.019,1384.25 
  "></polyline>
<polyline clip-path="url(#clip470)" style="stroke:#000000; stroke-linecap:round; stroke-linejoin:round; stroke-width:4; stroke-opacity:1; fill:none" points="
  205.121,1053.84 224.019,1053.84 
  "></polyline>
<polyline clip-path="url(#clip470)" style="stroke:#000000; stroke-linecap:round; stroke-linejoin:round; stroke-width:4; stroke-opacity:1; fill:none" points="
  205.121,723.432 224.019,723.432 
  "></polyline>
<polyline clip-path="url(#clip470)" style="stroke:#000000; stroke-linecap:round; stroke-linejoin:round; stroke-width:4; stroke-opacity:1; fill:none" points="
  205.121,393.022 224.019,393.022 
  "></polyline>
<polyline clip-path="url(#clip470)" style="stroke:#000000; stroke-linecap:round; stroke-linejoin:round; stroke-width:4; stroke-opacity:1; fill:none" points="
  205.121,62.6112 224.019,62.6112 
  "></polyline>
<path clip-path="url(#clip470)" d="M157.177 1370.05 Q153.566 1370.05 151.737 1373.62 Q149.931 1377.16 149.931 1384.29 Q149.931 1391.39 151.737 1394.96 Q153.566 1398.5 157.177 1398.5 Q160.811 1398.5 162.616 1394.96 Q164.445 1391.39 164.445 1384.29 Q164.445 1377.16 162.616 1373.62 Q160.811 1370.05 157.177 1370.05 M157.177 1366.35 Q162.987 1366.35 166.042 1370.95 Q169.121 1375.54 169.121 1384.29 Q169.121 1393.01 166.042 1397.62 Q162.987 1402.2 157.177 1402.2 Q151.366 1402.2 148.288 1397.62 Q145.232 1393.01 145.232 1384.29 Q145.232 1375.54 148.288 1370.95 Q151.366 1366.35 157.177 1366.35 Z" fill="#000000" fill-rule="evenodd" fill-opacity="1"></path><path clip-path="url(#clip470)" d="M121.043 1067.19 L137.362 1067.19 L137.362 1071.12 L115.418 1071.12 L115.418 1067.19 Q118.08 1064.43 122.663 1059.8 Q127.269 1055.15 128.45 1053.81 Q130.695 1051.28 131.575 1049.55 Q132.478 1047.79 132.478 1046.1 Q132.478 1043.34 130.533 1041.61 Q128.612 1039.87 125.51 1039.87 Q123.311 1039.87 120.857 1040.64 Q118.427 1041.4 115.649 1042.95 L115.649 1038.23 Q118.473 1037.09 120.927 1036.52 Q123.38 1035.94 125.418 1035.94 Q130.788 1035.94 133.982 1038.62 Q137.177 1041.31 137.177 1045.8 Q137.177 1047.93 136.367 1049.85 Q135.579 1051.75 133.473 1054.34 Q132.894 1055.01 129.792 1058.23 Q126.691 1061.42 121.043 1067.19 Z" fill="#000000" fill-rule="evenodd" fill-opacity="1"></path><path clip-path="url(#clip470)" d="M157.177 1039.64 Q153.566 1039.64 151.737 1043.21 Q149.931 1046.75 149.931 1053.88 Q149.931 1060.98 151.737 1064.55 Q153.566 1068.09 157.177 1068.09 Q160.811 1068.09 162.616 1064.55 Q164.445 1060.98 164.445 1053.88 Q164.445 1046.75 162.616 1043.21 Q160.811 1039.64 157.177 1039.64 M157.177 1035.94 Q162.987 1035.94 166.042 1040.54 Q169.121 1045.13 169.121 1053.88 Q169.121 1062.6 166.042 1067.21 Q162.987 1071.79 157.177 1071.79 Q151.366 1071.79 148.288 1067.21 Q145.232 1062.6 145.232 1053.88 Q145.232 1045.13 148.288 1040.54 Q151.366 1035.94 157.177 1035.94 Z" fill="#000000" fill-rule="evenodd" fill-opacity="1"></path><path clip-path="url(#clip470)" d="M129.862 710.226 L118.056 728.675 L129.862 728.675 L129.862 710.226 M128.635 706.152 L134.515 706.152 L134.515 728.675 L139.445 728.675 L139.445 732.564 L134.515 732.564 L134.515 740.712 L129.862 740.712 L129.862 732.564 L114.26 732.564 L114.26 728.05 L128.635 706.152 Z" fill="#000000" fill-rule="evenodd" fill-opacity="1"></path><path clip-path="url(#clip470)" d="M157.177 709.231 Q153.566 709.231 151.737 712.795 Q149.931 716.337 149.931 723.467 Q149.931 730.573 151.737 734.138 Q153.566 737.679 157.177 737.679 Q160.811 737.679 162.616 734.138 Q164.445 730.573 164.445 723.467 Q164.445 716.337 162.616 712.795 Q160.811 709.231 157.177 709.231 M157.177 705.527 Q162.987 705.527 166.042 710.133 Q169.121 714.717 169.121 723.467 Q169.121 732.193 166.042 736.8 Q162.987 741.383 157.177 741.383 Q151.366 741.383 148.288 736.8 Q145.232 732.193 145.232 723.467 Q145.232 714.717 148.288 710.133 Q151.366 705.527 157.177 705.527 Z" fill="#000000" fill-rule="evenodd" fill-opacity="1"></path><path clip-path="url(#clip470)" d="M127.593 391.158 Q124.445 391.158 122.593 393.311 Q120.765 395.464 120.765 399.214 Q120.765 402.94 122.593 405.116 Q124.445 407.269 127.593 407.269 Q130.742 407.269 132.57 405.116 Q134.422 402.94 134.422 399.214 Q134.422 395.464 132.57 393.311 Q130.742 391.158 127.593 391.158 M136.876 376.505 L136.876 380.765 Q135.117 379.931 133.311 379.492 Q131.529 379.052 129.769 379.052 Q125.14 379.052 122.686 382.177 Q120.255 385.302 119.908 391.621 Q121.274 389.607 123.334 388.542 Q125.394 387.454 127.871 387.454 Q133.08 387.454 136.089 390.626 Q139.121 393.774 139.121 399.214 Q139.121 404.538 135.973 407.755 Q132.825 410.973 127.593 410.973 Q121.598 410.973 118.427 406.39 Q115.256 401.783 115.256 393.056 Q115.256 384.862 119.144 380.001 Q123.033 375.117 129.584 375.117 Q131.343 375.117 133.126 375.464 Q134.931 375.811 136.876 376.505 Z" fill="#000000" fill-rule="evenodd" fill-opacity="1"></path><path clip-path="url(#clip470)" d="M157.177 378.82 Q153.566 378.82 151.737 382.385 Q149.931 385.927 149.931 393.056 Q149.931 400.163 151.737 403.728 Q153.566 407.269 157.177 407.269 Q160.811 407.269 162.616 403.728 Q164.445 400.163 164.445 393.056 Q164.445 385.927 162.616 382.385 Q160.811 378.82 157.177 378.82 M157.177 375.117 Q162.987 375.117 166.042 379.723 Q169.121 384.306 169.121 393.056 Q169.121 401.783 166.042 406.39 Q162.987 410.973 157.177 410.973 Q151.366 410.973 148.288 406.39 Q145.232 401.783 145.232 393.056 Q145.232 384.306 148.288 379.723 Q151.366 375.117 157.177 375.117 Z" fill="#000000" fill-rule="evenodd" fill-opacity="1"></path><path clip-path="url(#clip470)" d="M127.015 63.4793 Q123.681 63.4793 121.76 65.2617 Q119.862 67.0441 119.862 70.1691 Q119.862 73.294 121.76 75.0764 Q123.681 76.8588 127.015 76.8588 Q130.348 76.8588 132.269 75.0764 Q134.191 73.2709 134.191 70.1691 Q134.191 67.0441 132.269 65.2617 Q130.371 63.4793 127.015 63.4793 M122.339 61.4886 Q119.33 60.7478 117.64 58.6876 Q115.973 56.6275 115.973 53.6645 Q115.973 49.521 118.913 47.1136 Q121.876 44.7062 127.015 44.7062 Q132.177 44.7062 135.117 47.1136 Q138.056 49.521 138.056 53.6645 Q138.056 56.6275 136.367 58.6876 Q134.7 60.7478 131.714 61.4886 Q135.093 62.2756 136.968 64.5672 Q138.867 66.8589 138.867 70.1691 Q138.867 75.1922 135.788 77.8774 Q132.732 80.5625 127.015 80.5625 Q121.297 80.5625 118.218 77.8774 Q115.163 75.1922 115.163 70.1691 Q115.163 66.8589 117.061 64.5672 Q118.959 62.2756 122.339 61.4886 M120.626 54.1043 Q120.626 56.7895 122.293 58.2941 Q123.982 59.7987 127.015 59.7987 Q130.024 59.7987 131.714 58.2941 Q133.427 56.7895 133.427 54.1043 Q133.427 51.4192 131.714 49.9145 Q130.024 48.4099 127.015 48.4099 Q123.982 48.4099 122.293 49.9145 Q120.626 51.4192 120.626 54.1043 Z" fill="#000000" fill-rule="evenodd" fill-opacity="1"></path><path clip-path="url(#clip470)" d="M157.177 48.4099 Q153.566 48.4099 151.737 51.9747 Q149.931 55.5164 149.931 62.646 Q149.931 69.7524 151.737 73.3172 Q153.566 76.8588 157.177 76.8588 Q160.811 76.8588 162.616 73.3172 Q164.445 69.7524 164.445 62.646 Q164.445 55.5164 162.616 51.9747 Q160.811 48.4099 157.177 48.4099 M157.177 44.7062 Q162.987 44.7062 166.042 49.3127 Q169.121 53.896 169.121 62.646 Q169.121 71.3728 166.042 75.9792 Q162.987 80.5625 157.177 80.5625 Q151.366 80.5625 148.288 75.9792 Q145.232 71.3728 145.232 62.646 Q145.232 53.896 148.288 49.3127 Q151.366 44.7062 157.177 44.7062 Z" fill="#000000" fill-rule="evenodd" fill-opacity="1"></path><path clip-path="url(#clip470)" d="M20.1444 1046.13 L26.9239 1046.13 Q23.9002 1049.38 22.4043 1053.07 Q20.9083 1056.73 20.9083 1060.87 Q20.9083 1069.01 25.9054 1073.34 Q30.8707 1077.67 40.2919 1077.67 Q49.6813 1077.67 54.6784 1073.34 Q59.6436 1069.01 59.6436 1060.87 Q59.6436 1056.73 58.1477 1053.07 Q56.6518 1049.38 53.6281 1046.13 L60.3439 1046.13 Q62.6355 1049.5 63.7814 1053.29 Q64.9272 1057.05 64.9272 1061.25 Q64.9272 1072.04 58.3387 1078.24 Q51.7183 1084.45 40.2919 1084.45 Q28.8336 1084.45 22.2451 1078.24 Q15.6248 1072.04 15.6248 1061.25 Q15.6248 1056.98 16.7706 1053.23 Q17.8846 1049.44 20.1444 1046.13 Z" fill="#000000" fill-rule="evenodd" fill-opacity="1"></path><path clip-path="url(#clip470)" d="M32.4621 1022.64 Q32.4621 1027.35 36.1542 1030.09 Q39.8145 1032.82 46.212 1032.82 Q52.6095 1032.82 56.3017 1030.12 Q59.9619 1027.38 59.9619 1022.64 Q59.9619 1017.96 56.2698 1015.22 Q52.5777 1012.49 46.212 1012.49 Q39.8781 1012.49 36.186 1015.22 Q32.4621 1017.96 32.4621 1022.64 M27.4968 1022.64 Q27.4968 1015 32.4621 1010.64 Q37.4273 1006.28 46.212 1006.28 Q54.9649 1006.28 59.9619 1010.64 Q64.9272 1015 64.9272 1022.64 Q64.9272 1030.31 59.9619 1034.67 Q54.9649 1039 46.212 1039 Q37.4273 1039 32.4621 1034.67 Q27.4968 1030.31 27.4968 1022.64 Z" fill="#000000" fill-rule="evenodd" fill-opacity="1"></path><path clip-path="url(#clip470)" d="M35.1993 968.817 Q31.2526 966.621 29.3747 963.566 Q27.4968 960.51 27.4968 956.373 Q27.4968 950.803 31.4117 947.779 Q35.2948 944.755 42.4881 944.755 L64.0042 944.755 L64.0042 950.643 L42.679 950.643 Q37.5546 950.643 35.072 952.458 Q32.5894 954.272 32.5894 957.996 Q32.5894 962.547 35.6131 965.189 Q38.6368 967.831 43.8567 967.831 L64.0042 967.831 L64.0042 973.719 L42.679 973.719 Q37.5228 973.719 35.072 975.533 Q32.5894 977.348 32.5894 981.135 Q32.5894 985.623 35.6449 988.265 Q38.6686 990.906 43.8567 990.906 L64.0042 990.906 L64.0042 996.795 L28.3562 996.795 L28.3562 990.906 L33.8944 990.906 Q30.616 988.901 29.0564 986.1 Q27.4968 983.299 27.4968 979.448 Q27.4968 975.565 29.4702 972.86 Q31.4436 970.122 35.1993 968.817 Z" fill="#000000" fill-rule="evenodd" fill-opacity="1"></path><path clip-path="url(#clip470)" d="M58.657 927.409 L77.5631 927.409 L77.5631 933.297 L28.3562 933.297 L28.3562 927.409 L33.7671 927.409 Q30.5842 925.563 29.0564 922.762 Q27.4968 919.929 27.4968 916.014 Q27.4968 909.521 32.6531 905.479 Q37.8093 901.405 46.212 901.405 Q54.6147 901.405 59.771 905.479 Q64.9272 909.521 64.9272 916.014 Q64.9272 919.929 63.3994 922.762 Q61.8398 925.563 58.657 927.409 M46.212 907.484 Q39.7508 907.484 36.0905 910.158 Q32.3984 912.799 32.3984 917.446 Q32.3984 922.093 36.0905 924.767 Q39.7508 927.409 46.212 927.409 Q52.6732 927.409 56.3653 924.767 Q60.0256 922.093 60.0256 917.446 Q60.0256 912.799 56.3653 910.158 Q52.6732 907.484 46.212 907.484 Z" fill="#000000" fill-rule="evenodd" fill-opacity="1"></path><path clip-path="url(#clip470)" d="M49.9359 892.302 L28.3562 892.302 L28.3562 886.445 L49.7131 886.445 Q54.7739 886.445 57.3202 884.472 Q59.8346 882.499 59.8346 878.552 Q59.8346 873.809 56.8109 871.072 Q53.7872 868.303 48.5673 868.303 L28.3562 868.303 L28.3562 862.447 L64.0042 862.447 L64.0042 868.303 L58.5296 868.303 Q61.7762 870.435 63.3676 873.268 Q64.9272 876.069 64.9272 879.793 Q64.9272 885.936 61.1078 889.119 Q57.2883 892.302 49.9359 892.302 M27.4968 877.565 L27.4968 877.565 Z" fill="#000000" fill-rule="evenodd" fill-opacity="1"></path><path clip-path="url(#clip470)" d="M18.2347 844.591 L28.3562 844.591 L28.3562 832.528 L32.9077 832.528 L32.9077 844.591 L52.2594 844.591 Q56.6199 844.591 57.8613 843.413 Q59.1026 842.204 59.1026 838.543 L59.1026 832.528 L64.0042 832.528 L64.0042 838.543 Q64.0042 845.323 61.4897 847.901 Q58.9434 850.479 52.2594 850.479 L32.9077 850.479 L32.9077 854.776 L28.3562 854.776 L28.3562 850.479 L18.2347 850.479 L18.2347 844.591 Z" fill="#000000" fill-rule="evenodd" fill-opacity="1"></path><path clip-path="url(#clip470)" d="M46.0847 808.624 Q46.0847 815.722 47.7079 818.459 Q49.3312 821.197 53.2461 821.197 Q56.3653 821.197 58.2114 819.16 Q60.0256 817.091 60.0256 813.558 Q60.0256 808.688 56.5881 805.76 Q53.1188 802.8 47.3897 802.8 L46.0847 802.8 L46.0847 808.624 M43.6657 796.943 L64.0042 796.943 L64.0042 802.8 L58.5933 802.8 Q61.8398 804.805 63.3994 807.797 Q64.9272 810.789 64.9272 815.118 Q64.9272 820.592 61.8716 823.839 Q58.7843 827.053 53.6281 827.053 Q47.6125 827.053 44.5569 823.043 Q41.5014 819.001 41.5014 811.012 L41.5014 802.8 L40.9285 802.8 Q36.8862 802.8 34.6901 805.473 Q32.4621 808.115 32.4621 812.921 Q32.4621 815.977 33.1941 818.873 Q33.9262 821.77 35.3903 824.443 L29.9795 824.443 Q28.7381 821.229 28.1334 818.205 Q27.4968 815.181 27.4968 812.317 Q27.4968 804.582 31.5072 800.763 Q35.5176 796.943 43.6657 796.943 Z" fill="#000000" fill-rule="evenodd" fill-opacity="1"></path><path clip-path="url(#clip470)" d="M18.2347 779.088 L28.3562 779.088 L28.3562 767.025 L32.9077 767.025 L32.9077 779.088 L52.2594 779.088 Q56.6199 779.088 57.8613 777.91 Q59.1026 776.7 59.1026 773.04 L59.1026 767.025 L64.0042 767.025 L64.0042 773.04 Q64.0042 779.82 61.4897 782.398 Q58.9434 784.976 52.2594 784.976 L32.9077 784.976 L32.9077 789.273 L28.3562 789.273 L28.3562 784.976 L18.2347 784.976 L18.2347 779.088 Z" fill="#000000" fill-rule="evenodd" fill-opacity="1"></path><path clip-path="url(#clip470)" d="M28.3562 759.322 L28.3562 753.466 L64.0042 753.466 L64.0042 759.322 L28.3562 759.322 M14.479 759.322 L14.479 753.466 L21.895 753.466 L21.895 759.322 L14.479 759.322 Z" fill="#000000" fill-rule="evenodd" fill-opacity="1"></path><path clip-path="url(#clip470)" d="M32.4621 727.398 Q32.4621 732.109 36.1542 734.846 Q39.8145 737.583 46.212 737.583 Q52.6095 737.583 56.3017 734.878 Q59.9619 732.141 59.9619 727.398 Q59.9619 722.719 56.2698 719.982 Q52.5777 717.245 46.212 717.245 Q39.8781 717.245 36.186 719.982 Q32.4621 722.719 32.4621 727.398 M27.4968 727.398 Q27.4968 719.759 32.4621 715.399 Q37.4273 711.038 46.212 711.038 Q54.9649 711.038 59.9619 715.399 Q64.9272 719.759 64.9272 727.398 Q64.9272 735.069 59.9619 739.429 Q54.9649 743.758 46.212 743.758 Q37.4273 743.758 32.4621 739.429 Q27.4968 735.069 27.4968 727.398 Z" fill="#000000" fill-rule="evenodd" fill-opacity="1"></path><path clip-path="url(#clip470)" d="M42.4881 671.698 L64.0042 671.698 L64.0042 677.555 L42.679 677.555 Q37.6183 677.555 35.1038 679.528 Q32.5894 681.501 32.5894 685.448 Q32.5894 690.191 35.6131 692.928 Q38.6368 695.665 43.8567 695.665 L64.0042 695.665 L64.0042 701.553 L28.3562 701.553 L28.3562 695.665 L33.8944 695.665 Q30.6797 693.564 29.0883 690.732 Q27.4968 687.867 27.4968 684.143 Q27.4968 678 31.3163 674.849 Q35.1038 671.698 42.4881 671.698 Z" fill="#000000" fill-rule="evenodd" fill-opacity="1"></path><path clip-path="url(#clip470)" d="M16.4842 645.631 L16.4842 605.431 L21.895 605.431 L21.895 622.3 L64.0042 622.3 L64.0042 628.761 L21.895 628.761 L21.895 645.631 L16.4842 645.631 Z" fill="#000000" fill-rule="evenodd" fill-opacity="1"></path><path clip-path="url(#clip470)" d="M28.3562 601.484 L28.3562 595.628 L64.0042 595.628 L64.0042 601.484 L28.3562 601.484 M14.479 601.484 L14.479 595.628 L21.895 595.628 L21.895 601.484 L14.479 601.484 Z" fill="#000000" fill-rule="evenodd" fill-opacity="1"></path><path clip-path="url(#clip470)" d="M35.1993 555.619 Q31.2526 553.423 29.3747 550.368 Q27.4968 547.312 27.4968 543.175 Q27.4968 537.605 31.4117 534.581 Q35.2948 531.557 42.4881 531.557 L64.0042 531.557 L64.0042 537.445 L42.679 537.445 Q37.5546 537.445 35.072 539.26 Q32.5894 541.074 32.5894 544.798 Q32.5894 549.349 35.6131 551.991 Q38.6368 554.633 43.8567 554.633 L64.0042 554.633 L64.0042 560.521 L42.679 560.521 Q37.5228 560.521 35.072 562.335 Q32.5894 564.15 32.5894 567.937 Q32.5894 572.425 35.6449 575.067 Q38.6686 577.708 43.8567 577.708 L64.0042 577.708 L64.0042 583.597 L28.3562 583.597 L28.3562 577.708 L33.8944 577.708 Q30.616 575.703 29.0564 572.902 Q27.4968 570.101 27.4968 566.25 Q27.4968 562.367 29.4702 559.662 Q31.4436 556.924 35.1993 555.619 Z" fill="#000000" fill-rule="evenodd" fill-opacity="1"></path><path clip-path="url(#clip470)" d="M44.7161 489.384 L47.5806 489.384 L47.5806 516.311 Q53.6281 515.929 56.8109 512.683 Q59.9619 509.404 59.9619 503.58 Q59.9619 500.206 59.1344 497.055 Q58.3069 493.872 56.6518 490.753 L62.1899 490.753 Q63.5267 493.904 64.227 497.214 Q64.9272 500.524 64.9272 503.93 Q64.9272 512.46 59.9619 517.457 Q54.9967 522.422 46.5303 522.422 Q37.7774 522.422 32.6531 517.712 Q27.4968 512.969 27.4968 504.948 Q27.4968 497.755 32.1438 493.586 Q36.7589 489.384 44.7161 489.384 M42.9973 495.241 Q38.1912 495.304 35.3266 497.946 Q32.4621 500.556 32.4621 504.885 Q32.4621 509.786 35.2312 512.746 Q38.0002 515.675 43.0292 516.12 L42.9973 495.241 Z" fill="#000000" fill-rule="evenodd" fill-opacity="1"></path><path clip-path="url(#clip470)" d="M14.479 459.593 L14.479 446.097 L19.0304 446.097 L19.0304 453.736 L68.0464 453.736 L68.0464 446.097 L72.5979 446.097 L72.5979 459.593 L14.479 459.593 Z" fill="#000000" fill-rule="evenodd" fill-opacity="1"></path><path clip-path="url(#clip470)" d="M29.4065 410.895 L34.9447 410.895 Q33.6716 413.378 33.035 416.051 Q32.3984 418.725 32.3984 421.59 Q32.3984 425.95 33.7352 428.146 Q35.072 430.311 37.7456 430.311 Q39.7826 430.311 40.9603 428.751 Q42.1061 427.191 43.1565 422.481 L43.6021 420.476 Q44.9389 414.237 47.3897 411.627 Q49.8086 408.985 54.1691 408.985 Q59.1344 408.985 62.0308 412.932 Q64.9272 416.847 64.9272 423.722 Q64.9272 426.587 64.3543 429.706 Q63.8132 432.793 62.6992 436.231 L56.6518 436.231 Q58.3387 432.984 59.198 429.833 Q60.0256 426.682 60.0256 423.595 Q60.0256 419.457 58.6251 417.229 Q57.1929 415.001 54.6147 415.001 Q52.2276 415.001 50.9545 416.624 Q49.6813 418.216 48.5037 423.658 L48.0262 425.695 Q46.8804 431.138 44.5251 433.557 Q42.138 435.976 38.0002 435.976 Q32.9713 435.976 30.2341 432.411 Q27.4968 428.846 27.4968 422.29 Q27.4968 419.043 27.9743 416.179 Q28.4517 413.314 29.4065 410.895 Z" fill="#000000" fill-rule="evenodd" fill-opacity="1"></path><path clip-path="url(#clip470)" d="M14.479 385.973 L72.5979 385.973 L72.5979 399.469 L68.0464 399.469 L68.0464 391.862 L19.0304 391.862 L19.0304 399.469 L14.479 399.469 L14.479 385.973 Z" fill="#000000" fill-rule="evenodd" fill-opacity="1"></path><polyline clip-path="url(#clip472)" style="stroke:#009af9; stroke-linecap:round; stroke-linejoin:round; stroke-width:4; stroke-opacity:1; fill:none" points="
  265.903,1384.24 450.091,1383.51 818.468,1379.92 1186.84,1352.93 1555.22,1240.74 2291.97,303.41 
  "></polyline>
<polyline clip-path="url(#clip472)" style="stroke:#e26f46; stroke-linecap:round; stroke-linejoin:round; stroke-width:4; stroke-opacity:1; fill:none" points="
  265.903,1384.18 450.091,1383.62 818.468,1372.51 1186.84,1331.62 1555.22,1215.12 2291.97,475.097 
  "></polyline>
<polyline clip-path="url(#clip472)" style="stroke:#3da44d; stroke-linecap:round; stroke-linejoin:round; stroke-width:4; stroke-opacity:1; fill:none" points="
  265.903,1383.99 450.091,1382.08 818.468,1364.39 1186.84,1294.35 1555.22,1074.27 2291.97,86.1857 
  "></polyline>
<path clip-path="url(#clip470)" d="
M276.709 300.469 L698.714 300.469 L698.714 93.1086 L276.709 93.1086  Z
  " fill="#ffffff" fill-rule="evenodd" fill-opacity="1"></path>
<polyline clip-path="url(#clip470)" style="stroke:#000000; stroke-linecap:round; stroke-linejoin:round; stroke-width:4; stroke-opacity:1; fill:none" points="
  276.709,300.469 698.714,300.469 698.714,93.1086 276.709,93.1086 276.709,300.469 
  "></polyline>
<polyline clip-path="url(#clip470)" style="stroke:#009af9; stroke-linecap:round; stroke-linejoin:round; stroke-width:4; stroke-opacity:1; fill:none" points="
  300.571,144.949 443.747,144.949 
  "></polyline>
<path clip-path="url(#clip470)" d="M467.61 127.669 L487.471 127.669 L487.471 131.604 L472.286 131.604 L472.286 141.789 L485.989 141.789 L485.989 145.724 L472.286 145.724 L472.286 162.229 L467.61 162.229 L467.61 127.669 Z" fill="#000000" fill-rule="evenodd" fill-opacity="1"></path><path clip-path="url(#clip470)" d="M503.049 139.289 Q499.623 139.289 497.633 141.974 Q495.642 144.636 495.642 149.289 Q495.642 153.942 497.61 156.627 Q499.6 159.289 503.049 159.289 Q506.452 159.289 508.443 156.604 Q510.434 153.918 510.434 149.289 Q510.434 144.682 508.443 141.997 Q506.452 139.289 503.049 139.289 M503.049 135.678 Q508.605 135.678 511.776 139.289 Q514.947 142.9 514.947 149.289 Q514.947 155.655 511.776 159.289 Q508.605 162.9 503.049 162.9 Q497.471 162.9 494.299 159.289 Q491.151 155.655 491.151 149.289 Q491.151 142.9 494.299 139.289 Q497.471 135.678 503.049 135.678 Z" fill="#000000" fill-rule="evenodd" fill-opacity="1"></path><path clip-path="url(#clip470)" d="M537.031 140.284 Q536.313 139.868 535.457 139.682 Q534.623 139.474 533.605 139.474 Q529.994 139.474 528.049 141.835 Q526.128 144.173 526.128 148.571 L526.128 162.229 L521.846 162.229 L521.846 136.303 L526.128 136.303 L526.128 140.331 Q527.47 137.969 529.623 136.835 Q531.776 135.678 534.855 135.678 Q535.295 135.678 535.827 135.747 Q536.359 135.794 537.007 135.909 L537.031 140.284 Z" fill="#000000" fill-rule="evenodd" fill-opacity="1"></path><path clip-path="url(#clip470)" d="M539.021 136.303 L543.281 136.303 L548.605 156.534 L553.906 136.303 L558.929 136.303 L564.253 156.534 L569.554 136.303 L573.813 136.303 L567.03 162.229 L562.007 162.229 L556.429 140.979 L550.827 162.229 L545.804 162.229 L539.021 136.303 Z" fill="#000000" fill-rule="evenodd" fill-opacity="1"></path><path clip-path="url(#clip470)" d="M592.053 149.196 Q586.891 149.196 584.901 150.377 Q582.91 151.557 582.91 154.405 Q582.91 156.673 584.391 158.016 Q585.896 159.335 588.466 159.335 Q592.007 159.335 594.137 156.835 Q596.29 154.312 596.29 150.145 L596.29 149.196 L592.053 149.196 M600.549 147.437 L600.549 162.229 L596.29 162.229 L596.29 158.293 Q594.831 160.655 592.655 161.789 Q590.479 162.9 587.331 162.9 Q583.35 162.9 580.989 160.678 Q578.651 158.432 578.651 154.682 Q578.651 150.307 581.567 148.085 Q584.507 145.863 590.317 145.863 L596.29 145.863 L596.29 145.446 Q596.29 142.507 594.345 140.909 Q592.424 139.289 588.928 139.289 Q586.706 139.289 584.6 139.821 Q582.493 140.354 580.549 141.419 L580.549 137.483 Q582.887 136.581 585.086 136.141 Q587.285 135.678 589.368 135.678 Q594.993 135.678 597.771 138.594 Q600.549 141.511 600.549 147.437 Z" fill="#000000" fill-rule="evenodd" fill-opacity="1"></path><path clip-path="url(#clip470)" d="M624.345 140.284 Q623.627 139.868 622.771 139.682 Q621.938 139.474 620.919 139.474 Q617.308 139.474 615.364 141.835 Q613.442 144.173 613.442 148.571 L613.442 162.229 L609.16 162.229 L609.16 136.303 L613.442 136.303 L613.442 140.331 Q614.785 137.969 616.938 136.835 Q619.09 135.678 622.169 135.678 Q622.609 135.678 623.141 135.747 Q623.674 135.794 624.322 135.909 L624.345 140.284 Z" fill="#000000" fill-rule="evenodd" fill-opacity="1"></path><path clip-path="url(#clip470)" d="M645.039 140.238 L645.039 126.21 L649.299 126.21 L649.299 162.229 L645.039 162.229 L645.039 158.34 Q643.697 160.655 641.637 161.789 Q639.6 162.9 636.729 162.9 Q632.03 162.9 629.067 159.15 Q626.127 155.4 626.127 149.289 Q626.127 143.178 629.067 139.428 Q632.03 135.678 636.729 135.678 Q639.6 135.678 641.637 136.812 Q643.697 137.923 645.039 140.238 M630.525 149.289 Q630.525 153.988 632.447 156.673 Q634.391 159.335 637.771 159.335 Q641.15 159.335 643.095 156.673 Q645.039 153.988 645.039 149.289 Q645.039 144.59 643.095 141.928 Q641.15 139.243 637.771 139.243 Q634.391 139.243 632.447 141.928 Q630.525 144.59 630.525 149.289 Z" fill="#000000" fill-rule="evenodd" fill-opacity="1"></path><polyline clip-path="url(#clip470)" style="stroke:#e26f46; stroke-linecap:round; stroke-linejoin:round; stroke-width:4; stroke-opacity:1; fill:none" points="
  300.571,196.789 443.747,196.789 
  "></polyline>
<path clip-path="url(#clip470)" d="M483.998 197.865 Q485.503 198.374 486.915 200.041 Q488.35 201.708 489.785 204.624 L494.531 214.069 L489.508 214.069 L485.086 205.203 Q483.373 201.731 481.753 200.596 Q480.156 199.462 477.378 199.462 L472.286 199.462 L472.286 214.069 L467.61 214.069 L467.61 179.509 L478.165 179.509 Q484.091 179.509 487.008 181.985 Q489.924 184.462 489.924 189.462 Q489.924 192.726 488.397 194.879 Q486.892 197.032 483.998 197.865 M472.286 183.351 L472.286 195.62 L478.165 195.62 Q481.545 195.62 483.258 194.069 Q484.994 192.495 484.994 189.462 Q484.994 186.43 483.258 184.902 Q481.545 183.351 478.165 183.351 L472.286 183.351 Z" fill="#000000" fill-rule="evenodd" fill-opacity="1"></path><path clip-path="url(#clip470)" d="M520.41 200.041 L520.41 202.124 L500.827 202.124 Q501.105 206.522 503.466 208.837 Q505.85 211.129 510.086 211.129 Q512.54 211.129 514.832 210.527 Q517.146 209.925 519.415 208.721 L519.415 212.749 Q517.123 213.721 514.716 214.231 Q512.309 214.74 509.832 214.74 Q503.628 214.74 499.994 211.129 Q496.383 207.518 496.383 201.36 Q496.383 194.995 499.809 191.268 Q503.258 187.518 509.091 187.518 Q514.322 187.518 517.355 190.897 Q520.41 194.254 520.41 200.041 M516.151 198.791 Q516.105 195.296 514.184 193.212 Q512.285 191.129 509.137 191.129 Q505.572 191.129 503.42 193.143 Q501.29 195.157 500.966 198.814 L516.151 198.791 Z" fill="#000000" fill-rule="evenodd" fill-opacity="1"></path><path clip-path="url(#clip470)" d="M524.345 188.143 L528.859 188.143 L536.961 209.902 L545.063 188.143 L549.577 188.143 L539.855 214.069 L534.068 214.069 L524.345 188.143 Z" fill="#000000" fill-rule="evenodd" fill-opacity="1"></path><path clip-path="url(#clip470)" d="M577.632 200.041 L577.632 202.124 L558.049 202.124 Q558.327 206.522 560.688 208.837 Q563.072 211.129 567.308 211.129 Q569.762 211.129 572.054 210.527 Q574.368 209.925 576.637 208.721 L576.637 212.749 Q574.345 213.721 571.938 214.231 Q569.53 214.74 567.054 214.74 Q560.85 214.74 557.216 211.129 Q553.605 207.518 553.605 201.36 Q553.605 194.995 557.031 191.268 Q560.48 187.518 566.313 187.518 Q571.544 187.518 574.577 190.897 Q577.632 194.254 577.632 200.041 M573.373 198.791 Q573.327 195.296 571.405 193.212 Q569.507 191.129 566.359 191.129 Q562.794 191.129 560.642 193.143 Q558.512 195.157 558.188 198.814 L573.373 198.791 Z" fill="#000000" fill-rule="evenodd" fill-opacity="1"></path><path clip-path="url(#clip470)" d="M599.646 192.124 Q598.928 191.708 598.072 191.522 Q597.239 191.314 596.22 191.314 Q592.609 191.314 590.665 193.675 Q588.743 196.013 588.743 200.411 L588.743 214.069 L584.461 214.069 L584.461 188.143 L588.743 188.143 L588.743 192.171 Q590.086 189.809 592.239 188.675 Q594.391 187.518 597.47 187.518 Q597.91 187.518 598.442 187.587 Q598.975 187.634 599.623 187.749 L599.646 192.124 Z" fill="#000000" fill-rule="evenodd" fill-opacity="1"></path><path clip-path="url(#clip470)" d="M620.641 188.907 L620.641 192.934 Q618.836 192.009 616.891 191.546 Q614.947 191.083 612.864 191.083 Q609.692 191.083 608.095 192.055 Q606.521 193.027 606.521 194.971 Q606.521 196.453 607.655 197.309 Q608.789 198.143 612.215 198.907 L613.674 199.231 Q618.211 200.203 620.109 201.985 Q622.03 203.745 622.03 206.916 Q622.03 210.527 619.16 212.633 Q616.313 214.74 611.313 214.74 Q609.229 214.74 606.961 214.323 Q604.715 213.93 602.215 213.12 L602.215 208.721 Q604.577 209.948 606.868 210.573 Q609.16 211.175 611.405 211.175 Q614.414 211.175 616.035 210.157 Q617.655 209.115 617.655 207.24 Q617.655 205.504 616.475 204.578 Q615.317 203.652 611.359 202.796 L609.877 202.448 Q605.919 201.615 604.16 199.902 Q602.401 198.166 602.401 195.157 Q602.401 191.499 604.993 189.509 Q607.586 187.518 612.354 187.518 Q614.715 187.518 616.799 187.865 Q618.882 188.212 620.641 188.907 Z" fill="#000000" fill-rule="evenodd" fill-opacity="1"></path><path clip-path="url(#clip470)" d="M650.988 200.041 L650.988 202.124 L631.405 202.124 Q631.683 206.522 634.044 208.837 Q636.428 211.129 640.664 211.129 Q643.118 211.129 645.41 210.527 Q647.724 209.925 649.993 208.721 L649.993 212.749 Q647.701 213.721 645.294 214.231 Q642.887 214.74 640.41 214.74 Q634.206 214.74 630.572 211.129 Q626.961 207.518 626.961 201.36 Q626.961 194.995 630.387 191.268 Q633.836 187.518 639.669 187.518 Q644.9 187.518 647.933 190.897 Q650.988 194.254 650.988 200.041 M646.729 198.791 Q646.683 195.296 644.762 193.212 Q642.863 191.129 639.715 191.129 Q636.15 191.129 633.998 193.143 Q631.868 195.157 631.544 198.814 L646.729 198.791 Z" fill="#000000" fill-rule="evenodd" fill-opacity="1"></path><polyline clip-path="url(#clip470)" style="stroke:#3da44d; stroke-linecap:round; stroke-linejoin:round; stroke-width:4; stroke-opacity:1; fill:none" points="
  300.571,248.629 443.747,248.629 
  "></polyline>
<path clip-path="url(#clip470)" d="M468.142 231.349 L495.295 231.349 L495.295 234.913 L473.443 261.973 L495.827 261.973 L495.827 265.909 L467.61 265.909 L467.61 262.344 L489.461 235.284 L468.142 235.284 L468.142 231.349 Z" fill="#000000" fill-rule="evenodd" fill-opacity="1"></path><path clip-path="url(#clip470)" d="M513.211 268.316 Q511.406 272.946 509.693 274.358 Q507.98 275.77 505.109 275.77 L501.707 275.77 L501.707 272.205 L504.207 272.205 Q505.966 272.205 506.938 271.372 Q507.91 270.538 509.091 267.436 L509.855 265.492 L499.369 239.983 L503.883 239.983 L511.984 260.261 L520.086 239.983 L524.6 239.983 L513.211 268.316 Z" fill="#000000" fill-rule="evenodd" fill-opacity="1"></path><path clip-path="url(#clip470)" d="M547.54 252.645 Q547.54 248.015 545.619 245.469 Q543.72 242.923 540.271 242.923 Q536.845 242.923 534.924 245.469 Q533.026 248.015 533.026 252.645 Q533.026 257.251 534.924 259.798 Q536.845 262.344 540.271 262.344 Q543.72 262.344 545.619 259.798 Q547.54 257.251 547.54 252.645 M551.799 262.691 Q551.799 269.311 548.859 272.529 Q545.919 275.77 539.855 275.77 Q537.609 275.77 535.619 275.422 Q533.628 275.098 531.753 274.404 L531.753 270.26 Q533.628 271.279 535.457 271.765 Q537.285 272.251 539.183 272.251 Q543.373 272.251 545.456 270.052 Q547.54 267.876 547.54 263.455 L547.54 261.348 Q546.22 263.64 544.16 264.774 Q542.1 265.909 539.23 265.909 Q534.461 265.909 531.545 262.274 Q528.628 258.64 528.628 252.645 Q528.628 246.626 531.545 242.992 Q534.461 239.358 539.23 239.358 Q542.1 239.358 544.16 240.492 Q546.22 241.626 547.54 243.918 L547.54 239.983 L551.799 239.983 L551.799 262.691 Z" fill="#000000" fill-rule="evenodd" fill-opacity="1"></path><path clip-path="url(#clip470)" d="M570.618 242.969 Q567.192 242.969 565.202 245.654 Q563.211 248.316 563.211 252.969 Q563.211 257.622 565.179 260.307 Q567.169 262.969 570.618 262.969 Q574.021 262.969 576.012 260.284 Q578.003 257.598 578.003 252.969 Q578.003 248.362 576.012 245.677 Q574.021 242.969 570.618 242.969 M570.618 239.358 Q576.174 239.358 579.345 242.969 Q582.516 246.58 582.516 252.969 Q582.516 259.335 579.345 262.969 Q576.174 266.58 570.618 266.58 Q565.04 266.58 561.868 262.969 Q558.72 259.335 558.72 252.969 Q558.72 246.58 561.868 242.969 Q565.04 239.358 570.618 239.358 Z" fill="#000000" fill-rule="evenodd" fill-opacity="1"></path><path clip-path="url(#clip470)" d="M593.79 232.622 L593.79 239.983 L602.563 239.983 L602.563 243.293 L593.79 243.293 L593.79 257.367 Q593.79 260.538 594.646 261.441 Q595.526 262.344 598.188 262.344 L602.563 262.344 L602.563 265.909 L598.188 265.909 Q593.257 265.909 591.382 264.08 Q589.507 262.228 589.507 257.367 L589.507 243.293 L586.382 243.293 L586.382 239.983 L589.507 239.983 L589.507 232.622 L593.79 232.622 Z" fill="#000000" fill-rule="evenodd" fill-opacity="1"></path><path clip-path="url(#clip470)" d="M630.34 251.881 L630.34 253.964 L610.757 253.964 Q611.035 258.362 613.396 260.677 Q615.78 262.969 620.016 262.969 Q622.47 262.969 624.762 262.367 Q627.076 261.765 629.345 260.561 L629.345 264.589 Q627.053 265.561 624.646 266.071 Q622.238 266.58 619.762 266.58 Q613.558 266.58 609.924 262.969 Q606.313 259.358 606.313 253.2 Q606.313 246.835 609.739 243.108 Q613.188 239.358 619.021 239.358 Q624.252 239.358 627.285 242.737 Q630.34 246.094 630.34 251.881 M626.081 250.631 Q626.035 247.136 624.113 245.052 Q622.215 242.969 619.067 242.969 Q615.502 242.969 613.35 244.983 Q611.22 246.997 610.896 250.654 L626.081 250.631 Z" fill="#000000" fill-rule="evenodd" fill-opacity="1"></path></svg>