<svg xmlns="http://www.w3.org/2000/svg" xmlns:xlink="http://www.w3.org/1999/xlink" width="600" height="400" viewBox="0 0 2400 1600">
<defs>
  <clipPath id="clip990">
    <rect x="0" y="0" width="2400" height="1600"></rect>
  </clipPath>
</defs>
<path clip-path="url(#clip990)" d="
M0 1600 L2400 1600 L2400 0 L0 0  Z
  " fill="#ffffff" fill-rule="evenodd" fill-opacity="1"></path>
<defs>
  <clipPath id="clip991">
    <rect x="480" y="0" width="1681" height="1600"></rect>
  </clipPath>
</defs>
<path clip-path="url(#clip990)" d="
M205.121 1423.18 L2352.76 1423.18 L2352.76 123.472 L205.121 123.472  Z
  " fill="#ffffff" fill-rule="evenodd" fill-opacity="1"></path>
<defs>
  <clipPath id="clip992">
    <rect x="205" y="123" width="2149" height="1301"></rect>
  </clipPath>
</defs>
<polyline clip-path="url(#clip992)" style="stroke:#000000; stroke-linecap:round; stroke-linejoin:round; stroke-width:2; stroke-opacity:0.1; fill:none" points="
  671.117,1423.18 671.117,123.472 
  "></polyline>
<polyline clip-path="url(#clip992)" style="stroke:#000000; stroke-linecap:round; stroke-linejoin:round; stroke-width:2; stroke-opacity:0.1; fill:none" points="
  1211.4,1423.18 1211.4,123.472 
  "></polyline>
<polyline clip-path="url(#clip992)" style="stroke:#000000; stroke-linecap:round; stroke-linejoin:round; stroke-width:2; stroke-opacity:0.1; fill:none" points="
  1751.69,1423.18 1751.69,123.472 
  "></polyline>
<polyline clip-path="url(#clip992)" style="stroke:#000000; stroke-linecap:round; stroke-linejoin:round; stroke-width:2; stroke-opacity:0.1; fill:none" points="
  2291.97,1423.18 2291.97,123.472 
  "></polyline>
<polyline clip-path="url(#clip990)" style="stroke:#000000; stroke-linecap:round; stroke-linejoin:round; stroke-width:4; stroke-opacity:1; fill:none" points="
  205.121,1423.18 2352.76,1423.18 
  "></polyline>
<polyline clip-path="url(#clip990)" style="stroke:#000000; stroke-linecap:round; stroke-linejoin:round; stroke-width:4; stroke-opacity:1; fill:none" points="
  671.117,1423.18 671.117,1404.28 
  "></polyline>
<polyline clip-path="url(#clip990)" style="stroke:#000000; stroke-linecap:round; stroke-linejoin:round; stroke-width:4; stroke-opacity:1; fill:none" points="
  1211.4,1423.18 1211.4,1404.28 
  "></polyline>
<polyline clip-path="url(#clip990)" style="stroke:#000000; stroke-linecap:round; stroke-linejoin:round; stroke-width:4; stroke-opacity:1; fill:none" points="
  1751.69,1423.18 1751.69,1404.28 
  "></polyline>
<polyline clip-path="url(#clip990)" style="stroke:#000000; stroke-linecap:round; stroke-linejoin:round; stroke-width:4; stroke-opacity:1; fill:none" points="
  2291.97,1423.18 2291.97,1404.28 
  "></polyline>
<path clip-path="url(#clip990)" d="M649.89 1481.64 L666.21 1481.64 L666.21 1485.58 L644.266 1485.58 L644.266 1481.64 Q646.928 1478.89 651.511 1474.26 Q656.117 1469.61 657.298 1468.27 Q659.543 1465.74 660.423 1464.01 Q661.326 1462.25 661.326 1460.56 Q661.326 1457.8 659.381 1456.07 Q657.46 1454.33 654.358 1454.33 Q652.159 1454.33 649.705 1455.09 Q647.275 1455.86 644.497 1457.41 L644.497 1452.69 Q647.321 1451.55 649.775 1450.97 Q652.228 1450.39 654.265 1450.39 Q659.636 1450.39 662.83 1453.08 Q666.025 1455.77 666.025 1460.26 Q666.025 1462.39 665.214 1464.31 Q664.427 1466.2 662.321 1468.8 Q661.742 1469.47 658.64 1472.69 Q655.539 1475.88 649.89 1481.64 Z" fill="#000000" fill-rule="evenodd" fill-opacity="1"></path><path clip-path="url(#clip990)" d="M686.025 1454.1 Q682.413 1454.1 680.585 1457.66 Q678.779 1461.2 678.779 1468.33 Q678.779 1475.44 680.585 1479.01 Q682.413 1482.55 686.025 1482.55 Q689.659 1482.55 691.464 1479.01 Q693.293 1475.44 693.293 1468.33 Q693.293 1461.2 691.464 1457.66 Q689.659 1454.1 686.025 1454.1 M686.025 1450.39 Q691.835 1450.39 694.89 1455 Q697.969 1459.58 697.969 1468.33 Q697.969 1477.06 694.89 1481.67 Q691.835 1486.25 686.025 1486.25 Q680.214 1486.25 677.136 1481.67 Q674.08 1477.06 674.08 1468.33 Q674.08 1459.58 677.136 1455 Q680.214 1450.39 686.025 1450.39 Z" fill="#000000" fill-rule="evenodd" fill-opacity="1"></path><path clip-path="url(#clip990)" d="M1199.57 1455.09 L1187.77 1473.54 L1199.57 1473.54 L1199.57 1455.09 M1198.35 1451.02 L1204.23 1451.02 L1204.23 1473.54 L1209.16 1473.54 L1209.16 1477.43 L1204.23 1477.43 L1204.23 1485.58 L1199.57 1485.58 L1199.57 1477.43 L1183.97 1477.43 L1183.97 1472.92 L1198.35 1451.02 Z" fill="#000000" fill-rule="evenodd" fill-opacity="1"></path><path clip-path="url(#clip990)" d="M1226.89 1454.1 Q1223.28 1454.1 1221.45 1457.66 Q1219.64 1461.2 1219.64 1468.33 Q1219.64 1475.44 1221.45 1479.01 Q1223.28 1482.55 1226.89 1482.55 Q1230.52 1482.55 1232.33 1479.01 Q1234.16 1475.44 1234.16 1468.33 Q1234.16 1461.2 1232.33 1457.66 Q1230.52 1454.1 1226.89 1454.1 M1226.89 1450.39 Q1232.7 1450.39 1235.75 1455 Q1238.83 1459.58 1238.83 1468.33 Q1238.83 1477.06 1235.75 1481.67 Q1232.7 1486.25 1226.89 1486.25 Q1221.08 1486.25 1218 1481.67 Q1214.94 1477.06 1214.94 1468.33 Q1214.94 1459.58 1218 1455 Q1221.08 1450.39 1226.89 1450.39 Z" fill="#000000" fill-rule="evenodd" fill-opacity="1"></path><path clip-path="url(#clip990)" d="M1737.09 1466.44 Q1733.95 1466.44 1732.09 1468.59 Q1730.26 1470.74 1730.26 1474.49 Q1730.26 1478.22 1732.09 1480.39 Q1733.95 1482.55 1737.09 1482.55 Q1740.24 1482.55 1742.07 1480.39 Q1743.92 1478.22 1743.92 1474.49 Q1743.92 1470.74 1742.07 1468.59 Q1740.24 1466.44 1737.09 1466.44 M1746.38 1451.78 L1746.38 1456.04 Q1744.62 1455.21 1742.81 1454.77 Q1741.03 1454.33 1739.27 1454.33 Q1734.64 1454.33 1732.19 1457.45 Q1729.76 1460.58 1729.41 1466.9 Q1730.77 1464.89 1732.83 1463.82 Q1734.89 1462.73 1737.37 1462.73 Q1742.58 1462.73 1745.59 1465.9 Q1748.62 1469.05 1748.62 1474.49 Q1748.62 1479.82 1745.47 1483.03 Q1742.32 1486.25 1737.09 1486.25 Q1731.1 1486.25 1727.93 1481.67 Q1724.76 1477.06 1724.76 1468.33 Q1724.76 1460.14 1728.64 1455.28 Q1732.53 1450.39 1739.08 1450.39 Q1740.84 1450.39 1742.63 1450.74 Q1744.43 1451.09 1746.38 1451.78 Z" fill="#000000" fill-rule="evenodd" fill-opacity="1"></path><path clip-path="url(#clip990)" d="M1766.68 1454.1 Q1763.07 1454.1 1761.24 1457.66 Q1759.43 1461.2 1759.43 1468.33 Q1759.43 1475.44 1761.24 1479.01 Q1763.07 1482.55 1766.68 1482.55 Q1770.31 1482.55 1772.12 1479.01 Q1773.95 1475.44 1773.95 1468.33 Q1773.95 1461.2 1772.12 1457.66 Q1770.31 1454.1 1766.68 1454.1 M1766.68 1450.39 Q1772.49 1450.39 1775.54 1455 Q1778.62 1459.58 1778.62 1468.33 Q1778.62 1477.06 1775.54 1481.67 Q1772.49 1486.25 1766.68 1486.25 Q1760.87 1486.25 1757.79 1481.67 Q1754.73 1477.06 1754.73 1468.33 Q1754.73 1459.58 1757.79 1455 Q1760.87 1450.39 1766.68 1450.39 Z" fill="#000000" fill-rule="evenodd" fill-opacity="1"></path><path clip-path="url(#clip990)" d="M2276.85 1469.17 Q2273.51 1469.17 2271.59 1470.95 Q2269.69 1472.73 2269.69 1475.86 Q2269.69 1478.98 2271.59 1480.77 Q2273.51 1482.55 2276.85 1482.55 Q2280.18 1482.55 2282.1 1480.77 Q2284.02 1478.96 2284.02 1475.86 Q2284.02 1472.73 2282.1 1470.95 Q2280.2 1469.17 2276.85 1469.17 M2272.17 1467.18 Q2269.16 1466.44 2267.47 1464.38 Q2265.8 1462.32 2265.8 1459.35 Q2265.8 1455.21 2268.74 1452.8 Q2271.71 1450.39 2276.85 1450.39 Q2282.01 1450.39 2284.95 1452.8 Q2287.89 1455.21 2287.89 1459.35 Q2287.89 1462.32 2286.2 1464.38 Q2284.53 1466.44 2281.55 1467.18 Q2284.93 1467.96 2286.8 1470.26 Q2288.7 1472.55 2288.7 1475.86 Q2288.7 1480.88 2285.62 1483.57 Q2282.56 1486.25 2276.85 1486.25 Q2271.13 1486.25 2268.05 1483.57 Q2264.99 1480.88 2264.99 1475.86 Q2264.99 1472.55 2266.89 1470.26 Q2268.79 1467.96 2272.17 1467.18 M2270.46 1459.79 Q2270.46 1462.48 2272.12 1463.98 Q2273.81 1465.49 2276.85 1465.49 Q2279.86 1465.49 2281.55 1463.98 Q2283.26 1462.48 2283.26 1459.79 Q2283.26 1457.11 2281.55 1455.6 Q2279.86 1454.1 2276.85 1454.1 Q2273.81 1454.1 2272.12 1455.6 Q2270.46 1457.11 2270.46 1459.79 Z" fill="#000000" fill-rule="evenodd" fill-opacity="1"></path><path clip-path="url(#clip990)" d="M2307.01 1454.1 Q2303.4 1454.1 2301.57 1457.66 Q2299.76 1461.2 2299.76 1468.33 Q2299.76 1475.44 2301.57 1479.01 Q2303.4 1482.55 2307.01 1482.55 Q2310.64 1482.55 2312.45 1479.01 Q2314.28 1475.44 2314.28 1468.33 Q2314.28 1461.2 2312.45 1457.66 Q2310.64 1454.1 2307.01 1454.1 M2307.01 1450.39 Q2312.82 1450.39 2315.87 1455 Q2318.95 1459.58 2318.95 1468.33 Q2318.95 1477.06 2315.87 1481.67 Q2312.82 1486.25 2307.01 1486.25 Q2301.2 1486.25 2298.12 1481.67 Q2295.06 1477.06 2295.06 1468.33 Q2295.06 1459.58 2298.12 1455 Q2301.2 1450.39 2307.01 1450.39 Z" fill="#000000" fill-rule="evenodd" fill-opacity="1"></path><path clip-path="url(#clip990)" d="M1097.01 1539.37 L1087.74 1539.37 L1085.07 1550 L1094.4 1550 L1097.01 1539.37 M1092.23 1521.26 L1088.92 1534.46 L1098.22 1534.46 L1101.56 1521.26 L1106.65 1521.26 L1103.37 1534.46 L1113.3 1534.46 L1113.3 1539.37 L1102.13 1539.37 L1099.52 1550 L1109.64 1550 L1109.64 1554.87 L1098.28 1554.87 L1094.97 1568.04 L1089.88 1568.04 L1093.16 1554.87 L1083.83 1554.87 L1080.55 1568.04 L1075.43 1568.04 L1078.74 1554.87 L1068.71 1554.87 L1068.71 1550 L1079.91 1550 L1082.59 1539.37 L1072.34 1539.37 L1072.34 1534.46 L1083.83 1534.46 L1087.08 1521.26 L1092.23 1521.26 Z" fill="#000000" fill-rule="evenodd" fill-opacity="1"></path><path clip-path="url(#clip990)" d="M1177.82 1561.26 L1177.82 1548.5 L1167.32 1548.5 L1167.32 1543.22 L1184.18 1543.22 L1184.18 1563.62 Q1180.46 1566.26 1175.97 1567.63 Q1171.49 1568.97 1166.39 1568.97 Q1155.25 1568.97 1148.95 1562.47 Q1142.68 1555.95 1142.68 1544.33 Q1142.68 1532.68 1148.95 1526.19 Q1155.25 1519.66 1166.39 1519.66 Q1171.04 1519.66 1175.21 1520.81 Q1179.41 1521.96 1182.94 1524.18 L1182.94 1531.03 Q1179.38 1528 1175.37 1526.48 Q1171.36 1524.95 1166.93 1524.95 Q1158.21 1524.95 1153.82 1529.82 Q1149.46 1534.69 1149.46 1544.33 Q1149.46 1553.94 1153.82 1558.81 Q1158.21 1563.68 1166.93 1563.68 Q1170.34 1563.68 1173.01 1563.11 Q1175.69 1562.51 1177.82 1561.26 Z" fill="#000000" fill-rule="evenodd" fill-opacity="1"></path><path clip-path="url(#clip990)" d="M1216.33 1537.87 Q1215.35 1537.3 1214.17 1537.04 Q1213.02 1536.76 1211.62 1536.76 Q1206.66 1536.76 1203.98 1540 Q1201.34 1543.22 1201.34 1549.27 L1201.34 1568.04 L1195.45 1568.04 L1195.45 1532.4 L1201.34 1532.4 L1201.34 1537.93 Q1203.19 1534.69 1206.15 1533.13 Q1209.11 1531.54 1213.34 1531.54 Q1213.94 1531.54 1214.68 1531.63 Q1215.41 1531.7 1216.3 1531.85 L1216.33 1537.87 Z" fill="#000000" fill-rule="evenodd" fill-opacity="1"></path><path clip-path="url(#clip990)" d="M1222.47 1532.4 L1228.33 1532.4 L1228.33 1568.04 L1222.47 1568.04 L1222.47 1532.4 M1222.47 1518.52 L1228.33 1518.52 L1228.33 1525.93 L1222.47 1525.93 L1222.47 1518.52 Z" fill="#000000" fill-rule="evenodd" fill-opacity="1"></path><path clip-path="url(#clip990)" d="M1264.04 1537.81 L1264.04 1518.52 L1269.9 1518.52 L1269.9 1568.04 L1264.04 1568.04 L1264.04 1562.7 Q1262.2 1565.88 1259.36 1567.44 Q1256.56 1568.97 1252.62 1568.97 Q1246.16 1568.97 1242.08 1563.81 Q1238.04 1558.65 1238.04 1550.25 Q1238.04 1541.85 1242.08 1536.69 Q1246.16 1531.54 1252.62 1531.54 Q1256.56 1531.54 1259.36 1533.1 Q1262.2 1534.62 1264.04 1537.81 M1244.09 1550.25 Q1244.09 1556.71 1246.73 1560.4 Q1249.4 1564.07 1254.05 1564.07 Q1258.7 1564.07 1261.37 1560.4 Q1264.04 1556.71 1264.04 1550.25 Q1264.04 1543.79 1261.37 1540.13 Q1258.7 1536.44 1254.05 1536.44 Q1249.4 1536.44 1246.73 1540.13 Q1244.09 1543.79 1244.09 1550.25 Z" fill="#000000" fill-rule="evenodd" fill-opacity="1"></path><path clip-path="url(#clip990)" d="M1309.37 1525.81 L1309.37 1543.66 L1317.45 1543.66 Q1321.94 1543.66 1324.39 1541.34 Q1326.84 1539.02 1326.84 1534.72 Q1326.84 1530.45 1324.39 1528.13 Q1321.94 1525.81 1317.45 1525.81 L1309.37 1525.81 M1302.94 1520.52 L1317.45 1520.52 Q1325.44 1520.52 1329.51 1524.15 Q1333.62 1527.75 1333.62 1534.72 Q1333.62 1541.75 1329.51 1545.35 Q1325.44 1548.95 1317.45 1548.95 L1309.37 1548.95 L1309.37 1568.04 L1302.94 1568.04 L1302.94 1520.52 Z" fill="#000000" fill-rule="evenodd" fill-opacity="1"></path><path clip-path="url(#clip990)" d="M1353.48 1536.5 Q1348.77 1536.5 1346.03 1540.19 Q1343.3 1543.85 1343.3 1550.25 Q1343.3 1556.65 1346 1560.34 Q1348.74 1564 1353.48 1564 Q1358.16 1564 1360.9 1560.31 Q1363.63 1556.62 1363.63 1550.25 Q1363.63 1543.92 1360.9 1540.23 Q1358.16 1536.5 1353.48 1536.5 M1353.48 1531.54 Q1361.12 1531.54 1365.48 1536.5 Q1369.84 1541.47 1369.84 1550.25 Q1369.84 1559 1365.48 1564 Q1361.12 1568.97 1353.48 1568.97 Q1345.81 1568.97 1341.45 1564 Q1337.12 1559 1337.12 1550.25 Q1337.12 1541.47 1341.45 1536.5 Q1345.81 1531.54 1353.48 1531.54 Z" fill="#000000" fill-rule="evenodd" fill-opacity="1"></path><path clip-path="url(#clip990)" d="M1379.55 1532.4 L1385.4 1532.4 L1385.4 1568.04 L1379.55 1568.04 L1379.55 1532.4 M1379.55 1518.52 L1385.4 1518.52 L1385.4 1525.93 L1379.55 1525.93 L1379.55 1518.52 Z" fill="#000000" fill-rule="evenodd" fill-opacity="1"></path><path clip-path="url(#clip990)" d="M1427.29 1546.53 L1427.29 1568.04 L1421.43 1568.04 L1421.43 1546.72 Q1421.43 1541.66 1419.46 1539.14 Q1417.49 1536.63 1413.54 1536.63 Q1408.8 1536.63 1406.06 1539.65 Q1403.32 1542.68 1403.32 1547.9 L1403.32 1568.04 L1397.44 1568.04 L1397.44 1532.4 L1403.32 1532.4 L1403.32 1537.93 Q1405.43 1534.72 1408.26 1533.13 Q1411.12 1531.54 1414.85 1531.54 Q1420.99 1531.54 1424.14 1535.36 Q1427.29 1539.14 1427.29 1546.53 Z" fill="#000000" fill-rule="evenodd" fill-opacity="1"></path><path clip-path="url(#clip990)" d="M1444.77 1522.27 L1444.77 1532.4 L1456.83 1532.4 L1456.83 1536.95 L1444.77 1536.95 L1444.77 1556.3 Q1444.77 1560.66 1445.94 1561.9 Q1447.15 1563.14 1450.81 1563.14 L1456.83 1563.14 L1456.83 1568.04 L1450.81 1568.04 Q1444.03 1568.04 1441.45 1565.53 Q1438.88 1562.98 1438.88 1556.3 L1438.88 1536.95 L1434.58 1536.95 L1434.58 1532.4 L1438.88 1532.4 L1438.88 1522.27 L1444.77 1522.27 Z" fill="#000000" fill-rule="evenodd" fill-opacity="1"></path><path clip-path="url(#clip990)" d="M1487.26 1533.45 L1487.26 1538.98 Q1484.77 1537.71 1482.1 1537.07 Q1479.43 1536.44 1476.56 1536.44 Q1472.2 1536.44 1470.01 1537.77 Q1467.84 1539.11 1467.84 1541.79 Q1467.84 1543.82 1469.4 1545 Q1470.96 1546.15 1475.67 1547.2 L1477.68 1547.64 Q1483.91 1548.98 1486.52 1551.43 Q1489.17 1553.85 1489.17 1558.21 Q1489.17 1563.17 1485.22 1566.07 Q1481.3 1568.97 1474.43 1568.97 Q1471.56 1568.97 1468.45 1568.39 Q1465.36 1567.85 1461.92 1566.74 L1461.92 1560.69 Q1465.17 1562.38 1468.32 1563.24 Q1471.47 1564.07 1474.56 1564.07 Q1478.69 1564.07 1480.92 1562.66 Q1483.15 1561.23 1483.15 1558.65 Q1483.15 1556.27 1481.53 1554.99 Q1479.94 1553.72 1474.49 1552.54 L1472.46 1552.07 Q1467.01 1550.92 1464.59 1548.56 Q1462.18 1546.18 1462.18 1542.04 Q1462.18 1537.01 1465.74 1534.27 Q1469.3 1531.54 1475.86 1531.54 Q1479.11 1531.54 1481.97 1532.01 Q1484.84 1532.49 1487.26 1533.45 Z" fill="#000000" fill-rule="evenodd" fill-opacity="1"></path><polyline clip-path="url(#clip992)" style="stroke:#000000; stroke-linecap:round; stroke-linejoin:round; stroke-width:2; stroke-opacity:0.1; fill:none" points="
  205.121,1386.41 2352.76,1386.41 
  "></polyline>
<polyline clip-path="url(#clip992)" style="stroke:#000000; stroke-linecap:round; stroke-linejoin:round; stroke-width:2; stroke-opacity:0.1; fill:none" points="
  205.121,1104.66 2352.76,1104.66 
  "></polyline>
<polyline clip-path="url(#clip992)" style="stroke:#000000; stroke-linecap:round; stroke-linejoin:round; stroke-width:2; stroke-opacity:0.1; fill:none" points="
  205.121,822.899 2352.76,822.899 
  "></polyline>
<polyline clip-path="url(#clip992)" style="stroke:#000000; stroke-linecap:round; stroke-linejoin:round; stroke-width:2; stroke-opacity:0.1; fill:none" points="
  205.121,541.142 2352.76,541.142 
  "></polyline>
<polyline clip-path="url(#clip992)" style="stroke:#000000; stroke-linecap:round; stroke-linejoin:round; stroke-width:2; stroke-opacity:0.1; fill:none" points="
  205.121,259.385 2352.76,259.385 
  "></polyline>
<polyline clip-path="url(#clip990)" style="stroke:#000000; stroke-linecap:round; stroke-linejoin:round; stroke-width:4; stroke-opacity:1; fill:none" points="
  205.121,1423.18 205.121,123.472 
  "></polyline>
<polyline clip-path="url(#clip990)" style="stroke:#000000; stroke-linecap:round; stroke-linejoin:round; stroke-width:4; stroke-opacity:1; fill:none" points="
  205.121,1386.41 224.019,1386.41 
  "></polyline>
<polyline clip-path="url(#clip990)" style="stroke:#000000; stroke-linecap:round; stroke-linejoin:round; stroke-width:4; stroke-opacity:1; fill:none" points="
  205.121,1104.66 224.019,1104.66 
  "></polyline>
<polyline clip-path="url(#clip990)" style="stroke:#000000; stroke-linecap:round; stroke-linejoin:round; stroke-width:4; stroke-opacity:1; fill:none" points="
  205.121,822.899 224.019,822.899 
  "></polyline>
<polyline clip-path="url(#clip990)" style="stroke:#000000; stroke-linecap:round; stroke-linejoin:round; stroke-width:4; stroke-opacity:1; fill:none" points="
  205.121,541.142 224.019,541.142 
  "></polyline>
<polyline clip-path="url(#clip990)" style="stroke:#000000; stroke-linecap:round; stroke-linejoin:round; stroke-width:4; stroke-opacity:1; fill:none" points="
  205.121,259.385 224.019,259.385 
  "></polyline>
<path clip-path="url(#clip990)" d="M157.177 1372.21 Q153.566 1372.21 151.737 1375.78 Q149.931 1379.32 149.931 1386.45 Q149.931 1393.55 151.737 1397.12 Q153.566 1400.66 157.177 1400.66 Q160.811 1400.66 162.616 1397.12 Q164.445 1393.55 164.445 1386.45 Q164.445 1379.32 162.616 1375.78 Q160.811 1372.21 157.177 1372.21 M157.177 1368.51 Q162.987 1368.51 166.042 1373.11 Q169.121 1377.7 169.121 1386.45 Q169.121 1395.17 166.042 1399.78 Q162.987 1404.36 157.177 1404.36 Q151.366 1404.36 148.288 1399.78 Q145.232 1395.17 145.232 1386.45 Q145.232 1377.7 148.288 1373.11 Q151.366 1368.51 157.177 1368.51 Z" fill="#000000" fill-rule="evenodd" fill-opacity="1"></path><path clip-path="url(#clip990)" d="M117.825 1118 L125.464 1118 L125.464 1091.64 L117.154 1093.3 L117.154 1089.04 L125.418 1087.38 L130.093 1087.38 L130.093 1118 L137.732 1118 L137.732 1121.94 L117.825 1121.94 L117.825 1118 Z" fill="#000000" fill-rule="evenodd" fill-opacity="1"></path><path clip-path="url(#clip990)" d="M157.177 1090.45 Q153.566 1090.45 151.737 1094.02 Q149.931 1097.56 149.931 1104.69 Q149.931 1111.8 151.737 1115.36 Q153.566 1118.9 157.177 1118.9 Q160.811 1118.9 162.616 1115.36 Q164.445 1111.8 164.445 1104.69 Q164.445 1097.56 162.616 1094.02 Q160.811 1090.45 157.177 1090.45 M157.177 1086.75 Q162.987 1086.75 166.042 1091.36 Q169.121 1095.94 169.121 1104.69 Q169.121 1113.42 166.042 1118.02 Q162.987 1122.61 157.177 1122.61 Q151.366 1122.61 148.288 1118.02 Q145.232 1113.42 145.232 1104.69 Q145.232 1095.94 148.288 1091.36 Q151.366 1086.75 157.177 1086.75 Z" fill="#000000" fill-rule="evenodd" fill-opacity="1"></path><path clip-path="url(#clip990)" d="M121.043 836.244 L137.362 836.244 L137.362 840.179 L115.418 840.179 L115.418 836.244 Q118.08 833.489 122.663 828.86 Q127.269 824.207 128.45 822.864 Q130.695 820.341 131.575 818.605 Q132.478 816.846 132.478 815.156 Q132.478 812.401 130.533 810.665 Q128.612 808.929 125.51 808.929 Q123.311 808.929 120.857 809.693 Q118.427 810.457 115.649 812.008 L115.649 807.286 Q118.473 806.151 120.927 805.573 Q123.38 804.994 125.418 804.994 Q130.788 804.994 133.982 807.679 Q137.177 810.364 137.177 814.855 Q137.177 816.985 136.367 818.906 Q135.579 820.804 133.473 823.397 Q132.894 824.068 129.792 827.286 Q126.691 830.48 121.043 836.244 Z" fill="#000000" fill-rule="evenodd" fill-opacity="1"></path><path clip-path="url(#clip990)" d="M157.177 808.698 Q153.566 808.698 151.737 812.262 Q149.931 815.804 149.931 822.934 Q149.931 830.04 151.737 833.605 Q153.566 837.147 157.177 837.147 Q160.811 837.147 162.616 833.605 Q164.445 830.04 164.445 822.934 Q164.445 815.804 162.616 812.262 Q160.811 808.698 157.177 808.698 M157.177 804.994 Q162.987 804.994 166.042 809.6 Q169.121 814.184 169.121 822.934 Q169.121 831.661 166.042 836.267 Q162.987 840.85 157.177 840.85 Q151.366 840.85 148.288 836.267 Q145.232 831.661 145.232 822.934 Q145.232 814.184 148.288 809.6 Q151.366 804.994 157.177 804.994 Z" fill="#000000" fill-rule="evenodd" fill-opacity="1"></path><path clip-path="url(#clip990)" d="M131.181 539.788 Q134.538 540.506 136.413 542.774 Q138.311 545.043 138.311 548.376 Q138.311 553.492 134.792 556.293 Q131.274 559.093 124.793 559.093 Q122.617 559.093 120.302 558.654 Q118.01 558.237 115.556 557.38 L115.556 552.867 Q117.501 554.001 119.816 554.58 Q122.13 555.158 124.654 555.158 Q129.052 555.158 131.343 553.422 Q133.658 551.686 133.658 548.376 Q133.658 545.32 131.505 543.607 Q129.376 541.871 125.556 541.871 L121.529 541.871 L121.529 538.029 L125.742 538.029 Q129.191 538.029 131.019 536.663 Q132.848 535.274 132.848 532.682 Q132.848 530.02 130.95 528.607 Q129.075 527.172 125.556 527.172 Q123.635 527.172 121.436 527.589 Q119.237 528.006 116.598 528.885 L116.598 524.719 Q119.26 523.978 121.575 523.608 Q123.913 523.237 125.973 523.237 Q131.297 523.237 134.399 525.668 Q137.501 528.075 137.501 532.195 Q137.501 535.066 135.857 537.057 Q134.214 539.024 131.181 539.788 Z" fill="#000000" fill-rule="evenodd" fill-opacity="1"></path><path clip-path="url(#clip990)" d="M157.177 526.941 Q153.566 526.941 151.737 530.506 Q149.931 534.047 149.931 541.177 Q149.931 548.283 151.737 551.848 Q153.566 555.39 157.177 555.39 Q160.811 555.39 162.616 551.848 Q164.445 548.283 164.445 541.177 Q164.445 534.047 162.616 530.506 Q160.811 526.941 157.177 526.941 M157.177 523.237 Q162.987 523.237 166.042 527.844 Q169.121 532.427 169.121 541.177 Q169.121 549.904 166.042 554.51 Q162.987 559.093 157.177 559.093 Q151.366 559.093 148.288 554.51 Q145.232 549.904 145.232 541.177 Q145.232 532.427 148.288 527.844 Q151.366 523.237 157.177 523.237 Z" fill="#000000" fill-rule="evenodd" fill-opacity="1"></path><path clip-path="url(#clip990)" d="M129.862 246.179 L118.056 264.628 L129.862 264.628 L129.862 246.179 M128.635 242.105 L134.515 242.105 L134.515 264.628 L139.445 264.628 L139.445 268.517 L134.515 268.517 L134.515 276.665 L129.862 276.665 L129.862 268.517 L114.26 268.517 L114.26 264.003 L128.635 242.105 Z" fill="#000000" fill-rule="evenodd" fill-opacity="1"></path><path clip-path="url(#clip990)" d="M157.177 245.184 Q153.566 245.184 151.737 248.749 Q149.931 252.29 149.931 259.42 Q149.931 266.526 151.737 270.091 Q153.566 273.633 157.177 273.633 Q160.811 273.633 162.616 270.091 Q164.445 266.526 164.445 259.42 Q164.445 252.29 162.616 248.749 Q160.811 245.184 157.177 245.184 M157.177 241.48 Q162.987 241.48 166.042 246.087 Q169.121 250.67 169.121 259.42 Q169.121 268.147 166.042 272.753 Q162.987 277.337 157.177 277.337 Q151.366 277.337 148.288 272.753 Q145.232 268.147 145.232 259.42 Q145.232 250.67 148.288 246.087 Q151.366 241.48 157.177 241.48 Z" fill="#000000" fill-rule="evenodd" fill-opacity="1"></path><path clip-path="url(#clip990)" d="M20.1444 1084.24 L26.9239 1084.24 Q23.9002 1087.49 22.4043 1091.18 Q20.9083 1094.84 20.9083 1098.98 Q20.9083 1107.13 25.9054 1111.46 Q30.8707 1115.79 40.2919 1115.79 Q49.6813 1115.79 54.6784 1111.46 Q59.6436 1107.13 59.6436 1098.98 Q59.6436 1094.84 58.1477 1091.18 Q56.6518 1087.49 53.6281 1084.24 L60.3439 1084.24 Q62.6355 1087.62 63.7814 1091.4 Q64.9272 1095.16 64.9272 1099.36 Q64.9272 1110.15 58.3387 1116.36 Q51.7183 1122.56 40.2919 1122.56 Q28.8336 1122.56 22.2451 1116.36 Q15.6248 1110.15 15.6248 1099.36 Q15.6248 1095.1 16.7706 1091.34 Q17.8846 1087.55 20.1444 1084.24 Z" fill="#000000" fill-rule="evenodd" fill-opacity="1"></path><path clip-path="url(#clip990)" d="M32.4621 1060.75 Q32.4621 1065.46 36.1542 1068.2 Q39.8145 1070.94 46.212 1070.94 Q52.6095 1070.94 56.3017 1068.23 Q59.9619 1065.5 59.9619 1060.75 Q59.9619 1056.07 56.2698 1053.34 Q52.5777 1050.6 46.212 1050.6 Q39.8781 1050.6 36.186 1053.34 Q32.4621 1056.07 32.4621 1060.75 M27.4968 1060.75 Q27.4968 1053.11 32.4621 1048.75 Q37.4273 1044.39 46.212 1044.39 Q54.9649 1044.39 59.9619 1048.75 Q64.9272 1053.11 64.9272 1060.75 Q64.9272 1068.42 59.9619 1072.78 Q54.9649 1077.11 46.212 1077.11 Q37.4273 1077.11 32.4621 1072.78 Q27.4968 1068.42 27.4968 1060.75 Z" fill="#000000" fill-rule="evenodd" fill-opacity="1"></path><path clip-path="url(#clip990)" d="M35.1993 1006.93 Q31.2526 1004.74 29.3747 1001.68 Q27.4968 998.624 27.4968 994.487 Q27.4968 988.917 31.4117 985.893 Q35.2948 982.869 42.4881 982.869 L64.0042 982.869 L64.0042 988.757 L42.679 988.757 Q37.5546 988.757 35.072 990.572 Q32.5894 992.386 32.5894 996.11 Q32.5894 1000.66 35.6131 1003.3 Q38.6368 1005.94 43.8567 1005.94 L64.0042 1005.94 L64.0042 1011.83 L42.679 1011.83 Q37.5228 1011.83 35.072 1013.65 Q32.5894 1015.46 32.5894 1019.25 Q32.5894 1023.74 35.6449 1026.38 Q38.6686 1029.02 43.8567 1029.02 L64.0042 1029.02 L64.0042 1034.91 L28.3562 1034.91 L28.3562 1029.02 L33.8944 1029.02 Q30.616 1027.02 29.0564 1024.21 Q27.4968 1021.41 27.4968 1017.56 Q27.4968 1013.68 29.4702 1010.97 Q31.4436 1008.24 35.1993 1006.93 Z" fill="#000000" fill-rule="evenodd" fill-opacity="1"></path><path clip-path="url(#clip990)" d="M58.657 965.523 L77.5631 965.523 L77.5631 971.411 L28.3562 971.411 L28.3562 965.523 L33.7671 965.523 Q30.5842 963.677 29.0564 960.876 Q27.4968 958.043 27.4968 954.128 Q27.4968 947.635 32.6531 943.593 Q37.8093 939.519 46.212 939.519 Q54.6147 939.519 59.771 943.593 Q64.9272 947.635 64.9272 954.128 Q64.9272 958.043 63.3994 960.876 Q61.8398 963.677 58.657 965.523 M46.212 945.598 Q39.7508 945.598 36.0905 948.272 Q32.3984 950.913 32.3984 955.56 Q32.3984 960.207 36.0905 962.881 Q39.7508 965.523 46.212 965.523 Q52.6732 965.523 56.3653 962.881 Q60.0256 960.207 60.0256 955.56 Q60.0256 950.913 56.3653 948.272 Q52.6732 945.598 46.212 945.598 Z" fill="#000000" fill-rule="evenodd" fill-opacity="1"></path><path clip-path="url(#clip990)" d="M49.9359 930.416 L28.3562 930.416 L28.3562 924.559 L49.7131 924.559 Q54.7739 924.559 57.3202 922.586 Q59.8346 920.613 59.8346 916.666 Q59.8346 911.923 56.8109 909.186 Q53.7872 906.417 48.5673 906.417 L28.3562 906.417 L28.3562 900.561 L64.0042 900.561 L64.0042 906.417 L58.5296 906.417 Q61.7762 908.55 63.3676 911.382 Q64.9272 914.183 64.9272 917.907 Q64.9272 924.05 61.1078 927.233 Q57.2883 930.416 49.9359 930.416 M27.4968 915.679 L27.4968 915.679 Z" fill="#000000" fill-rule="evenodd" fill-opacity="1"></path><path clip-path="url(#clip990)" d="M18.2347 882.705 L28.3562 882.705 L28.3562 870.642 L32.9077 870.642 L32.9077 882.705 L52.2594 882.705 Q56.6199 882.705 57.8613 881.527 Q59.1026 880.318 59.1026 876.657 L59.1026 870.642 L64.0042 870.642 L64.0042 876.657 Q64.0042 883.437 61.4897 886.015 Q58.9434 888.593 52.2594 888.593 L32.9077 888.593 L32.9077 892.89 L28.3562 892.89 L28.3562 888.593 L18.2347 888.593 L18.2347 882.705 Z" fill="#000000" fill-rule="evenodd" fill-opacity="1"></path><path clip-path="url(#clip990)" d="M46.0847 846.738 Q46.0847 853.836 47.7079 856.574 Q49.3312 859.311 53.2461 859.311 Q56.3653 859.311 58.2114 857.274 Q60.0256 855.205 60.0256 851.672 Q60.0256 846.802 56.5881 843.874 Q53.1188 840.914 47.3897 840.914 L46.0847 840.914 L46.0847 846.738 M43.6657 835.057 L64.0042 835.057 L64.0042 840.914 L58.5933 840.914 Q61.8398 842.919 63.3994 845.911 Q64.9272 848.903 64.9272 853.232 Q64.9272 858.706 61.8716 861.953 Q58.7843 865.167 53.6281 865.167 Q47.6125 865.167 44.5569 861.157 Q41.5014 857.115 41.5014 849.126 L41.5014 840.914 L40.9285 840.914 Q36.8862 840.914 34.6901 843.587 Q32.4621 846.229 32.4621 851.035 Q32.4621 854.091 33.1941 856.987 Q33.9262 859.884 35.3903 862.557 L29.9795 862.557 Q28.7381 859.343 28.1334 856.319 Q27.4968 853.295 27.4968 850.431 Q27.4968 842.696 31.5072 838.877 Q35.5176 835.057 43.6657 835.057 Z" fill="#000000" fill-rule="evenodd" fill-opacity="1"></path><path clip-path="url(#clip990)" d="M18.2347 817.202 L28.3562 817.202 L28.3562 805.139 L32.9077 805.139 L32.9077 817.202 L52.2594 817.202 Q56.6199 817.202 57.8613 816.024 Q59.1026 814.814 59.1026 811.154 L59.1026 805.139 L64.0042 805.139 L64.0042 811.154 Q64.0042 817.934 61.4897 820.512 Q58.9434 823.09 52.2594 823.09 L32.9077 823.09 L32.9077 827.387 L28.3562 827.387 L28.3562 823.09 L18.2347 823.09 L18.2347 817.202 Z" fill="#000000" fill-rule="evenodd" fill-opacity="1"></path><path clip-path="url(#clip990)" d="M28.3562 797.436 L28.3562 791.58 L64.0042 791.58 L64.0042 797.436 L28.3562 797.436 M14.479 797.436 L14.479 791.58 L21.895 791.58 L21.895 797.436 L14.479 797.436 Z" fill="#000000" fill-rule="evenodd" fill-opacity="1"></path><path clip-path="url(#clip990)" d="M32.4621 765.512 Q32.4621 770.223 36.1542 772.96 Q39.8145 775.697 46.212 775.697 Q52.6095 775.697 56.3017 772.992 Q59.9619 770.255 59.9619 765.512 Q59.9619 760.833 56.2698 758.096 Q52.5777 755.359 46.212 755.359 Q39.8781 755.359 36.186 758.096 Q32.4621 760.833 32.4621 765.512 M27.4968 765.512 Q27.4968 757.873 32.4621 753.513 Q37.4273 749.152 46.212 749.152 Q54.9649 749.152 59.9619 753.513 Q64.9272 757.873 64.9272 765.512 Q64.9272 773.183 59.9619 777.543 Q54.9649 781.872 46.212 781.872 Q37.4273 781.872 32.4621 777.543 Q27.4968 773.183 27.4968 765.512 Z" fill="#000000" fill-rule="evenodd" fill-opacity="1"></path><path clip-path="url(#clip990)" d="M42.4881 709.812 L64.0042 709.812 L64.0042 715.669 L42.679 715.669 Q37.6183 715.669 35.1038 717.642 Q32.5894 719.615 32.5894 723.562 Q32.5894 728.305 35.6131 731.042 Q38.6368 733.779 43.8567 733.779 L64.0042 733.779 L64.0042 739.667 L28.3562 739.667 L28.3562 733.779 L33.8944 733.779 Q30.6797 731.678 29.0883 728.846 Q27.4968 725.981 27.4968 722.257 Q27.4968 716.114 31.3163 712.963 Q35.1038 709.812 42.4881 709.812 Z" fill="#000000" fill-rule="evenodd" fill-opacity="1"></path><path clip-path="url(#clip990)" d="M16.4842 683.745 L16.4842 643.545 L21.895 643.545 L21.895 660.414 L64.0042 660.414 L64.0042 666.875 L21.895 666.875 L21.895 683.745 L16.4842 683.745 Z" fill="#000000" fill-rule="evenodd" fill-opacity="1"></path><path clip-path="url(#clip990)" d="M28.3562 639.598 L28.3562 633.742 L64.0042 633.742 L64.0042 639.598 L28.3562 639.598 M14.479 639.598 L14.479 633.742 L21.895 633.742 L21.895 639.598 L14.479 639.598 Z" fill="#000000" fill-rule="evenodd" fill-opacity="1"></path><path clip-path="url(#clip990)" d="M35.1993 593.733 Q31.2526 591.537 29.3747 588.482 Q27.4968 585.426 27.4968 581.289 Q27.4968 575.719 31.4117 572.695 Q35.2948 569.671 42.4881 569.671 L64.0042 569.671 L64.0042 575.559 L42.679 575.559 Q37.5546 575.559 35.072 577.374 Q32.5894 579.188 32.5894 582.912 Q32.5894 587.463 35.6131 590.105 Q38.6368 592.747 43.8567 592.747 L64.0042 592.747 L64.0042 598.635 L42.679 598.635 Q37.5228 598.635 35.072 600.449 Q32.5894 602.264 32.5894 606.051 Q32.5894 610.539 35.6449 613.181 Q38.6686 615.822 43.8567 615.822 L64.0042 615.822 L64.0042 621.711 L28.3562 621.711 L28.3562 615.822 L33.8944 615.822 Q30.616 613.817 29.0564 611.016 Q27.4968 608.215 27.4968 604.364 Q27.4968 600.481 29.4702 597.776 Q31.4436 595.038 35.1993 593.733 Z" fill="#000000" fill-rule="evenodd" fill-opacity="1"></path><path clip-path="url(#clip990)" d="M44.7161 527.498 L47.5806 527.498 L47.5806 554.425 Q53.6281 554.043 56.8109 550.797 Q59.9619 547.518 59.9619 541.694 Q59.9619 538.32 59.1344 535.169 Q58.3069 531.986 56.6518 528.867 L62.1899 528.867 Q63.5267 532.018 64.227 535.328 Q64.9272 538.638 64.9272 542.044 Q64.9272 550.574 59.9619 555.571 Q54.9967 560.536 46.5303 560.536 Q37.7774 560.536 32.6531 555.826 Q27.4968 551.083 27.4968 543.062 Q27.4968 535.869 32.1438 531.7 Q36.7589 527.498 44.7161 527.498 M42.9973 533.355 Q38.1912 533.418 35.3266 536.06 Q32.4621 538.67 32.4621 542.999 Q32.4621 547.9 35.2312 550.86 Q38.0002 553.789 43.0292 554.234 L42.9973 533.355 Z" fill="#000000" fill-rule="evenodd" fill-opacity="1"></path><path clip-path="url(#clip990)" d="M14.479 497.707 L14.479 484.212 L19.0304 484.212 L19.0304 491.85 L68.0464 491.85 L68.0464 484.212 L72.5979 484.212 L72.5979 497.707 L14.479 497.707 Z" fill="#000000" fill-rule="evenodd" fill-opacity="1"></path><path clip-path="url(#clip990)" d="M29.4065 449.009 L34.9447 449.009 Q33.6716 451.492 33.035 454.165 Q32.3984 456.839 32.3984 459.704 Q32.3984 464.064 33.7352 466.26 Q35.072 468.425 37.7456 468.425 Q39.7826 468.425 40.9603 466.865 Q42.1061 465.305 43.1565 460.595 L43.6021 458.59 Q44.9389 452.351 47.3897 449.741 Q49.8086 447.099 54.1691 447.099 Q59.1344 447.099 62.0308 451.046 Q64.9272 454.961 64.9272 461.836 Q64.9272 464.701 64.3543 467.82 Q63.8132 470.907 62.6992 474.345 L56.6518 474.345 Q58.3387 471.098 59.198 467.947 Q60.0256 464.796 60.0256 461.709 Q60.0256 457.571 58.6251 455.343 Q57.1929 453.115 54.6147 453.115 Q52.2276 453.115 50.9545 454.738 Q49.6813 456.33 48.5037 461.772 L48.0262 463.809 Q46.8804 469.252 44.5251 471.671 Q42.138 474.09 38.0002 474.09 Q32.9713 474.09 30.2341 470.525 Q27.4968 466.96 27.4968 460.404 Q27.4968 457.157 27.9743 454.293 Q28.4517 451.428 29.4065 449.009 Z" fill="#000000" fill-rule="evenodd" fill-opacity="1"></path><path clip-path="url(#clip990)" d="M14.479 424.087 L72.5979 424.087 L72.5979 437.583 L68.0464 437.583 L68.0464 429.976 L19.0304 429.976 L19.0304 437.583 L14.479 437.583 L14.479 424.087 Z" fill="#000000" fill-rule="evenodd" fill-opacity="1"></path><path clip-path="url(#clip990)" d="M605.455 16.7545 L605.455 25.383 Q601.323 21.5346 596.624 19.6307 Q591.966 17.7268 586.7 17.7268 Q576.329 17.7268 570.82 24.0867 Q565.311 30.4061 565.311 42.3968 Q565.311 54.3469 570.82 60.7069 Q576.329 67.0263 586.7 67.0263 Q591.966 67.0263 596.624 65.1223 Q601.323 63.2184 605.455 59.3701 L605.455 67.9175 Q601.161 70.8341 596.341 72.2924 Q591.561 73.7508 586.214 73.7508 Q572.481 73.7508 564.582 65.3654 Q556.682 56.9395 556.682 42.3968 Q556.682 27.8135 564.582 19.4281 Q572.481 11.0023 586.214 11.0023 Q591.642 11.0023 596.422 12.4606 Q601.242 13.8784 605.455 16.7545 Z" fill="#000000" fill-rule="evenodd" fill-opacity="1"></path><path clip-path="url(#clip990)" d="M635.351 32.4315 Q629.356 32.4315 625.872 37.1306 Q622.388 41.7891 622.388 49.9314 Q622.388 58.0738 625.831 62.7728 Q629.315 67.4314 635.351 67.4314 Q641.306 67.4314 644.79 62.7323 Q648.273 58.0333 648.273 49.9314 Q648.273 41.8701 644.79 37.1711 Q641.306 32.4315 635.351 32.4315 M635.351 26.1121 Q645.073 26.1121 650.623 32.4315 Q656.173 38.7509 656.173 49.9314 Q656.173 61.0714 650.623 67.4314 Q645.073 73.7508 635.351 73.7508 Q625.588 73.7508 620.039 67.4314 Q614.529 61.0714 614.529 49.9314 Q614.529 38.7509 620.039 32.4315 Q625.588 26.1121 635.351 26.1121 Z" fill="#000000" fill-rule="evenodd" fill-opacity="1"></path><path clip-path="url(#clip990)" d="M703.852 35.9153 Q706.647 30.8922 710.536 28.5022 Q714.425 26.1121 719.691 26.1121 Q726.78 26.1121 730.628 31.0947 Q734.477 36.0368 734.477 45.1919 L734.477 72.576 L726.982 72.576 L726.982 45.4349 Q726.982 38.913 724.673 35.7533 Q722.364 32.5936 717.625 32.5936 Q711.832 32.5936 708.47 36.4419 Q705.108 40.2903 705.108 46.9338 L705.108 72.576 L697.613 72.576 L697.613 45.4349 Q697.613 38.8725 695.304 35.7533 Q692.995 32.5936 688.175 32.5936 Q682.463 32.5936 679.101 36.4824 Q675.739 40.3308 675.739 46.9338 L675.739 72.576 L668.244 72.576 L668.244 27.2059 L675.739 27.2059 L675.739 34.2544 Q678.291 30.082 681.855 28.0971 Q685.42 26.1121 690.322 26.1121 Q695.264 26.1121 698.707 28.6237 Q702.191 31.1352 703.852 35.9153 Z" fill="#000000" fill-rule="evenodd" fill-opacity="1"></path><path clip-path="url(#clip990)" d="M756.554 65.7705 L756.554 89.8329 L749.06 89.8329 L749.06 27.2059 L756.554 27.2059 L756.554 34.0924 Q758.904 30.0415 762.468 28.0971 Q766.074 26.1121 771.056 26.1121 Q779.32 26.1121 784.465 32.6746 Q789.65 39.2371 789.65 49.9314 Q789.65 60.6258 784.465 67.1883 Q779.32 73.7508 771.056 73.7508 Q766.074 73.7508 762.468 71.8063 Q758.904 69.8214 756.554 65.7705 M781.913 49.9314 Q781.913 41.7081 778.51 37.0496 Q775.148 32.3505 769.233 32.3505 Q763.319 32.3505 759.916 37.0496 Q756.554 41.7081 756.554 49.9314 Q756.554 58.1548 759.916 62.8538 Q763.319 67.5124 769.233 67.5124 Q775.148 67.5124 778.51 62.8538 Q781.913 58.1548 781.913 49.9314 Z" fill="#000000" fill-rule="evenodd" fill-opacity="1"></path><path clip-path="url(#clip990)" d="M822.624 49.7694 Q813.591 49.7694 810.107 51.8354 Q806.623 53.9013 806.623 58.8839 Q806.623 62.8538 809.216 65.2034 Q811.849 67.5124 816.345 67.5124 Q822.543 67.5124 826.27 63.1374 Q830.037 58.7219 830.037 51.4303 L830.037 49.7694 L822.624 49.7694 M837.491 46.6907 L837.491 72.576 L830.037 72.576 L830.037 65.6895 Q827.485 69.8214 823.678 71.8063 Q819.87 73.7508 814.36 73.7508 Q807.393 73.7508 803.261 69.8619 Q799.17 65.9325 799.17 59.3701 Q799.17 51.7138 804.274 47.825 Q809.418 43.9361 819.586 43.9361 L830.037 43.9361 L830.037 43.2069 Q830.037 38.0623 826.635 35.2672 Q823.272 32.4315 817.156 32.4315 Q813.267 32.4315 809.58 33.3632 Q805.894 34.295 802.491 36.1584 L802.491 29.2718 Q806.583 27.692 810.431 26.9223 Q814.279 26.1121 817.925 26.1121 Q827.769 26.1121 832.63 31.2163 Q837.491 36.3204 837.491 46.6907 Z" fill="#000000" fill-rule="evenodd" fill-opacity="1"></path><path clip-path="url(#clip990)" d="M879.134 34.1734 Q877.879 33.4443 876.38 33.1202 Q874.922 32.7556 873.139 32.7556 Q866.82 32.7556 863.417 36.8875 Q860.055 40.9789 860.055 48.6757 L860.055 72.576 L852.561 72.576 L852.561 27.2059 L860.055 27.2059 L860.055 34.2544 Q862.404 30.1225 866.172 28.1376 Q869.939 26.1121 875.327 26.1121 Q876.096 26.1121 877.028 26.2337 Q877.96 26.3147 879.094 26.5172 L879.134 34.1734 Z" fill="#000000" fill-rule="evenodd" fill-opacity="1"></path><path clip-path="url(#clip990)" d="M886.953 27.2059 L894.406 27.2059 L894.406 72.576 L886.953 72.576 L886.953 27.2059 M886.953 9.54393 L894.406 9.54393 L894.406 18.9825 L886.953 18.9825 L886.953 9.54393 Z" fill="#000000" fill-rule="evenodd" fill-opacity="1"></path><path clip-path="url(#clip990)" d="M938.926 28.5427 L938.926 35.5912 Q935.766 33.9709 932.363 33.1607 Q928.961 32.3505 925.315 32.3505 Q919.765 32.3505 916.97 34.0519 Q914.215 35.7533 914.215 39.156 Q914.215 41.7486 916.2 43.2475 Q918.185 44.7058 924.181 46.0426 L926.733 46.6097 Q934.672 48.3111 937.994 51.4303 Q941.356 54.509 941.356 60.0587 Q941.356 66.3781 936.333 70.0644 Q931.351 73.7508 922.601 73.7508 Q918.955 73.7508 914.985 73.0216 Q911.056 72.3329 906.681 70.9151 L906.681 63.2184 Q910.813 65.3654 914.823 66.4591 Q918.833 67.5124 922.763 67.5124 Q928.029 67.5124 930.864 65.73 Q933.7 63.9071 933.7 60.6258 Q933.7 57.5877 931.634 55.9673 Q929.609 54.3469 922.682 52.8481 L920.089 52.2405 Q913.162 50.7821 910.083 47.7845 Q907.005 44.7463 907.005 39.4801 Q907.005 33.0797 911.542 29.5959 Q916.079 26.1121 924.424 26.1121 Q928.555 26.1121 932.201 26.7198 Q935.847 27.3274 938.926 28.5427 Z" fill="#000000" fill-rule="evenodd" fill-opacity="1"></path><path clip-path="url(#clip990)" d="M970.806 32.4315 Q964.811 32.4315 961.327 37.1306 Q957.844 41.7891 957.844 49.9314 Q957.844 58.0738 961.287 62.7728 Q964.771 67.4314 970.806 67.4314 Q976.761 67.4314 980.245 62.7323 Q983.729 58.0333 983.729 49.9314 Q983.729 41.8701 980.245 37.1711 Q976.761 32.4315 970.806 32.4315 M970.806 26.1121 Q980.529 26.1121 986.078 32.4315 Q991.628 38.7509 991.628 49.9314 Q991.628 61.0714 986.078 67.4314 Q980.529 73.7508 970.806 73.7508 Q961.044 73.7508 955.494 67.4314 Q949.985 61.0714 949.985 49.9314 Q949.985 38.7509 955.494 32.4315 Q961.044 26.1121 970.806 26.1121 Z" fill="#000000" fill-rule="evenodd" fill-opacity="1"></path><path clip-path="url(#clip990)" d="M1041.7 45.1919 L1041.7 72.576 L1034.24 72.576 L1034.24 45.4349 Q1034.24 38.994 1031.73 35.7938 Q1029.22 32.5936 1024.2 32.5936 Q1018.16 32.5936 1014.68 36.4419 Q1011.19 40.2903 1011.19 46.9338 L1011.19 72.576 L1003.7 72.576 L1003.7 27.2059 L1011.19 27.2059 L1011.19 34.2544 Q1013.87 30.163 1017.47 28.1376 Q1021.12 26.1121 1025.86 26.1121 Q1033.68 26.1121 1037.69 30.9732 Q1041.7 35.7938 1041.7 45.1919 Z" fill="#000000" fill-rule="evenodd" fill-opacity="1"></path><path clip-path="url(#clip990)" d="M1100.52 32.4315 Q1094.52 32.4315 1091.04 37.1306 Q1087.55 41.7891 1087.55 49.9314 Q1087.55 58.0738 1091 62.7728 Q1094.48 67.4314 1100.52 67.4314 Q1106.47 67.4314 1109.95 62.7323 Q1113.44 58.0333 1113.44 49.9314 Q1113.44 41.8701 1109.95 37.1711 Q1106.47 32.4315 1100.52 32.4315 M1100.52 26.1121 Q1110.24 26.1121 1115.79 32.4315 Q1121.34 38.7509 1121.34 49.9314 Q1121.34 61.0714 1115.79 67.4314 Q1110.24 73.7508 1100.52 73.7508 Q1090.75 73.7508 1085.2 67.4314 Q1079.69 61.0714 1079.69 49.9314 Q1079.69 38.7509 1085.2 32.4315 Q1090.75 26.1121 1100.52 26.1121 Z" fill="#000000" fill-rule="evenodd" fill-opacity="1"></path><path clip-path="url(#clip990)" d="M1156.66 9.54393 L1156.66 15.7418 L1149.53 15.7418 Q1145.52 15.7418 1143.94 17.3622 Q1142.4 18.9825 1142.4 23.1955 L1142.4 27.2059 L1154.68 27.2059 L1154.68 32.9987 L1142.4 32.9987 L1142.4 72.576 L1134.91 72.576 L1134.91 32.9987 L1127.78 32.9987 L1127.78 27.2059 L1134.91 27.2059 L1134.91 24.0462 Q1134.91 16.471 1138.43 13.0277 Q1141.96 9.54393 1149.61 9.54393 L1156.66 9.54393 Z" fill="#000000" fill-rule="evenodd" fill-opacity="1"></path><path clip-path="url(#clip990)" d="M1234.88 16.7545 L1234.88 25.383 Q1230.75 21.5346 1226.05 19.6307 Q1221.4 17.7268 1216.13 17.7268 Q1205.76 17.7268 1200.25 24.0867 Q1194.74 30.4061 1194.74 42.3968 Q1194.74 54.3469 1200.25 60.7069 Q1205.76 67.0263 1216.13 67.0263 Q1221.4 67.0263 1226.05 65.1223 Q1230.75 63.2184 1234.88 59.3701 L1234.88 67.9175 Q1230.59 70.8341 1225.77 72.2924 Q1220.99 73.7508 1215.64 73.7508 Q1201.91 73.7508 1194.01 65.3654 Q1186.11 56.9395 1186.11 42.3968 Q1186.11 27.8135 1194.01 19.4281 Q1201.91 11.0023 1215.64 11.0023 Q1221.07 11.0023 1225.85 12.4606 Q1230.67 13.8784 1234.88 16.7545 Z" fill="#000000" fill-rule="evenodd" fill-opacity="1"></path><path clip-path="url(#clip990)" d="M1264.78 32.4315 Q1258.79 32.4315 1255.3 37.1306 Q1251.82 41.7891 1251.82 49.9314 Q1251.82 58.0738 1255.26 62.7728 Q1258.74 67.4314 1264.78 67.4314 Q1270.74 67.4314 1274.22 62.7323 Q1277.7 58.0333 1277.7 49.9314 Q1277.7 41.8701 1274.22 37.1711 Q1270.74 32.4315 1264.78 32.4315 M1264.78 26.1121 Q1274.5 26.1121 1280.05 32.4315 Q1285.6 38.7509 1285.6 49.9314 Q1285.6 61.0714 1280.05 67.4314 Q1274.5 73.7508 1264.78 73.7508 Q1255.02 73.7508 1249.47 67.4314 Q1243.96 61.0714 1243.96 49.9314 Q1243.96 38.7509 1249.47 32.4315 Q1255.02 26.1121 1264.78 26.1121 Z" fill="#000000" fill-rule="evenodd" fill-opacity="1"></path><path clip-path="url(#clip990)" d="M1333.28 35.9153 Q1336.08 30.8922 1339.97 28.5022 Q1343.85 26.1121 1349.12 26.1121 Q1356.21 26.1121 1360.06 31.0947 Q1363.91 36.0368 1363.91 45.1919 L1363.91 72.576 L1356.41 72.576 L1356.41 45.4349 Q1356.41 38.913 1354.1 35.7533 Q1351.79 32.5936 1347.05 32.5936 Q1341.26 32.5936 1337.9 36.4419 Q1334.54 40.2903 1334.54 46.9338 L1334.54 72.576 L1327.04 72.576 L1327.04 45.4349 Q1327.04 38.8725 1324.73 35.7533 Q1322.42 32.5936 1317.6 32.5936 Q1311.89 32.5936 1308.53 36.4824 Q1305.17 40.3308 1305.17 46.9338 L1305.17 72.576 L1297.67 72.576 L1297.67 27.2059 L1305.17 27.2059 L1305.17 34.2544 Q1307.72 30.082 1311.28 28.0971 Q1314.85 26.1121 1319.75 26.1121 Q1324.69 26.1121 1328.14 28.6237 Q1331.62 31.1352 1333.28 35.9153 Z" fill="#000000" fill-rule="evenodd" fill-opacity="1"></path><path clip-path="url(#clip990)" d="M1385.98 65.7705 L1385.98 89.8329 L1378.49 89.8329 L1378.49 27.2059 L1385.98 27.2059 L1385.98 34.0924 Q1388.33 30.0415 1391.9 28.0971 Q1395.5 26.1121 1400.49 26.1121 Q1408.75 26.1121 1413.89 32.6746 Q1419.08 39.2371 1419.08 49.9314 Q1419.08 60.6258 1413.89 67.1883 Q1408.75 73.7508 1400.49 73.7508 Q1395.5 73.7508 1391.9 71.8063 Q1388.33 69.8214 1385.98 65.7705 M1411.34 49.9314 Q1411.34 41.7081 1407.94 37.0496 Q1404.58 32.3505 1398.66 32.3505 Q1392.75 32.3505 1389.35 37.0496 Q1385.98 41.7081 1385.98 49.9314 Q1385.98 58.1548 1389.35 62.8538 Q1392.75 67.5124 1398.66 67.5124 Q1404.58 67.5124 1407.94 62.8538 Q1411.34 58.1548 1411.34 49.9314 Z" fill="#000000" fill-rule="evenodd" fill-opacity="1"></path><path clip-path="url(#clip990)" d="M1430.67 54.671 L1430.67 27.2059 L1438.12 27.2059 L1438.12 54.3874 Q1438.12 60.8284 1440.63 64.0691 Q1443.14 67.2693 1448.16 67.2693 Q1454.2 67.2693 1457.68 63.421 Q1461.21 59.5726 1461.21 52.9291 L1461.21 27.2059 L1468.66 27.2059 L1468.66 72.576 L1461.21 72.576 L1461.21 65.6084 Q1458.49 69.7404 1454.89 71.7658 Q1451.32 73.7508 1446.59 73.7508 Q1438.77 73.7508 1434.72 68.8897 Q1430.67 64.0286 1430.67 54.671 M1449.42 26.1121 L1449.42 26.1121 Z" fill="#000000" fill-rule="evenodd" fill-opacity="1"></path><path clip-path="url(#clip990)" d="M1491.39 14.324 L1491.39 27.2059 L1506.74 27.2059 L1506.74 32.9987 L1491.39 32.9987 L1491.39 57.6282 Q1491.39 63.1779 1492.89 64.7578 Q1494.43 66.3376 1499.08 66.3376 L1506.74 66.3376 L1506.74 72.576 L1499.08 72.576 Q1490.46 72.576 1487.18 69.3758 Q1483.89 66.1351 1483.89 57.6282 L1483.89 32.9987 L1478.43 32.9987 L1478.43 27.2059 L1483.89 27.2059 L1483.89 14.324 L1491.39 14.324 Z" fill="#000000" fill-rule="evenodd" fill-opacity="1"></path><path clip-path="url(#clip990)" d="M1537.16 49.7694 Q1528.13 49.7694 1524.65 51.8354 Q1521.16 53.9013 1521.16 58.8839 Q1521.16 62.8538 1523.75 65.2034 Q1526.39 67.5124 1530.88 67.5124 Q1537.08 67.5124 1540.81 63.1374 Q1544.58 58.7219 1544.58 51.4303 L1544.58 49.7694 L1537.16 49.7694 M1552.03 46.6907 L1552.03 72.576 L1544.58 72.576 L1544.58 65.6895 Q1542.02 69.8214 1538.22 71.8063 Q1534.41 73.7508 1528.9 73.7508 Q1521.93 73.7508 1517.8 69.8619 Q1513.71 65.9325 1513.71 59.3701 Q1513.71 51.7138 1518.81 47.825 Q1523.96 43.9361 1534.13 43.9361 L1544.58 43.9361 L1544.58 43.2069 Q1544.58 38.0623 1541.17 35.2672 Q1537.81 32.4315 1531.69 32.4315 Q1527.81 32.4315 1524.12 33.3632 Q1520.43 34.295 1517.03 36.1584 L1517.03 29.2718 Q1521.12 27.692 1524.97 26.9223 Q1528.82 26.1121 1532.46 26.1121 Q1542.31 26.1121 1547.17 31.2163 Q1552.03 36.3204 1552.03 46.6907 Z" fill="#000000" fill-rule="evenodd" fill-opacity="1"></path><path clip-path="url(#clip990)" d="M1574.76 14.324 L1574.76 27.2059 L1590.11 27.2059 L1590.11 32.9987 L1574.76 32.9987 L1574.76 57.6282 Q1574.76 63.1779 1576.25 64.7578 Q1577.79 66.3376 1582.45 66.3376 L1590.11 66.3376 L1590.11 72.576 L1582.45 72.576 Q1573.82 72.576 1570.54 69.3758 Q1567.26 66.1351 1567.26 57.6282 L1567.26 32.9987 L1561.79 32.9987 L1561.79 27.2059 L1567.26 27.2059 L1567.26 14.324 L1574.76 14.324 Z" fill="#000000" fill-rule="evenodd" fill-opacity="1"></path><path clip-path="url(#clip990)" d="M1599.91 27.2059 L1607.37 27.2059 L1607.37 72.576 L1599.91 72.576 L1599.91 27.2059 M1599.91 9.54393 L1607.37 9.54393 L1607.37 18.9825 L1599.91 18.9825 L1599.91 9.54393 Z" fill="#000000" fill-rule="evenodd" fill-opacity="1"></path><path clip-path="url(#clip990)" d="M1640.54 32.4315 Q1634.55 32.4315 1631.06 37.1306 Q1627.58 41.7891 1627.58 49.9314 Q1627.58 58.0738 1631.02 62.7728 Q1634.51 67.4314 1640.54 67.4314 Q1646.5 67.4314 1649.98 62.7323 Q1653.46 58.0333 1653.46 49.9314 Q1653.46 41.8701 1649.98 37.1711 Q1646.5 32.4315 1640.54 32.4315 M1640.54 26.1121 Q1650.26 26.1121 1655.81 32.4315 Q1661.36 38.7509 1661.36 49.9314 Q1661.36 61.0714 1655.81 67.4314 Q1650.26 73.7508 1640.54 73.7508 Q1630.78 73.7508 1625.23 67.4314 Q1619.72 61.0714 1619.72 49.9314 Q1619.72 38.7509 1625.23 32.4315 Q1630.78 26.1121 1640.54 26.1121 Z" fill="#000000" fill-rule="evenodd" fill-opacity="1"></path><path clip-path="url(#clip990)" d="M1711.43 45.1919 L1711.43 72.576 L1703.98 72.576 L1703.98 45.4349 Q1703.98 38.994 1701.47 35.7938 Q1698.96 32.5936 1693.93 32.5936 Q1687.9 32.5936 1684.41 36.4419 Q1680.93 40.2903 1680.93 46.9338 L1680.93 72.576 L1673.44 72.576 L1673.44 27.2059 L1680.93 27.2059 L1680.93 34.2544 Q1683.6 30.163 1687.21 28.1376 Q1690.85 26.1121 1695.59 26.1121 Q1703.41 26.1121 1707.42 30.9732 Q1711.43 35.7938 1711.43 45.1919 Z" fill="#000000" fill-rule="evenodd" fill-opacity="1"></path><path clip-path="url(#clip990)" d="M1746.92 49.7694 Q1737.89 49.7694 1734.4 51.8354 Q1730.92 53.9013 1730.92 58.8839 Q1730.92 62.8538 1733.51 65.2034 Q1736.14 67.5124 1740.64 67.5124 Q1746.84 67.5124 1750.56 63.1374 Q1754.33 58.7219 1754.33 51.4303 L1754.33 49.7694 L1746.92 49.7694 M1761.79 46.6907 L1761.79 72.576 L1754.33 72.576 L1754.33 65.6895 Q1751.78 69.8214 1747.97 71.8063 Q1744.16 73.7508 1738.66 73.7508 Q1731.69 73.7508 1727.56 69.8619 Q1723.46 65.9325 1723.46 59.3701 Q1723.46 51.7138 1728.57 47.825 Q1733.71 43.9361 1743.88 43.9361 L1754.33 43.9361 L1754.33 43.2069 Q1754.33 38.0623 1750.93 35.2672 Q1747.57 32.4315 1741.45 32.4315 Q1737.56 32.4315 1733.88 33.3632 Q1730.19 34.295 1726.79 36.1584 L1726.79 29.2718 Q1730.88 27.692 1734.73 26.9223 Q1738.57 26.1121 1742.22 26.1121 Q1752.06 26.1121 1756.92 31.2163 Q1761.79 36.3204 1761.79 46.6907 Z" fill="#000000" fill-rule="evenodd" fill-opacity="1"></path><path clip-path="url(#clip990)" d="M1777.14 9.54393 L1784.59 9.54393 L1784.59 72.576 L1777.14 72.576 L1777.14 9.54393 Z" fill="#000000" fill-rule="evenodd" fill-opacity="1"></path><path clip-path="url(#clip990)" d="M1872.17 16.7545 L1872.17 25.383 Q1868.04 21.5346 1863.34 19.6307 Q1858.68 17.7268 1853.42 17.7268 Q1843.05 17.7268 1837.54 24.0867 Q1832.03 30.4061 1832.03 42.3968 Q1832.03 54.3469 1837.54 60.7069 Q1843.05 67.0263 1853.42 67.0263 Q1858.68 67.0263 1863.34 65.1223 Q1868.04 63.2184 1872.17 59.3701 L1872.17 67.9175 Q1867.88 70.8341 1863.06 72.2924 Q1858.28 73.7508 1852.93 73.7508 Q1839.2 73.7508 1831.3 65.3654 Q1823.4 56.9395 1823.4 42.3968 Q1823.4 27.8135 1831.3 19.4281 Q1839.2 11.0023 1852.93 11.0023 Q1858.36 11.0023 1863.14 12.4606 Q1867.96 13.8784 1872.17 16.7545 Z" fill="#000000" fill-rule="evenodd" fill-opacity="1"></path><path clip-path="url(#clip990)" d="M1902.07 32.4315 Q1896.07 32.4315 1892.59 37.1306 Q1889.11 41.7891 1889.11 49.9314 Q1889.11 58.0738 1892.55 62.7728 Q1896.03 67.4314 1902.07 67.4314 Q1908.02 67.4314 1911.51 62.7323 Q1914.99 58.0333 1914.99 49.9314 Q1914.99 41.8701 1911.51 37.1711 Q1908.02 32.4315 1902.07 32.4315 M1902.07 26.1121 Q1911.79 26.1121 1917.34 32.4315 Q1922.89 38.7509 1922.89 49.9314 Q1922.89 61.0714 1917.34 67.4314 Q1911.79 73.7508 1902.07 73.7508 Q1892.31 73.7508 1886.76 67.4314 Q1881.25 61.0714 1881.25 49.9314 Q1881.25 38.7509 1886.76 32.4315 Q1892.31 26.1121 1902.07 26.1121 Z" fill="#000000" fill-rule="evenodd" fill-opacity="1"></path><path clip-path="url(#clip990)" d="M1964.17 28.5427 L1964.17 35.5912 Q1961.01 33.9709 1957.61 33.1607 Q1954.2 32.3505 1950.56 32.3505 Q1945.01 32.3505 1942.21 34.0519 Q1939.46 35.7533 1939.46 39.156 Q1939.46 41.7486 1941.44 43.2475 Q1943.43 44.7058 1949.42 46.0426 L1951.98 46.6097 Q1959.92 48.3111 1963.24 51.4303 Q1966.6 54.509 1966.6 60.0587 Q1966.6 66.3781 1961.58 70.0644 Q1956.59 73.7508 1947.84 73.7508 Q1944.2 73.7508 1940.23 73.0216 Q1936.3 72.3329 1931.92 70.9151 L1931.92 63.2184 Q1936.06 65.3654 1940.07 66.4591 Q1944.08 67.5124 1948.01 67.5124 Q1953.27 67.5124 1956.11 65.73 Q1958.94 63.9071 1958.94 60.6258 Q1958.94 57.5877 1956.88 55.9673 Q1954.85 54.3469 1947.93 52.8481 L1945.33 52.2405 Q1938.41 50.7821 1935.33 47.7845 Q1932.25 44.7463 1932.25 39.4801 Q1932.25 33.0797 1936.79 29.5959 Q1941.32 26.1121 1949.67 26.1121 Q1953.8 26.1121 1957.44 26.7198 Q1961.09 27.3274 1964.17 28.5427 Z" fill="#000000" fill-rule="evenodd" fill-opacity="1"></path><path clip-path="url(#clip990)" d="M1985.84 14.324 L1985.84 27.2059 L2001.19 27.2059 L2001.19 32.9987 L1985.84 32.9987 L1985.84 57.6282 Q1985.84 63.1779 1987.34 64.7578 Q1988.88 66.3376 1993.54 66.3376 L2001.19 66.3376 L2001.19 72.576 L1993.54 72.576 Q1984.91 72.576 1981.63 69.3758 Q1978.35 66.1351 1978.35 57.6282 L1978.35 32.9987 L1972.88 32.9987 L1972.88 27.2059 L1978.35 27.2059 L1978.35 14.324 L1985.84 14.324 Z" fill="#000000" fill-rule="evenodd" fill-opacity="1"></path><polyline clip-path="url(#clip992)" style="stroke:#009af9; stroke-linecap:round; stroke-linejoin:round; stroke-width:4; stroke-opacity:1; fill:none" points="
  265.903,1386.4 400.974,1386.37 671.117,1385.2 941.26,1376.67 1211.4,1344.02 1751.69,1082.36 2291.97,165.901 
  "></polyline>
<polyline clip-path="url(#clip992)" style="stroke:#e26f46; stroke-linecap:round; stroke-linejoin:round; stroke-width:4; stroke-opacity:1; fill:none" points="
  265.903,1386.35 400.974,1386.06 671.117,1382.49 941.26,1366.88 1211.4,1326.01 1751.69,1088.17 2291.97,392.555 
  "></polyline>
<polyline clip-path="url(#clip992)" style="stroke:#3da44d; stroke-linecap:round; stroke-linejoin:round; stroke-width:4; stroke-opacity:1; fill:none" points="
  265.903,1386.31 400.974,1385.97 671.117,1380.25 941.26,1360.78 1211.4,1309.76 1751.69,1056.17 2291.97,160.256 
  "></polyline>
<polyline clip-path="url(#clip992)" style="stroke:#c271d2; stroke-linecap:round; stroke-linejoin:round; stroke-width:4; stroke-opacity:1; fill:none" points="
  265.903,1386.39 400.974,1386.18 671.117,1385.73 941.26,1383.24 1211.4,1374.84 1751.69,1337.21 2291.97,1234.28 
  "></polyline>
<polyline clip-path="url(#clip992)" style="stroke:#ac8d18; stroke-linecap:round; stroke-linejoin:round; stroke-width:4; stroke-opacity:1; fill:none" points="
  265.903,1386.36 400.974,1385.96 671.117,1385.55 941.26,1383.51 1211.4,1378.72 1751.69,1361.07 2291.97,1322.85 
  "></polyline>
<path clip-path="url(#clip990)" d="
M276.709 477.836 L893.296 477.836 L893.296 166.796 L276.709 166.796  Z
  " fill="#ffffff" fill-rule="evenodd" fill-opacity="1"></path>
<polyline clip-path="url(#clip990)" style="stroke:#000000; stroke-linecap:round; stroke-linejoin:round; stroke-width:4; stroke-opacity:1; fill:none" points="
  276.709,477.836 893.296,477.836 893.296,166.796 276.709,166.796 276.709,477.836 
  "></polyline>
<polyline clip-path="url(#clip990)" style="stroke:#009af9; stroke-linecap:round; stroke-linejoin:round; stroke-width:4; stroke-opacity:1; fill:none" points="
  300.571,218.636 443.747,218.636 
  "></polyline>
<path clip-path="url(#clip990)" d="M467.61 201.356 L487.471 201.356 L487.471 205.291 L472.286 205.291 L472.286 215.476 L485.989 215.476 L485.989 219.411 L472.286 219.411 L472.286 235.916 L467.61 235.916 L467.61 201.356 Z" fill="#000000" fill-rule="evenodd" fill-opacity="1"></path><path clip-path="url(#clip990)" d="M503.049 212.976 Q499.623 212.976 497.633 215.661 Q495.642 218.323 495.642 222.976 Q495.642 227.629 497.61 230.314 Q499.6 232.976 503.049 232.976 Q506.452 232.976 508.443 230.291 Q510.434 227.606 510.434 222.976 Q510.434 218.37 508.443 215.684 Q506.452 212.976 503.049 212.976 M503.049 209.365 Q508.605 209.365 511.776 212.976 Q514.947 216.587 514.947 222.976 Q514.947 229.342 511.776 232.976 Q508.605 236.587 503.049 236.587 Q497.471 236.587 494.299 232.976 Q491.151 229.342 491.151 222.976 Q491.151 216.587 494.299 212.976 Q497.471 209.365 503.049 209.365 Z" fill="#000000" fill-rule="evenodd" fill-opacity="1"></path><path clip-path="url(#clip990)" d="M537.031 213.971 Q536.313 213.555 535.457 213.37 Q534.623 213.161 533.605 213.161 Q529.994 213.161 528.049 215.522 Q526.128 217.86 526.128 222.258 L526.128 235.916 L521.846 235.916 L521.846 209.99 L526.128 209.99 L526.128 214.018 Q527.47 211.657 529.623 210.522 Q531.776 209.365 534.855 209.365 Q535.295 209.365 535.827 209.434 Q536.359 209.481 537.007 209.596 L537.031 213.971 Z" fill="#000000" fill-rule="evenodd" fill-opacity="1"></path><path clip-path="url(#clip990)" d="M539.021 209.99 L543.281 209.99 L548.605 230.221 L553.906 209.99 L558.929 209.99 L564.253 230.221 L569.554 209.99 L573.813 209.99 L567.03 235.916 L562.007 235.916 L556.429 214.666 L550.827 235.916 L545.804 235.916 L539.021 209.99 Z" fill="#000000" fill-rule="evenodd" fill-opacity="1"></path><path clip-path="url(#clip990)" d="M592.053 222.883 Q586.891 222.883 584.901 224.064 Q582.91 225.244 582.91 228.092 Q582.91 230.36 584.391 231.703 Q585.896 233.022 588.466 233.022 Q592.007 233.022 594.137 230.522 Q596.29 227.999 596.29 223.832 L596.29 222.883 L592.053 222.883 M600.549 221.124 L600.549 235.916 L596.29 235.916 L596.29 231.981 Q594.831 234.342 592.655 235.476 Q590.479 236.587 587.331 236.587 Q583.35 236.587 580.989 234.365 Q578.651 232.119 578.651 228.369 Q578.651 223.994 581.567 221.772 Q584.507 219.55 590.317 219.55 L596.29 219.55 L596.29 219.133 Q596.29 216.194 594.345 214.596 Q592.424 212.976 588.928 212.976 Q586.706 212.976 584.6 213.508 Q582.493 214.041 580.549 215.106 L580.549 211.17 Q582.887 210.268 585.086 209.828 Q587.285 209.365 589.368 209.365 Q594.993 209.365 597.771 212.282 Q600.549 215.198 600.549 221.124 Z" fill="#000000" fill-rule="evenodd" fill-opacity="1"></path><path clip-path="url(#clip990)" d="M624.345 213.971 Q623.627 213.555 622.771 213.37 Q621.938 213.161 620.919 213.161 Q617.308 213.161 615.364 215.522 Q613.442 217.86 613.442 222.258 L613.442 235.916 L609.16 235.916 L609.16 209.99 L613.442 209.99 L613.442 214.018 Q614.785 211.657 616.938 210.522 Q619.09 209.365 622.169 209.365 Q622.609 209.365 623.141 209.434 Q623.674 209.481 624.322 209.596 L624.345 213.971 Z" fill="#000000" fill-rule="evenodd" fill-opacity="1"></path><path clip-path="url(#clip990)" d="M645.039 213.925 L645.039 199.897 L649.299 199.897 L649.299 235.916 L645.039 235.916 L645.039 232.027 Q643.697 234.342 641.637 235.476 Q639.6 236.587 636.729 236.587 Q632.03 236.587 629.067 232.837 Q626.127 229.087 626.127 222.976 Q626.127 216.865 629.067 213.115 Q632.03 209.365 636.729 209.365 Q639.6 209.365 641.637 210.499 Q643.697 211.61 645.039 213.925 M630.525 222.976 Q630.525 227.675 632.447 230.36 Q634.391 233.022 637.771 233.022 Q641.15 233.022 643.095 230.36 Q645.039 227.675 645.039 222.976 Q645.039 218.277 643.095 215.615 Q641.15 212.93 637.771 212.93 Q634.391 212.93 632.447 215.615 Q630.525 218.277 630.525 222.976 Z" fill="#000000" fill-rule="evenodd" fill-opacity="1"></path><polyline clip-path="url(#clip990)" style="stroke:#e26f46; stroke-linecap:round; stroke-linejoin:round; stroke-width:4; stroke-opacity:1; fill:none" points="
  300.571,270.476 443.747,270.476 
  "></polyline>
<path clip-path="url(#clip990)" d="M483.998 271.552 Q485.503 272.061 486.915 273.728 Q488.35 275.395 489.785 278.311 L494.531 287.756 L489.508 287.756 L485.086 278.89 Q483.373 275.418 481.753 274.284 Q480.156 273.149 477.378 273.149 L472.286 273.149 L472.286 287.756 L467.61 287.756 L467.61 253.196 L478.165 253.196 Q484.091 253.196 487.008 255.673 Q489.924 258.149 489.924 263.149 Q489.924 266.413 488.397 268.566 Q486.892 270.719 483.998 271.552 M472.286 257.038 L472.286 269.307 L478.165 269.307 Q481.545 269.307 483.258 267.756 Q484.994 266.182 484.994 263.149 Q484.994 260.117 483.258 258.589 Q481.545 257.038 478.165 257.038 L472.286 257.038 Z" fill="#000000" fill-rule="evenodd" fill-opacity="1"></path><path clip-path="url(#clip990)" d="M520.41 273.728 L520.41 275.811 L500.827 275.811 Q501.105 280.209 503.466 282.524 Q505.85 284.816 510.086 284.816 Q512.54 284.816 514.832 284.214 Q517.146 283.612 519.415 282.409 L519.415 286.436 Q517.123 287.408 514.716 287.918 Q512.309 288.427 509.832 288.427 Q503.628 288.427 499.994 284.816 Q496.383 281.205 496.383 275.047 Q496.383 268.682 499.809 264.955 Q503.258 261.205 509.091 261.205 Q514.322 261.205 517.355 264.585 Q520.41 267.941 520.41 273.728 M516.151 272.478 Q516.105 268.983 514.184 266.899 Q512.285 264.816 509.137 264.816 Q505.572 264.816 503.42 266.83 Q501.29 268.844 500.966 272.501 L516.151 272.478 Z" fill="#000000" fill-rule="evenodd" fill-opacity="1"></path><path clip-path="url(#clip990)" d="M524.345 261.83 L528.859 261.83 L536.961 283.589 L545.063 261.83 L549.577 261.83 L539.855 287.756 L534.068 287.756 L524.345 261.83 Z" fill="#000000" fill-rule="evenodd" fill-opacity="1"></path><path clip-path="url(#clip990)" d="M577.632 273.728 L577.632 275.811 L558.049 275.811 Q558.327 280.209 560.688 282.524 Q563.072 284.816 567.308 284.816 Q569.762 284.816 572.054 284.214 Q574.368 283.612 576.637 282.409 L576.637 286.436 Q574.345 287.408 571.938 287.918 Q569.53 288.427 567.054 288.427 Q560.85 288.427 557.216 284.816 Q553.605 281.205 553.605 275.047 Q553.605 268.682 557.031 264.955 Q560.48 261.205 566.313 261.205 Q571.544 261.205 574.577 264.585 Q577.632 267.941 577.632 273.728 M573.373 272.478 Q573.327 268.983 571.405 266.899 Q569.507 264.816 566.359 264.816 Q562.794 264.816 560.642 266.83 Q558.512 268.844 558.188 272.501 L573.373 272.478 Z" fill="#000000" fill-rule="evenodd" fill-opacity="1"></path><path clip-path="url(#clip990)" d="M599.646 265.811 Q598.928 265.395 598.072 265.21 Q597.239 265.001 596.22 265.001 Q592.609 265.001 590.665 267.362 Q588.743 269.7 588.743 274.098 L588.743 287.756 L584.461 287.756 L584.461 261.83 L588.743 261.83 L588.743 265.858 Q590.086 263.497 592.239 262.362 Q594.391 261.205 597.47 261.205 Q597.91 261.205 598.442 261.274 Q598.975 261.321 599.623 261.436 L599.646 265.811 Z" fill="#000000" fill-rule="evenodd" fill-opacity="1"></path><path clip-path="url(#clip990)" d="M620.641 262.594 L620.641 266.622 Q618.836 265.696 616.891 265.233 Q614.947 264.77 612.864 264.77 Q609.692 264.77 608.095 265.742 Q606.521 266.714 606.521 268.659 Q606.521 270.14 607.655 270.997 Q608.789 271.83 612.215 272.594 L613.674 272.918 Q618.211 273.89 620.109 275.672 Q622.03 277.432 622.03 280.603 Q622.03 284.214 619.16 286.321 Q616.313 288.427 611.313 288.427 Q609.229 288.427 606.961 288.01 Q604.715 287.617 602.215 286.807 L602.215 282.409 Q604.577 283.635 606.868 284.26 Q609.16 284.862 611.405 284.862 Q614.414 284.862 616.035 283.844 Q617.655 282.802 617.655 280.927 Q617.655 279.191 616.475 278.265 Q615.317 277.339 611.359 276.483 L609.877 276.135 Q605.919 275.302 604.16 273.589 Q602.401 271.853 602.401 268.844 Q602.401 265.186 604.993 263.196 Q607.586 261.205 612.354 261.205 Q614.715 261.205 616.799 261.552 Q618.882 261.899 620.641 262.594 Z" fill="#000000" fill-rule="evenodd" fill-opacity="1"></path><path clip-path="url(#clip990)" d="M650.988 273.728 L650.988 275.811 L631.405 275.811 Q631.683 280.209 634.044 282.524 Q636.428 284.816 640.664 284.816 Q643.118 284.816 645.41 284.214 Q647.724 283.612 649.993 282.409 L649.993 286.436 Q647.701 287.408 645.294 287.918 Q642.887 288.427 640.41 288.427 Q634.206 288.427 630.572 284.816 Q626.961 281.205 626.961 275.047 Q626.961 268.682 630.387 264.955 Q633.836 261.205 639.669 261.205 Q644.9 261.205 647.933 264.585 Q650.988 267.941 650.988 273.728 M646.729 272.478 Q646.683 268.983 644.762 266.899 Q642.863 264.816 639.715 264.816 Q636.15 264.816 633.998 266.83 Q631.868 268.844 631.544 272.501 L646.729 272.478 Z" fill="#000000" fill-rule="evenodd" fill-opacity="1"></path><polyline clip-path="url(#clip990)" style="stroke:#3da44d; stroke-linecap:round; stroke-linejoin:round; stroke-width:4; stroke-opacity:1; fill:none" points="
  300.571,322.316 443.747,322.316 
  "></polyline>
<path clip-path="url(#clip990)" d="M468.142 305.036 L495.295 305.036 L495.295 308.601 L473.443 335.661 L495.827 335.661 L495.827 339.596 L467.61 339.596 L467.61 336.031 L489.461 308.971 L468.142 308.971 L468.142 305.036 Z" fill="#000000" fill-rule="evenodd" fill-opacity="1"></path><path clip-path="url(#clip990)" d="M513.211 342.003 Q511.406 346.633 509.693 348.045 Q507.98 349.457 505.109 349.457 L501.707 349.457 L501.707 345.892 L504.207 345.892 Q505.966 345.892 506.938 345.059 Q507.91 344.225 509.091 341.123 L509.855 339.179 L499.369 313.67 L503.883 313.67 L511.984 333.948 L520.086 313.67 L524.6 313.67 L513.211 342.003 Z" fill="#000000" fill-rule="evenodd" fill-opacity="1"></path><path clip-path="url(#clip990)" d="M547.54 326.332 Q547.54 321.702 545.619 319.156 Q543.72 316.61 540.271 316.61 Q536.845 316.61 534.924 319.156 Q533.026 321.702 533.026 326.332 Q533.026 330.938 534.924 333.485 Q536.845 336.031 540.271 336.031 Q543.72 336.031 545.619 333.485 Q547.54 330.938 547.54 326.332 M551.799 336.378 Q551.799 342.998 548.859 346.216 Q545.919 349.457 539.855 349.457 Q537.609 349.457 535.619 349.11 Q533.628 348.785 531.753 348.091 L531.753 343.948 Q533.628 344.966 535.457 345.452 Q537.285 345.938 539.183 345.938 Q543.373 345.938 545.456 343.739 Q547.54 341.563 547.54 337.142 L547.54 335.036 Q546.22 337.327 544.16 338.461 Q542.1 339.596 539.23 339.596 Q534.461 339.596 531.545 335.961 Q528.628 332.327 528.628 326.332 Q528.628 320.313 531.545 316.679 Q534.461 313.045 539.23 313.045 Q542.1 313.045 544.16 314.179 Q546.22 315.313 547.54 317.605 L547.54 313.67 L551.799 313.67 L551.799 336.378 Z" fill="#000000" fill-rule="evenodd" fill-opacity="1"></path><path clip-path="url(#clip990)" d="M570.618 316.656 Q567.192 316.656 565.202 319.341 Q563.211 322.003 563.211 326.656 Q563.211 331.309 565.179 333.994 Q567.169 336.656 570.618 336.656 Q574.021 336.656 576.012 333.971 Q578.003 331.286 578.003 326.656 Q578.003 322.05 576.012 319.364 Q574.021 316.656 570.618 316.656 M570.618 313.045 Q576.174 313.045 579.345 316.656 Q582.516 320.267 582.516 326.656 Q582.516 333.022 579.345 336.656 Q576.174 340.267 570.618 340.267 Q565.04 340.267 561.868 336.656 Q558.72 333.022 558.72 326.656 Q558.72 320.267 561.868 316.656 Q565.04 313.045 570.618 313.045 Z" fill="#000000" fill-rule="evenodd" fill-opacity="1"></path><path clip-path="url(#clip990)" d="M593.79 306.309 L593.79 313.67 L602.563 313.67 L602.563 316.98 L593.79 316.98 L593.79 331.054 Q593.79 334.225 594.646 335.128 Q595.526 336.031 598.188 336.031 L602.563 336.031 L602.563 339.596 L598.188 339.596 Q593.257 339.596 591.382 337.767 Q589.507 335.915 589.507 331.054 L589.507 316.98 L586.382 316.98 L586.382 313.67 L589.507 313.67 L589.507 306.309 L593.79 306.309 Z" fill="#000000" fill-rule="evenodd" fill-opacity="1"></path><path clip-path="url(#clip990)" d="M630.34 325.568 L630.34 327.651 L610.757 327.651 Q611.035 332.049 613.396 334.364 Q615.78 336.656 620.016 336.656 Q622.47 336.656 624.762 336.054 Q627.076 335.452 629.345 334.249 L629.345 338.276 Q627.053 339.248 624.646 339.758 Q622.238 340.267 619.762 340.267 Q613.558 340.267 609.924 336.656 Q606.313 333.045 606.313 326.887 Q606.313 320.522 609.739 316.795 Q613.188 313.045 619.021 313.045 Q624.252 313.045 627.285 316.425 Q630.34 319.781 630.34 325.568 M626.081 324.318 Q626.035 320.823 624.113 318.739 Q622.215 316.656 619.067 316.656 Q615.502 316.656 613.35 318.67 Q611.22 320.684 610.896 324.341 L626.081 324.318 Z" fill="#000000" fill-rule="evenodd" fill-opacity="1"></path><polyline clip-path="url(#clip990)" style="stroke:#c271d2; stroke-linecap:round; stroke-linejoin:round; stroke-width:4; stroke-opacity:1; fill:none" points="
  300.571,374.156 443.747,374.156 
  "></polyline>
<path clip-path="url(#clip990)" d="M483.628 360.047 Q478.536 360.047 475.526 363.843 Q472.54 367.64 472.54 374.19 Q472.54 380.718 475.526 384.514 Q478.536 388.311 483.628 388.311 Q488.721 388.311 491.684 384.514 Q494.67 380.718 494.67 374.19 Q494.67 367.64 491.684 363.843 Q488.721 360.047 483.628 360.047 M483.628 356.251 Q490.897 356.251 495.248 361.135 Q499.6 365.996 499.6 374.19 Q499.6 382.362 495.248 387.246 Q490.897 392.107 483.628 392.107 Q476.336 392.107 471.962 387.246 Q467.61 382.385 467.61 374.19 Q467.61 365.996 471.962 361.135 Q476.336 356.251 483.628 356.251 Z" fill="#000000" fill-rule="evenodd" fill-opacity="1"></path><path clip-path="url(#clip990)" d="M510.85 387.547 L510.85 401.297 L506.568 401.297 L506.568 365.51 L510.85 365.51 L510.85 369.445 Q512.193 367.13 514.23 366.019 Q516.29 364.885 519.137 364.885 Q523.859 364.885 526.799 368.635 Q529.762 372.385 529.762 378.496 Q529.762 384.607 526.799 388.357 Q523.859 392.107 519.137 392.107 Q516.29 392.107 514.23 390.996 Q512.193 389.862 510.85 387.547 M525.341 378.496 Q525.341 373.797 523.396 371.135 Q521.475 368.45 518.096 368.45 Q514.716 368.45 512.771 371.135 Q510.85 373.797 510.85 378.496 Q510.85 383.195 512.771 385.88 Q514.716 388.542 518.096 388.542 Q521.475 388.542 523.396 385.88 Q525.341 383.195 525.341 378.496 Z" fill="#000000" fill-rule="evenodd" fill-opacity="1"></path><path clip-path="url(#clip990)" d="M541.035 358.149 L541.035 365.51 L549.808 365.51 L549.808 368.82 L541.035 368.82 L541.035 382.894 Q541.035 386.065 541.892 386.968 Q542.771 387.871 545.433 387.871 L549.808 387.871 L549.808 391.436 L545.433 391.436 Q540.503 391.436 538.628 389.607 Q536.753 387.755 536.753 382.894 L536.753 368.82 L533.628 368.82 L533.628 365.51 L536.753 365.51 L536.753 358.149 L541.035 358.149 Z" fill="#000000" fill-rule="evenodd" fill-opacity="1"></path><path clip-path="url(#clip990)" d="M555.41 365.51 L559.669 365.51 L559.669 391.436 L555.41 391.436 L555.41 365.51 M555.41 355.417 L559.669 355.417 L559.669 360.811 L555.41 360.811 L555.41 355.417 Z" fill="#000000" fill-rule="evenodd" fill-opacity="1"></path><path clip-path="url(#clip990)" d="M588.766 370.487 Q590.364 367.616 592.586 366.251 Q594.808 364.885 597.817 364.885 Q601.868 364.885 604.067 367.732 Q606.266 370.556 606.266 375.788 L606.266 391.436 L601.984 391.436 L601.984 375.927 Q601.984 372.2 600.665 370.394 Q599.345 368.589 596.637 368.589 Q593.327 368.589 591.405 370.788 Q589.484 372.987 589.484 376.783 L589.484 391.436 L585.202 391.436 L585.202 375.927 Q585.202 372.177 583.882 370.394 Q582.563 368.589 579.808 368.589 Q576.544 368.589 574.623 370.811 Q572.702 373.01 572.702 376.783 L572.702 391.436 L568.419 391.436 L568.419 365.51 L572.702 365.51 L572.702 369.538 Q574.16 367.153 576.197 366.019 Q578.234 364.885 581.035 364.885 Q583.859 364.885 585.827 366.32 Q587.817 367.755 588.766 370.487 Z" fill="#000000" fill-rule="evenodd" fill-opacity="1"></path><path clip-path="url(#clip990)" d="M627.678 376.552 L640.155 376.552 L640.155 380.348 L627.678 380.348 L627.678 376.552 Z" fill="#000000" fill-rule="evenodd" fill-opacity="1"></path><path clip-path="url(#clip990)" d="M662.192 356.876 L682.053 356.876 L682.053 360.811 L666.868 360.811 L666.868 370.996 L680.572 370.996 L680.572 374.931 L666.868 374.931 L666.868 391.436 L662.192 391.436 L662.192 356.876 Z" fill="#000000" fill-rule="evenodd" fill-opacity="1"></path><path clip-path="url(#clip990)" d="M697.632 368.496 Q694.206 368.496 692.215 371.181 Q690.224 373.843 690.224 378.496 Q690.224 383.149 692.192 385.834 Q694.183 388.496 697.632 388.496 Q701.034 388.496 703.025 385.811 Q705.016 383.126 705.016 378.496 Q705.016 373.89 703.025 371.204 Q701.034 368.496 697.632 368.496 M697.632 364.885 Q703.187 364.885 706.358 368.496 Q709.53 372.107 709.53 378.496 Q709.53 384.862 706.358 388.496 Q703.187 392.107 697.632 392.107 Q692.053 392.107 688.882 388.496 Q685.734 384.862 685.734 378.496 Q685.734 372.107 688.882 368.496 Q692.053 364.885 697.632 364.885 Z" fill="#000000" fill-rule="evenodd" fill-opacity="1"></path><path clip-path="url(#clip990)" d="M731.613 369.491 Q730.895 369.075 730.039 368.89 Q729.206 368.681 728.187 368.681 Q724.576 368.681 722.631 371.042 Q720.71 373.38 720.71 377.778 L720.71 391.436 L716.428 391.436 L716.428 365.51 L720.71 365.51 L720.71 369.538 Q722.053 367.177 724.206 366.042 Q726.358 364.885 729.437 364.885 Q729.877 364.885 730.409 364.954 Q730.942 365.001 731.59 365.116 L731.613 369.491 Z" fill="#000000" fill-rule="evenodd" fill-opacity="1"></path><path clip-path="url(#clip990)" d="M733.604 365.51 L737.863 365.51 L743.187 385.741 L748.488 365.51 L753.511 365.51 L758.835 385.741 L764.136 365.51 L768.395 365.51 L761.613 391.436 L756.59 391.436 L751.011 370.186 L745.409 391.436 L740.386 391.436 L733.604 365.51 Z" fill="#000000" fill-rule="evenodd" fill-opacity="1"></path><path clip-path="url(#clip990)" d="M786.636 378.403 Q781.474 378.403 779.483 379.584 Q777.492 380.764 777.492 383.612 Q777.492 385.88 778.974 387.223 Q780.478 388.542 783.048 388.542 Q786.589 388.542 788.719 386.042 Q790.872 383.519 790.872 379.352 L790.872 378.403 L786.636 378.403 M795.131 376.644 L795.131 391.436 L790.872 391.436 L790.872 387.501 Q789.414 389.862 787.238 390.996 Q785.062 392.107 781.914 392.107 Q777.932 392.107 775.571 389.885 Q773.233 387.639 773.233 383.889 Q773.233 379.514 776.15 377.292 Q779.09 375.07 784.9 375.07 L790.872 375.07 L790.872 374.653 Q790.872 371.714 788.927 370.116 Q787.006 368.496 783.511 368.496 Q781.289 368.496 779.182 369.028 Q777.076 369.561 775.131 370.626 L775.131 366.69 Q777.469 365.788 779.668 365.348 Q781.867 364.885 783.951 364.885 Q789.576 364.885 792.353 367.802 Q795.131 370.718 795.131 376.644 Z" fill="#000000" fill-rule="evenodd" fill-opacity="1"></path><path clip-path="url(#clip990)" d="M818.927 369.491 Q818.21 369.075 817.353 368.89 Q816.52 368.681 815.501 368.681 Q811.89 368.681 809.946 371.042 Q808.025 373.38 808.025 377.778 L808.025 391.436 L803.742 391.436 L803.742 365.51 L808.025 365.51 L808.025 369.538 Q809.367 367.177 811.52 366.042 Q813.673 364.885 816.751 364.885 Q817.191 364.885 817.724 364.954 Q818.256 365.001 818.904 365.116 L818.927 369.491 Z" fill="#000000" fill-rule="evenodd" fill-opacity="1"></path><path clip-path="url(#clip990)" d="M839.622 369.445 L839.622 355.417 L843.881 355.417 L843.881 391.436 L839.622 391.436 L839.622 387.547 Q838.279 389.862 836.219 390.996 Q834.182 392.107 831.311 392.107 Q826.612 392.107 823.649 388.357 Q820.71 384.607 820.71 378.496 Q820.71 372.385 823.649 368.635 Q826.612 364.885 831.311 364.885 Q834.182 364.885 836.219 366.019 Q838.279 367.13 839.622 369.445 M825.108 378.496 Q825.108 383.195 827.029 385.88 Q828.973 388.542 832.353 388.542 Q835.733 388.542 837.677 385.88 Q839.622 383.195 839.622 378.496 Q839.622 373.797 837.677 371.135 Q835.733 368.45 832.353 368.45 Q828.973 368.45 827.029 371.135 Q825.108 373.797 825.108 378.496 Z" fill="#000000" fill-rule="evenodd" fill-opacity="1"></path><polyline clip-path="url(#clip990)" style="stroke:#ac8d18; stroke-linecap:round; stroke-linejoin:round; stroke-width:4; stroke-opacity:1; fill:none" points="
  300.571,425.996 443.747,425.996 
  "></polyline>
<path clip-path="url(#clip990)" d="M483.628 411.887 Q478.536 411.887 475.526 415.683 Q472.54 419.48 472.54 426.03 Q472.54 432.558 475.526 436.354 Q478.536 440.151 483.628 440.151 Q488.721 440.151 491.684 436.354 Q494.67 432.558 494.67 426.03 Q494.67 419.48 491.684 415.683 Q488.721 411.887 483.628 411.887 M483.628 408.091 Q490.897 408.091 495.248 412.975 Q499.6 417.836 499.6 426.03 Q499.6 434.202 495.248 439.086 Q490.897 443.947 483.628 443.947 Q476.336 443.947 471.962 439.086 Q467.61 434.225 467.61 426.03 Q467.61 417.836 471.962 412.975 Q476.336 408.091 483.628 408.091 Z" fill="#000000" fill-rule="evenodd" fill-opacity="1"></path><path clip-path="url(#clip990)" d="M510.85 439.387 L510.85 453.137 L506.568 453.137 L506.568 417.35 L510.85 417.35 L510.85 421.285 Q512.193 418.97 514.23 417.859 Q516.29 416.725 519.137 416.725 Q523.859 416.725 526.799 420.475 Q529.762 424.225 529.762 430.336 Q529.762 436.447 526.799 440.197 Q523.859 443.947 519.137 443.947 Q516.29 443.947 514.23 442.836 Q512.193 441.702 510.85 439.387 M525.341 430.336 Q525.341 425.637 523.396 422.975 Q521.475 420.29 518.096 420.29 Q514.716 420.29 512.771 422.975 Q510.85 425.637 510.85 430.336 Q510.85 435.035 512.771 437.72 Q514.716 440.382 518.096 440.382 Q521.475 440.382 523.396 437.72 Q525.341 435.035 525.341 430.336 Z" fill="#000000" fill-rule="evenodd" fill-opacity="1"></path><path clip-path="url(#clip990)" d="M541.035 409.989 L541.035 417.35 L549.808 417.35 L549.808 420.66 L541.035 420.66 L541.035 434.734 Q541.035 437.905 541.892 438.808 Q542.771 439.711 545.433 439.711 L549.808 439.711 L549.808 443.276 L545.433 443.276 Q540.503 443.276 538.628 441.447 Q536.753 439.595 536.753 434.734 L536.753 420.66 L533.628 420.66 L533.628 417.35 L536.753 417.35 L536.753 409.989 L541.035 409.989 Z" fill="#000000" fill-rule="evenodd" fill-opacity="1"></path><path clip-path="url(#clip990)" d="M555.41 417.35 L559.669 417.35 L559.669 443.276 L555.41 443.276 L555.41 417.35 M555.41 407.257 L559.669 407.257 L559.669 412.651 L555.41 412.651 L555.41 407.257 Z" fill="#000000" fill-rule="evenodd" fill-opacity="1"></path><path clip-path="url(#clip990)" d="M588.766 422.327 Q590.364 419.456 592.586 418.091 Q594.808 416.725 597.817 416.725 Q601.868 416.725 604.067 419.572 Q606.266 422.396 606.266 427.628 L606.266 443.276 L601.984 443.276 L601.984 427.767 Q601.984 424.04 600.665 422.234 Q599.345 420.429 596.637 420.429 Q593.327 420.429 591.405 422.628 Q589.484 424.827 589.484 428.623 L589.484 443.276 L585.202 443.276 L585.202 427.767 Q585.202 424.017 583.882 422.234 Q582.563 420.429 579.808 420.429 Q576.544 420.429 574.623 422.651 Q572.702 424.85 572.702 428.623 L572.702 443.276 L568.419 443.276 L568.419 417.35 L572.702 417.35 L572.702 421.378 Q574.16 418.993 576.197 417.859 Q578.234 416.725 581.035 416.725 Q583.859 416.725 585.827 418.16 Q587.817 419.595 588.766 422.327 Z" fill="#000000" fill-rule="evenodd" fill-opacity="1"></path><path clip-path="url(#clip990)" d="M627.678 428.392 L640.155 428.392 L640.155 432.188 L627.678 432.188 L627.678 428.392 Z" fill="#000000" fill-rule="evenodd" fill-opacity="1"></path><path clip-path="url(#clip990)" d="M678.581 427.072 Q680.085 427.581 681.497 429.248 Q682.933 430.915 684.368 433.831 L689.113 443.276 L684.09 443.276 L679.669 434.41 Q677.956 430.938 676.335 429.804 Q674.738 428.669 671.96 428.669 L666.868 428.669 L666.868 443.276 L662.192 443.276 L662.192 408.716 L672.747 408.716 Q678.673 408.716 681.59 411.193 Q684.507 413.669 684.507 418.669 Q684.507 421.933 682.979 424.086 Q681.474 426.239 678.581 427.072 M666.868 412.558 L666.868 424.827 L672.747 424.827 Q676.127 424.827 677.84 423.276 Q679.576 421.702 679.576 418.669 Q679.576 415.637 677.84 414.109 Q676.127 412.558 672.747 412.558 L666.868 412.558 Z" fill="#000000" fill-rule="evenodd" fill-opacity="1"></path><path clip-path="url(#clip990)" d="M714.993 429.248 L714.993 431.331 L695.409 431.331 Q695.687 435.729 698.048 438.044 Q700.433 440.336 704.669 440.336 Q707.122 440.336 709.414 439.734 Q711.729 439.132 713.997 437.929 L713.997 441.956 Q711.706 442.928 709.298 443.438 Q706.891 443.947 704.414 443.947 Q698.21 443.947 694.576 440.336 Q690.965 436.725 690.965 430.567 Q690.965 424.202 694.391 420.475 Q697.84 416.725 703.673 416.725 Q708.905 416.725 711.937 420.105 Q714.993 423.461 714.993 429.248 M710.733 427.998 Q710.687 424.503 708.766 422.419 Q706.868 420.336 703.72 420.336 Q700.155 420.336 698.002 422.35 Q695.872 424.364 695.548 428.021 L710.733 427.998 Z" fill="#000000" fill-rule="evenodd" fill-opacity="1"></path><path clip-path="url(#clip990)" d="M718.928 417.35 L723.442 417.35 L731.543 439.109 L739.645 417.35 L744.159 417.35 L734.437 443.276 L728.65 443.276 L718.928 417.35 Z" fill="#000000" fill-rule="evenodd" fill-opacity="1"></path><path clip-path="url(#clip990)" d="M772.215 429.248 L772.215 431.331 L752.631 431.331 Q752.909 435.729 755.27 438.044 Q757.654 440.336 761.891 440.336 Q764.344 440.336 766.636 439.734 Q768.951 439.132 771.219 437.929 L771.219 441.956 Q768.928 442.928 766.52 443.438 Q764.113 443.947 761.636 443.947 Q755.432 443.947 751.798 440.336 Q748.187 436.725 748.187 430.567 Q748.187 424.202 751.613 420.475 Q755.062 416.725 760.895 416.725 Q766.127 416.725 769.159 420.105 Q772.215 423.461 772.215 429.248 M767.955 427.998 Q767.909 424.503 765.988 422.419 Q764.09 420.336 760.941 420.336 Q757.377 420.336 755.224 422.35 Q753.094 424.364 752.77 428.021 L767.955 427.998 Z" fill="#000000" fill-rule="evenodd" fill-opacity="1"></path><path clip-path="url(#clip990)" d="M794.228 421.331 Q793.511 420.915 792.654 420.73 Q791.821 420.521 790.802 420.521 Q787.191 420.521 785.247 422.882 Q783.326 425.22 783.326 429.618 L783.326 443.276 L779.043 443.276 L779.043 417.35 L783.326 417.35 L783.326 421.378 Q784.668 419.017 786.821 417.882 Q788.974 416.725 792.052 416.725 Q792.492 416.725 793.025 416.794 Q793.557 416.841 794.205 416.956 L794.228 421.331 Z" fill="#000000" fill-rule="evenodd" fill-opacity="1"></path><path clip-path="url(#clip990)" d="M815.224 418.114 L815.224 422.142 Q813.418 421.216 811.474 420.753 Q809.529 420.29 807.446 420.29 Q804.275 420.29 802.677 421.262 Q801.103 422.234 801.103 424.179 Q801.103 425.66 802.238 426.517 Q803.372 427.35 806.798 428.114 L808.256 428.438 Q812.793 429.41 814.691 431.192 Q816.612 432.952 816.612 436.123 Q816.612 439.734 813.742 441.841 Q810.895 443.947 805.895 443.947 Q803.812 443.947 801.543 443.53 Q799.298 443.137 796.798 442.327 L796.798 437.929 Q799.159 439.155 801.45 439.78 Q803.742 440.382 805.988 440.382 Q808.997 440.382 810.617 439.364 Q812.237 438.322 812.237 436.447 Q812.237 434.711 811.057 433.785 Q809.9 432.859 805.941 432.003 L804.46 431.655 Q800.501 430.822 798.742 429.109 Q796.983 427.373 796.983 424.364 Q796.983 420.706 799.576 418.716 Q802.168 416.725 806.937 416.725 Q809.298 416.725 811.381 417.072 Q813.464 417.419 815.224 418.114 Z" fill="#000000" fill-rule="evenodd" fill-opacity="1"></path><path clip-path="url(#clip990)" d="M845.571 429.248 L845.571 431.331 L825.987 431.331 Q826.265 435.729 828.626 438.044 Q831.011 440.336 835.247 440.336 Q837.7 440.336 839.992 439.734 Q842.307 439.132 844.575 437.929 L844.575 441.956 Q842.284 442.928 839.876 443.438 Q837.469 443.947 834.992 443.947 Q828.788 443.947 825.154 440.336 Q821.543 436.725 821.543 430.567 Q821.543 424.202 824.969 420.475 Q828.418 416.725 834.251 416.725 Q839.483 416.725 842.515 420.105 Q845.571 423.461 845.571 429.248 M841.311 427.998 Q841.265 424.503 839.344 422.419 Q837.446 420.336 834.298 420.336 Q830.733 420.336 828.58 422.35 Q826.45 424.364 826.126 428.021 L841.311 427.998 Z" fill="#000000" fill-rule="evenodd" fill-opacity="1"></path></svg>