<svg xmlns="http://www.w3.org/2000/svg" xmlns:xlink="http://www.w3.org/1999/xlink" width="600" height="400" viewBox="0 0 2400 1600">
<defs>
  <clipPath id="clip870">
    <rect x="0" y="0" width="2400" height="1600"></rect>
  </clipPath>
</defs>
<path clip-path="url(#clip870)" d="
M0 1600 L2400 1600 L2400 0 L0 0  Z
  " fill="#ffffff" fill-rule="evenodd" fill-opacity="1"></path>
<defs>
  <clipPath id="clip871">
    <rect x="480" y="0" width="1681" height="1600"></rect>
  </clipPath>
</defs>
<path clip-path="url(#clip870)" d="
M219.38 1423.18 L2352.76 1423.18 L2352.76 123.472 L219.38 123.472  Z
  " fill="#ffffff" fill-rule="evenodd" fill-opacity="1"></path>
<defs>
  <clipPath id="clip872">
    <rect x="219" y="123" width="2134" height="1301"></rect>
  </clipPath>
</defs>
<polyline clip-path="url(#clip872)" style="stroke:#000000; stroke-linecap:round; stroke-linejoin:round; stroke-width:2; stroke-opacity:0.1; fill:none" points="
  567.276,1423.18 567.276,123.472 
  "></polyline>
<polyline clip-path="url(#clip872)" style="stroke:#000000; stroke-linecap:round; stroke-linejoin:round; stroke-width:2; stroke-opacity:0.1; fill:none" points="
  1142.31,1423.18 1142.31,123.472 
  "></polyline>
<polyline clip-path="url(#clip872)" style="stroke:#000000; stroke-linecap:round; stroke-linejoin:round; stroke-width:2; stroke-opacity:0.1; fill:none" points="
  1717.34,1423.18 1717.34,123.472 
  "></polyline>
<polyline clip-path="url(#clip872)" style="stroke:#000000; stroke-linecap:round; stroke-linejoin:round; stroke-width:2; stroke-opacity:0.1; fill:none" points="
  2292.38,1423.18 2292.38,123.472 
  "></polyline>
<polyline clip-path="url(#clip870)" style="stroke:#000000; stroke-linecap:round; stroke-linejoin:round; stroke-width:4; stroke-opacity:1; fill:none" points="
  219.38,1423.18 2352.76,1423.18 
  "></polyline>
<polyline clip-path="url(#clip870)" style="stroke:#000000; stroke-linecap:round; stroke-linejoin:round; stroke-width:4; stroke-opacity:1; fill:none" points="
  567.276,1423.18 567.276,1404.28 
  "></polyline>
<polyline clip-path="url(#clip870)" style="stroke:#000000; stroke-linecap:round; stroke-linejoin:round; stroke-width:4; stroke-opacity:1; fill:none" points="
  1142.31,1423.18 1142.31,1404.28 
  "></polyline>
<polyline clip-path="url(#clip870)" style="stroke:#000000; stroke-linecap:round; stroke-linejoin:round; stroke-width:4; stroke-opacity:1; fill:none" points="
  1717.34,1423.18 1717.34,1404.28 
  "></polyline>
<polyline clip-path="url(#clip870)" style="stroke:#000000; stroke-linecap:round; stroke-linejoin:round; stroke-width:4; stroke-opacity:1; fill:none" points="
  2292.38,1423.18 2292.38,1404.28 
  "></polyline>
<path clip-path="url(#clip870)" d="M541.963 1481.64 L549.602 1481.64 L549.602 1455.28 L541.292 1456.95 L541.292 1452.69 L549.556 1451.02 L554.232 1451.02 L554.232 1481.64 L561.871 1481.64 L561.871 1485.58 L541.963 1485.58 L541.963 1481.64 Z" fill="#000000" fill-rule="evenodd" fill-opacity="1"></path><path clip-path="url(#clip870)" d="M581.315 1454.1 Q577.704 1454.1 575.875 1457.66 Q574.07 1461.2 574.07 1468.33 Q574.07 1475.44 575.875 1479.01 Q577.704 1482.55 581.315 1482.55 Q584.949 1482.55 586.755 1479.01 Q588.583 1475.44 588.583 1468.33 Q588.583 1461.2 586.755 1457.66 Q584.949 1454.1 581.315 1454.1 M581.315 1450.39 Q587.125 1450.39 590.181 1455 Q593.259 1459.58 593.259 1468.33 Q593.259 1477.06 590.181 1481.67 Q587.125 1486.25 581.315 1486.25 Q575.505 1486.25 572.426 1481.67 Q569.371 1477.06 569.371 1468.33 Q569.371 1459.58 572.426 1455 Q575.505 1450.39 581.315 1450.39 Z" fill="#000000" fill-rule="evenodd" fill-opacity="1"></path><path clip-path="url(#clip870)" d="M1121.08 1481.64 L1137.4 1481.64 L1137.4 1485.58 L1115.46 1485.58 L1115.46 1481.64 Q1118.12 1478.89 1122.7 1474.26 Q1127.31 1469.61 1128.49 1468.27 Q1130.74 1465.74 1131.62 1464.01 Q1132.52 1462.25 1132.52 1460.56 Q1132.52 1457.8 1130.57 1456.07 Q1128.65 1454.33 1125.55 1454.33 Q1123.35 1454.33 1120.9 1455.09 Q1118.47 1455.86 1115.69 1457.41 L1115.69 1452.69 Q1118.51 1451.55 1120.97 1450.97 Q1123.42 1450.39 1125.46 1450.39 Q1130.83 1450.39 1134.02 1453.08 Q1137.22 1455.77 1137.22 1460.26 Q1137.22 1462.39 1136.41 1464.31 Q1135.62 1466.2 1133.51 1468.8 Q1132.93 1469.47 1129.83 1472.69 Q1126.73 1475.88 1121.08 1481.64 Z" fill="#000000" fill-rule="evenodd" fill-opacity="1"></path><path clip-path="url(#clip870)" d="M1157.22 1454.1 Q1153.61 1454.1 1151.78 1457.66 Q1149.97 1461.2 1149.97 1468.33 Q1149.97 1475.44 1151.78 1479.01 Q1153.61 1482.55 1157.22 1482.55 Q1160.85 1482.55 1162.66 1479.01 Q1164.49 1475.44 1164.49 1468.33 Q1164.49 1461.2 1162.66 1457.66 Q1160.85 1454.1 1157.22 1454.1 M1157.22 1450.39 Q1163.03 1450.39 1166.08 1455 Q1169.16 1459.58 1169.16 1468.33 Q1169.16 1477.06 1166.08 1481.67 Q1163.03 1486.25 1157.22 1486.25 Q1151.41 1486.25 1148.33 1481.67 Q1145.27 1477.06 1145.27 1468.33 Q1145.27 1459.58 1148.33 1455 Q1151.41 1450.39 1157.22 1450.39 Z" fill="#000000" fill-rule="evenodd" fill-opacity="1"></path><path clip-path="url(#clip870)" d="M1706.19 1466.95 Q1709.54 1467.66 1711.42 1469.93 Q1713.32 1472.2 1713.32 1475.53 Q1713.32 1480.65 1709.8 1483.45 Q1706.28 1486.25 1699.8 1486.25 Q1697.62 1486.25 1695.31 1485.81 Q1693.01 1485.39 1690.56 1484.54 L1690.56 1480.02 Q1692.51 1481.16 1694.82 1481.74 Q1697.14 1482.32 1699.66 1482.32 Q1704.06 1482.32 1706.35 1480.58 Q1708.66 1478.84 1708.66 1475.53 Q1708.66 1472.48 1706.51 1470.77 Q1704.38 1469.03 1700.56 1469.03 L1696.53 1469.03 L1696.53 1465.19 L1700.75 1465.19 Q1704.2 1465.19 1706.02 1463.82 Q1707.85 1462.43 1707.85 1459.84 Q1707.85 1457.18 1705.95 1455.77 Q1704.08 1454.33 1700.56 1454.33 Q1698.64 1454.33 1696.44 1454.75 Q1694.24 1455.16 1691.6 1456.04 L1691.6 1451.88 Q1694.26 1451.14 1696.58 1450.77 Q1698.92 1450.39 1700.98 1450.39 Q1706.3 1450.39 1709.4 1452.83 Q1712.51 1455.23 1712.51 1459.35 Q1712.51 1462.22 1710.86 1464.21 Q1709.22 1466.18 1706.19 1466.95 Z" fill="#000000" fill-rule="evenodd" fill-opacity="1"></path><path clip-path="url(#clip870)" d="M1732.18 1454.1 Q1728.57 1454.1 1726.74 1457.66 Q1724.94 1461.2 1724.94 1468.33 Q1724.94 1475.44 1726.74 1479.01 Q1728.57 1482.55 1732.18 1482.55 Q1735.82 1482.55 1737.62 1479.01 Q1739.45 1475.44 1739.45 1468.33 Q1739.45 1461.2 1737.62 1457.66 Q1735.82 1454.1 1732.18 1454.1 M1732.18 1450.39 Q1737.99 1450.39 1741.05 1455 Q1744.13 1459.58 1744.13 1468.33 Q1744.13 1477.06 1741.05 1481.67 Q1737.99 1486.25 1732.18 1486.25 Q1726.37 1486.25 1723.29 1481.67 Q1720.24 1477.06 1720.24 1468.33 Q1720.24 1459.58 1723.29 1455 Q1726.37 1450.39 1732.18 1450.39 Z" fill="#000000" fill-rule="evenodd" fill-opacity="1"></path><path clip-path="url(#clip870)" d="M2280.55 1455.09 L2268.74 1473.54 L2280.55 1473.54 L2280.55 1455.09 M2279.32 1451.02 L2285.2 1451.02 L2285.2 1473.54 L2290.13 1473.54 L2290.13 1477.43 L2285.2 1477.43 L2285.2 1485.58 L2280.55 1485.58 L2280.55 1477.43 L2264.95 1477.43 L2264.95 1472.92 L2279.32 1451.02 Z" fill="#000000" fill-rule="evenodd" fill-opacity="1"></path><path clip-path="url(#clip870)" d="M2307.86 1454.1 Q2304.25 1454.1 2302.42 1457.66 Q2300.62 1461.2 2300.62 1468.33 Q2300.62 1475.44 2302.42 1479.01 Q2304.25 1482.55 2307.86 1482.55 Q2311.5 1482.55 2313.3 1479.01 Q2315.13 1475.44 2315.13 1468.33 Q2315.13 1461.2 2313.3 1457.66 Q2311.5 1454.1 2307.86 1454.1 M2307.86 1450.39 Q2313.67 1450.39 2316.73 1455 Q2319.81 1459.58 2319.81 1468.33 Q2319.81 1477.06 2316.73 1481.67 Q2313.67 1486.25 2307.86 1486.25 Q2302.05 1486.25 2298.97 1481.67 Q2295.92 1477.06 2295.92 1468.33 Q2295.92 1459.58 2298.97 1455 Q2302.05 1450.39 2307.86 1450.39 Z" fill="#000000" fill-rule="evenodd" fill-opacity="1"></path><path clip-path="url(#clip870)" d="M1104.14 1539.37 L1094.87 1539.37 L1092.2 1550 L1101.53 1550 L1104.14 1539.37 M1099.36 1521.26 L1096.05 1534.46 L1105.35 1534.46 L1108.69 1521.26 L1113.78 1521.26 L1110.5 1534.46 L1120.43 1534.46 L1120.43 1539.37 L1109.26 1539.37 L1106.65 1550 L1116.77 1550 L1116.77 1554.87 L1105.41 1554.87 L1102.1 1568.04 L1097.01 1568.04 L1100.28 1554.87 L1090.96 1554.87 L1087.68 1568.04 L1082.56 1568.04 L1085.87 1554.87 L1075.84 1554.87 L1075.84 1550 L1087.04 1550 L1089.72 1539.37 L1079.47 1539.37 L1079.47 1534.46 L1090.96 1534.46 L1094.21 1521.26 L1099.36 1521.26 Z" fill="#000000" fill-rule="evenodd" fill-opacity="1"></path><path clip-path="url(#clip870)" d="M1184.95 1561.26 L1184.95 1548.5 L1174.45 1548.5 L1174.45 1543.22 L1191.31 1543.22 L1191.31 1563.62 Q1187.59 1566.26 1183.1 1567.63 Q1178.61 1568.97 1173.52 1568.97 Q1162.38 1568.97 1156.08 1562.47 Q1149.81 1555.95 1149.81 1544.33 Q1149.81 1532.68 1156.08 1526.19 Q1162.38 1519.66 1173.52 1519.66 Q1178.17 1519.66 1182.34 1520.81 Q1186.54 1521.96 1190.07 1524.18 L1190.07 1531.03 Q1186.51 1528 1182.5 1526.48 Q1178.49 1524.95 1174.06 1524.95 Q1165.34 1524.95 1160.95 1529.82 Q1156.59 1534.69 1156.59 1544.33 Q1156.59 1553.94 1160.95 1558.81 Q1165.34 1563.68 1174.06 1563.68 Q1177.47 1563.68 1180.14 1563.11 Q1182.82 1562.51 1184.95 1561.26 Z" fill="#000000" fill-rule="evenodd" fill-opacity="1"></path><path clip-path="url(#clip870)" d="M1223.46 1537.87 Q1222.47 1537.3 1221.3 1537.04 Q1220.15 1536.76 1218.75 1536.76 Q1213.79 1536.76 1211.11 1540 Q1208.47 1543.22 1208.47 1549.27 L1208.47 1568.04 L1202.58 1568.04 L1202.58 1532.4 L1208.47 1532.4 L1208.47 1537.93 Q1210.32 1534.69 1213.28 1533.13 Q1216.24 1531.54 1220.47 1531.54 Q1221.07 1531.54 1221.81 1531.63 Q1222.54 1531.7 1223.43 1531.85 L1223.46 1537.87 Z" fill="#000000" fill-rule="evenodd" fill-opacity="1"></path><path clip-path="url(#clip870)" d="M1229.6 1532.4 L1235.46 1532.4 L1235.46 1568.04 L1229.6 1568.04 L1229.6 1532.4 M1229.6 1518.52 L1235.46 1518.52 L1235.46 1525.93 L1229.6 1525.93 L1229.6 1518.52 Z" fill="#000000" fill-rule="evenodd" fill-opacity="1"></path><path clip-path="url(#clip870)" d="M1271.17 1537.81 L1271.17 1518.52 L1277.03 1518.52 L1277.03 1568.04 L1271.17 1568.04 L1271.17 1562.7 Q1269.33 1565.88 1266.49 1567.44 Q1263.69 1568.97 1259.75 1568.97 Q1253.28 1568.97 1249.21 1563.81 Q1245.17 1558.65 1245.17 1550.25 Q1245.17 1541.85 1249.21 1536.69 Q1253.28 1531.54 1259.75 1531.54 Q1263.69 1531.54 1266.49 1533.1 Q1269.33 1534.62 1271.17 1537.81 M1251.22 1550.25 Q1251.22 1556.71 1253.86 1560.4 Q1256.53 1564.07 1261.18 1564.07 Q1265.83 1564.07 1268.5 1560.4 Q1271.17 1556.71 1271.17 1550.25 Q1271.17 1543.79 1268.5 1540.13 Q1265.83 1536.44 1261.18 1536.44 Q1256.53 1536.44 1253.86 1540.13 Q1251.22 1543.79 1251.22 1550.25 Z" fill="#000000" fill-rule="evenodd" fill-opacity="1"></path><path clip-path="url(#clip870)" d="M1316.5 1525.81 L1316.5 1543.66 L1324.58 1543.66 Q1329.07 1543.66 1331.52 1541.34 Q1333.97 1539.02 1333.97 1534.72 Q1333.97 1530.45 1331.52 1528.13 Q1329.07 1525.81 1324.58 1525.81 L1316.5 1525.81 M1310.07 1520.52 L1324.58 1520.52 Q1332.57 1520.52 1336.64 1524.15 Q1340.75 1527.75 1340.75 1534.72 Q1340.75 1541.75 1336.64 1545.35 Q1332.57 1548.95 1324.58 1548.95 L1316.5 1548.95 L1316.5 1568.04 L1310.07 1568.04 L1310.07 1520.52 Z" fill="#000000" fill-rule="evenodd" fill-opacity="1"></path><path clip-path="url(#clip870)" d="M1360.61 1536.5 Q1355.9 1536.5 1353.16 1540.19 Q1350.43 1543.85 1350.43 1550.25 Q1350.43 1556.65 1353.13 1560.34 Q1355.87 1564 1360.61 1564 Q1365.29 1564 1368.03 1560.31 Q1370.76 1556.62 1370.76 1550.25 Q1370.76 1543.92 1368.03 1540.23 Q1365.29 1536.5 1360.61 1536.5 M1360.61 1531.54 Q1368.25 1531.54 1372.61 1536.5 Q1376.97 1541.47 1376.97 1550.25 Q1376.97 1559 1372.61 1564 Q1368.25 1568.97 1360.61 1568.97 Q1352.94 1568.97 1348.58 1564 Q1344.25 1559 1344.25 1550.25 Q1344.25 1541.47 1348.58 1536.5 Q1352.94 1531.54 1360.61 1531.54 Z" fill="#000000" fill-rule="evenodd" fill-opacity="1"></path><path clip-path="url(#clip870)" d="M1386.68 1532.4 L1392.53 1532.4 L1392.53 1568.04 L1386.68 1568.04 L1386.68 1532.4 M1386.68 1518.52 L1392.53 1518.52 L1392.53 1525.93 L1386.68 1525.93 L1386.68 1518.52 Z" fill="#000000" fill-rule="evenodd" fill-opacity="1"></path><path clip-path="url(#clip870)" d="M1434.42 1546.53 L1434.42 1568.04 L1428.56 1568.04 L1428.56 1546.72 Q1428.56 1541.66 1426.59 1539.14 Q1424.62 1536.63 1420.67 1536.63 Q1415.93 1536.63 1413.19 1539.65 Q1410.45 1542.68 1410.45 1547.9 L1410.45 1568.04 L1404.57 1568.04 L1404.57 1532.4 L1410.45 1532.4 L1410.45 1537.93 Q1412.55 1534.72 1415.39 1533.13 Q1418.25 1531.54 1421.98 1531.54 Q1428.12 1531.54 1431.27 1535.36 Q1434.42 1539.14 1434.42 1546.53 Z" fill="#000000" fill-rule="evenodd" fill-opacity="1"></path><path clip-path="url(#clip870)" d="M1451.89 1522.27 L1451.89 1532.4 L1463.96 1532.4 L1463.96 1536.95 L1451.89 1536.95 L1451.89 1556.3 Q1451.89 1560.66 1453.07 1561.9 Q1454.28 1563.14 1457.94 1563.14 L1463.96 1563.14 L1463.96 1568.04 L1457.94 1568.04 Q1451.16 1568.04 1448.58 1565.53 Q1446.01 1562.98 1446.01 1556.3 L1446.01 1536.95 L1441.71 1536.95 L1441.71 1532.4 L1446.01 1532.4 L1446.01 1522.27 L1451.89 1522.27 Z" fill="#000000" fill-rule="evenodd" fill-opacity="1"></path><path clip-path="url(#clip870)" d="M1494.39 1533.45 L1494.39 1538.98 Q1491.9 1537.71 1489.23 1537.07 Q1486.56 1536.44 1483.69 1536.44 Q1479.33 1536.44 1477.13 1537.77 Q1474.97 1539.11 1474.97 1541.79 Q1474.97 1543.82 1476.53 1545 Q1478.09 1546.15 1482.8 1547.2 L1484.81 1547.64 Q1491.04 1548.98 1493.65 1551.43 Q1496.3 1553.85 1496.3 1558.21 Q1496.3 1563.17 1492.35 1566.07 Q1488.43 1568.97 1481.56 1568.97 Q1478.69 1568.97 1475.58 1568.39 Q1472.49 1567.85 1469.05 1566.74 L1469.05 1560.69 Q1472.3 1562.38 1475.45 1563.24 Q1478.6 1564.07 1481.69 1564.07 Q1485.82 1564.07 1488.05 1562.66 Q1490.28 1561.23 1490.28 1558.65 Q1490.28 1556.27 1488.66 1554.99 Q1487.07 1553.72 1481.62 1552.54 L1479.59 1552.07 Q1474.14 1550.92 1471.72 1548.56 Q1469.3 1546.18 1469.3 1542.04 Q1469.3 1537.01 1472.87 1534.27 Q1476.43 1531.54 1482.99 1531.54 Q1486.24 1531.54 1489.1 1532.01 Q1491.97 1532.49 1494.39 1533.45 Z" fill="#000000" fill-rule="evenodd" fill-opacity="1"></path><polyline clip-path="url(#clip872)" style="stroke:#000000; stroke-linecap:round; stroke-linejoin:round; stroke-width:2; stroke-opacity:0.1; fill:none" points="
  219.38,1386.63 2352.76,1386.63 
  "></polyline>
<polyline clip-path="url(#clip872)" style="stroke:#000000; stroke-linecap:round; stroke-linejoin:round; stroke-width:2; stroke-opacity:0.1; fill:none" points="
  219.38,1165.95 2352.76,1165.95 
  "></polyline>
<polyline clip-path="url(#clip872)" style="stroke:#000000; stroke-linecap:round; stroke-linejoin:round; stroke-width:2; stroke-opacity:0.1; fill:none" points="
  219.38,945.277 2352.76,945.277 
  "></polyline>
<polyline clip-path="url(#clip872)" style="stroke:#000000; stroke-linecap:round; stroke-linejoin:round; stroke-width:2; stroke-opacity:0.1; fill:none" points="
  219.38,724.599 2352.76,724.599 
  "></polyline>
<polyline clip-path="url(#clip872)" style="stroke:#000000; stroke-linecap:round; stroke-linejoin:round; stroke-width:2; stroke-opacity:0.1; fill:none" points="
  219.38,503.922 2352.76,503.922 
  "></polyline>
<polyline clip-path="url(#clip872)" style="stroke:#000000; stroke-linecap:round; stroke-linejoin:round; stroke-width:2; stroke-opacity:0.1; fill:none" points="
  219.38,283.244 2352.76,283.244 
  "></polyline>
<polyline clip-path="url(#clip870)" style="stroke:#000000; stroke-linecap:round; stroke-linejoin:round; stroke-width:4; stroke-opacity:1; fill:none" points="
  219.38,1423.18 219.38,123.472 
  "></polyline>
<polyline clip-path="url(#clip870)" style="stroke:#000000; stroke-linecap:round; stroke-linejoin:round; stroke-width:4; stroke-opacity:1; fill:none" points="
  219.38,1386.63 238.278,1386.63 
  "></polyline>
<polyline clip-path="url(#clip870)" style="stroke:#000000; stroke-linecap:round; stroke-linejoin:round; stroke-width:4; stroke-opacity:1; fill:none" points="
  219.38,1165.95 238.278,1165.95 
  "></polyline>
<polyline clip-path="url(#clip870)" style="stroke:#000000; stroke-linecap:round; stroke-linejoin:round; stroke-width:4; stroke-opacity:1; fill:none" points="
  219.38,945.277 238.278,945.277 
  "></polyline>
<polyline clip-path="url(#clip870)" style="stroke:#000000; stroke-linecap:round; stroke-linejoin:round; stroke-width:4; stroke-opacity:1; fill:none" points="
  219.38,724.599 238.278,724.599 
  "></polyline>
<polyline clip-path="url(#clip870)" style="stroke:#000000; stroke-linecap:round; stroke-linejoin:round; stroke-width:4; stroke-opacity:1; fill:none" points="
  219.38,503.922 238.278,503.922 
  "></polyline>
<polyline clip-path="url(#clip870)" style="stroke:#000000; stroke-linecap:round; stroke-linejoin:round; stroke-width:4; stroke-opacity:1; fill:none" points="
  219.38,283.244 238.278,283.244 
  "></polyline>
<path clip-path="url(#clip870)" d="M126.205 1372.43 Q122.593 1372.43 120.765 1376 Q118.959 1379.54 118.959 1386.67 Q118.959 1393.77 120.765 1397.34 Q122.593 1400.88 126.205 1400.88 Q129.839 1400.88 131.644 1397.34 Q133.473 1393.77 133.473 1386.67 Q133.473 1379.54 131.644 1376 Q129.839 1372.43 126.205 1372.43 M126.205 1368.73 Q132.015 1368.73 135.07 1373.33 Q138.149 1377.92 138.149 1386.67 Q138.149 1395.39 135.07 1400 Q132.015 1404.58 126.205 1404.58 Q120.394 1404.58 117.316 1400 Q114.26 1395.39 114.26 1386.67 Q114.26 1377.92 117.316 1373.33 Q120.394 1368.73 126.205 1368.73 Z" fill="#000000" fill-rule="evenodd" fill-opacity="1"></path><path clip-path="url(#clip870)" d="M146.366 1398.03 L151.251 1398.03 L151.251 1403.91 L146.366 1403.91 L146.366 1398.03 Z" fill="#000000" fill-rule="evenodd" fill-opacity="1"></path><path clip-path="url(#clip870)" d="M171.436 1372.43 Q167.825 1372.43 165.996 1376 Q164.19 1379.54 164.19 1386.67 Q164.19 1393.77 165.996 1397.34 Q167.825 1400.88 171.436 1400.88 Q175.07 1400.88 176.876 1397.34 Q178.704 1393.77 178.704 1386.67 Q178.704 1379.54 176.876 1376 Q175.07 1372.43 171.436 1372.43 M171.436 1368.73 Q177.246 1368.73 180.301 1373.33 Q183.38 1377.92 183.38 1386.67 Q183.38 1395.39 180.301 1400 Q177.246 1404.58 171.436 1404.58 Q165.626 1404.58 162.547 1400 Q159.491 1395.39 159.491 1386.67 Q159.491 1377.92 162.547 1373.33 Q165.626 1368.73 171.436 1368.73 Z" fill="#000000" fill-rule="evenodd" fill-opacity="1"></path><path clip-path="url(#clip870)" d="M127.2 1151.75 Q123.589 1151.75 121.76 1155.32 Q119.955 1158.86 119.955 1165.99 Q119.955 1173.1 121.76 1176.66 Q123.589 1180.2 127.2 1180.2 Q130.834 1180.2 132.64 1176.66 Q134.468 1173.1 134.468 1165.99 Q134.468 1158.86 132.64 1155.32 Q130.834 1151.75 127.2 1151.75 M127.2 1148.05 Q133.01 1148.05 136.066 1152.66 Q139.144 1157.24 139.144 1165.99 Q139.144 1174.72 136.066 1179.32 Q133.01 1183.91 127.2 1183.91 Q121.39 1183.91 118.311 1179.32 Q115.256 1174.72 115.256 1165.99 Q115.256 1157.24 118.311 1152.66 Q121.39 1148.05 127.2 1148.05 Z" fill="#000000" fill-rule="evenodd" fill-opacity="1"></path><path clip-path="url(#clip870)" d="M147.362 1177.36 L152.246 1177.36 L152.246 1183.23 L147.362 1183.23 L147.362 1177.36 Z" fill="#000000" fill-rule="evenodd" fill-opacity="1"></path><path clip-path="url(#clip870)" d="M162.477 1148.67 L180.834 1148.67 L180.834 1152.61 L166.76 1152.61 L166.76 1161.08 Q167.778 1160.74 168.797 1160.57 Q169.815 1160.39 170.834 1160.39 Q176.621 1160.39 180.001 1163.56 Q183.38 1166.73 183.38 1172.15 Q183.38 1177.73 179.908 1180.83 Q176.436 1183.91 170.116 1183.91 Q167.94 1183.91 165.672 1183.54 Q163.427 1183.17 161.019 1182.42 L161.019 1177.73 Q163.102 1178.86 165.325 1179.42 Q167.547 1179.97 170.024 1179.97 Q174.028 1179.97 176.366 1177.86 Q178.704 1175.76 178.704 1172.15 Q178.704 1168.54 176.366 1166.43 Q174.028 1164.32 170.024 1164.32 Q168.149 1164.32 166.274 1164.74 Q164.422 1165.16 162.477 1166.04 L162.477 1148.67 Z" fill="#000000" fill-rule="evenodd" fill-opacity="1"></path><path clip-path="url(#clip870)" d="M117.015 958.622 L124.654 958.622 L124.654 932.256 L116.343 933.923 L116.343 929.664 L124.607 927.997 L129.283 927.997 L129.283 958.622 L136.922 958.622 L136.922 962.557 L117.015 962.557 L117.015 958.622 Z" fill="#000000" fill-rule="evenodd" fill-opacity="1"></path><path clip-path="url(#clip870)" d="M146.366 956.678 L151.251 956.678 L151.251 962.557 L146.366 962.557 L146.366 956.678 Z" fill="#000000" fill-rule="evenodd" fill-opacity="1"></path><path clip-path="url(#clip870)" d="M171.436 931.076 Q167.825 931.076 165.996 934.641 Q164.19 938.182 164.19 945.312 Q164.19 952.418 165.996 955.983 Q167.825 959.525 171.436 959.525 Q175.07 959.525 176.876 955.983 Q178.704 952.418 178.704 945.312 Q178.704 938.182 176.876 934.641 Q175.07 931.076 171.436 931.076 M171.436 927.372 Q177.246 927.372 180.301 931.979 Q183.38 936.562 183.38 945.312 Q183.38 954.039 180.301 958.645 Q177.246 963.228 171.436 963.228 Q165.626 963.228 162.547 958.645 Q159.491 954.039 159.491 945.312 Q159.491 936.562 162.547 931.979 Q165.626 927.372 171.436 927.372 Z" fill="#000000" fill-rule="evenodd" fill-opacity="1"></path><path clip-path="url(#clip870)" d="M118.01 737.944 L125.649 737.944 L125.649 711.579 L117.339 713.245 L117.339 708.986 L125.603 707.319 L130.279 707.319 L130.279 737.944 L137.917 737.944 L137.917 741.879 L118.01 741.879 L118.01 737.944 Z" fill="#000000" fill-rule="evenodd" fill-opacity="1"></path><path clip-path="url(#clip870)" d="M147.362 736 L152.246 736 L152.246 741.879 L147.362 741.879 L147.362 736 Z" fill="#000000" fill-rule="evenodd" fill-opacity="1"></path><path clip-path="url(#clip870)" d="M162.477 707.319 L180.834 707.319 L180.834 711.255 L166.76 711.255 L166.76 719.727 Q167.778 719.38 168.797 719.218 Q169.815 719.032 170.834 719.032 Q176.621 719.032 180.001 722.204 Q183.38 725.375 183.38 730.792 Q183.38 736.37 179.908 739.472 Q176.436 742.551 170.116 742.551 Q167.94 742.551 165.672 742.18 Q163.427 741.81 161.019 741.069 L161.019 736.37 Q163.102 737.504 165.325 738.06 Q167.547 738.616 170.024 738.616 Q174.028 738.616 176.366 736.509 Q178.704 734.403 178.704 730.792 Q178.704 727.18 176.366 725.074 Q174.028 722.967 170.024 722.967 Q168.149 722.967 166.274 723.384 Q164.422 723.801 162.477 724.68 L162.477 707.319 Z" fill="#000000" fill-rule="evenodd" fill-opacity="1"></path><path clip-path="url(#clip870)" d="M120.232 517.267 L136.552 517.267 L136.552 521.202 L114.607 521.202 L114.607 517.267 Q117.269 514.512 121.853 509.882 Q126.459 505.23 127.64 503.887 Q129.885 501.364 130.765 499.628 Q131.667 497.868 131.667 496.179 Q131.667 493.424 129.723 491.688 Q127.802 489.952 124.7 489.952 Q122.501 489.952 120.047 490.716 Q117.617 491.48 114.839 493.031 L114.839 488.308 Q117.663 487.174 120.117 486.595 Q122.57 486.017 124.607 486.017 Q129.978 486.017 133.172 488.702 Q136.367 491.387 136.367 495.878 Q136.367 498.007 135.556 499.929 Q134.769 501.827 132.663 504.419 Q132.084 505.091 128.982 508.308 Q125.88 511.503 120.232 517.267 Z" fill="#000000" fill-rule="evenodd" fill-opacity="1"></path><path clip-path="url(#clip870)" d="M146.366 515.322 L151.251 515.322 L151.251 521.202 L146.366 521.202 L146.366 515.322 Z" fill="#000000" fill-rule="evenodd" fill-opacity="1"></path><path clip-path="url(#clip870)" d="M171.436 489.72 Q167.825 489.72 165.996 493.285 Q164.19 496.827 164.19 503.956 Q164.19 511.063 165.996 514.628 Q167.825 518.169 171.436 518.169 Q175.07 518.169 176.876 514.628 Q178.704 511.063 178.704 503.956 Q178.704 496.827 176.876 493.285 Q175.07 489.72 171.436 489.72 M171.436 486.017 Q177.246 486.017 180.301 490.623 Q183.38 495.206 183.38 503.956 Q183.38 512.683 180.301 517.29 Q177.246 521.873 171.436 521.873 Q165.626 521.873 162.547 517.29 Q159.491 512.683 159.491 503.956 Q159.491 495.206 162.547 490.623 Q165.626 486.017 171.436 486.017 Z" fill="#000000" fill-rule="evenodd" fill-opacity="1"></path><path clip-path="url(#clip870)" d="M121.228 296.589 L137.547 296.589 L137.547 300.524 L115.603 300.524 L115.603 296.589 Q118.265 293.834 122.848 289.205 Q127.455 284.552 128.635 283.209 Q130.88 280.686 131.76 278.95 Q132.663 277.191 132.663 275.501 Q132.663 272.746 130.718 271.01 Q128.797 269.274 125.695 269.274 Q123.496 269.274 121.043 270.038 Q118.612 270.802 115.834 272.353 L115.834 267.631 Q118.658 266.496 121.112 265.918 Q123.566 265.339 125.603 265.339 Q130.973 265.339 134.167 268.024 Q137.362 270.709 137.362 275.2 Q137.362 277.33 136.552 279.251 Q135.765 281.149 133.658 283.742 Q133.08 284.413 129.978 287.63 Q126.876 290.825 121.228 296.589 Z" fill="#000000" fill-rule="evenodd" fill-opacity="1"></path><path clip-path="url(#clip870)" d="M147.362 294.644 L152.246 294.644 L152.246 300.524 L147.362 300.524 L147.362 294.644 Z" fill="#000000" fill-rule="evenodd" fill-opacity="1"></path><path clip-path="url(#clip870)" d="M162.477 265.964 L180.834 265.964 L180.834 269.899 L166.76 269.899 L166.76 278.371 Q167.778 278.024 168.797 277.862 Q169.815 277.677 170.834 277.677 Q176.621 277.677 180.001 280.848 Q183.38 284.019 183.38 289.436 Q183.38 295.015 179.908 298.117 Q176.436 301.195 170.116 301.195 Q167.94 301.195 165.672 300.825 Q163.427 300.454 161.019 299.714 L161.019 295.015 Q163.102 296.149 165.325 296.704 Q167.547 297.26 170.024 297.26 Q174.028 297.26 176.366 295.154 Q178.704 293.047 178.704 289.436 Q178.704 285.825 176.366 283.718 Q174.028 281.612 170.024 281.612 Q168.149 281.612 166.274 282.029 Q164.422 282.445 162.477 283.325 L162.477 265.964 Z" fill="#000000" fill-rule="evenodd" fill-opacity="1"></path><path clip-path="url(#clip870)" d="M20.1444 1084.24 L26.9239 1084.24 Q23.9002 1087.49 22.4043 1091.18 Q20.9083 1094.84 20.9083 1098.98 Q20.9083 1107.13 25.9054 1111.46 Q30.8707 1115.79 40.2919 1115.79 Q49.6813 1115.79 54.6784 1111.46 Q59.6436 1107.13 59.6436 1098.98 Q59.6436 1094.84 58.1477 1091.18 Q56.6518 1087.49 53.6281 1084.24 L60.3439 1084.24 Q62.6355 1087.62 63.7814 1091.4 Q64.9272 1095.16 64.9272 1099.36 Q64.9272 1110.15 58.3387 1116.36 Q51.7183 1122.56 40.2919 1122.56 Q28.8336 1122.56 22.2451 1116.36 Q15.6248 1110.15 15.6248 1099.36 Q15.6248 1095.1 16.7706 1091.34 Q17.8846 1087.55 20.1444 1084.24 Z" fill="#000000" fill-rule="evenodd" fill-opacity="1"></path><path clip-path="url(#clip870)" d="M32.4621 1060.75 Q32.4621 1065.46 36.1542 1068.2 Q39.8145 1070.94 46.212 1070.94 Q52.6095 1070.94 56.3017 1068.23 Q59.9619 1065.5 59.9619 1060.75 Q59.9619 1056.07 56.2698 1053.34 Q52.5777 1050.6 46.212 1050.6 Q39.8781 1050.6 36.186 1053.34 Q32.4621 1056.07 32.4621 1060.75 M27.4968 1060.75 Q27.4968 1053.11 32.4621 1048.75 Q37.4273 1044.39 46.212 1044.39 Q54.9649 1044.39 59.9619 1048.75 Q64.9272 1053.11 64.9272 1060.75 Q64.9272 1068.42 59.9619 1072.78 Q54.9649 1077.11 46.212 1077.11 Q37.4273 1077.11 32.4621 1072.78 Q27.4968 1068.42 27.4968 1060.75 Z" fill="#000000" fill-rule="evenodd" fill-opacity="1"></path><path clip-path="url(#clip870)" d="M35.1993 1006.93 Q31.2526 1004.74 29.3747 1001.68 Q27.4968 998.624 27.4968 994.487 Q27.4968 988.917 31.4117 985.893 Q35.2948 982.869 42.4881 982.869 L64.0042 982.869 L64.0042 988.757 L42.679 988.757 Q37.5546 988.757 35.072 990.572 Q32.5894 992.386 32.5894 996.11 Q32.5894 1000.66 35.6131 1003.3 Q38.6368 1005.94 43.8567 1005.94 L64.0042 1005.94 L64.0042 1011.83 L42.679 1011.83 Q37.5228 1011.83 35.072 1013.65 Q32.5894 1015.46 32.5894 1019.25 Q32.5894 1023.74 35.6449 1026.38 Q38.6686 1029.02 43.8567 1029.02 L64.0042 1029.02 L64.0042 1034.91 L28.3562 1034.91 L28.3562 1029.02 L33.8944 1029.02 Q30.616 1027.02 29.0564 1024.21 Q27.4968 1021.41 27.4968 1017.56 Q27.4968 1013.68 29.4702 1010.97 Q31.4436 1008.24 35.1993 1006.93 Z" fill="#000000" fill-rule="evenodd" fill-opacity="1"></path><path clip-path="url(#clip870)" d="M58.657 965.523 L77.5631 965.523 L77.5631 971.411 L28.3562 971.411 L28.3562 965.523 L33.7671 965.523 Q30.5842 963.677 29.0564 960.876 Q27.4968 958.043 27.4968 954.128 Q27.4968 947.635 32.6531 943.593 Q37.8093 939.519 46.212 939.519 Q54.6147 939.519 59.771 943.593 Q64.9272 947.635 64.9272 954.128 Q64.9272 958.043 63.3994 960.876 Q61.8398 963.677 58.657 965.523 M46.212 945.598 Q39.7508 945.598 36.0905 948.272 Q32.3984 950.913 32.3984 955.56 Q32.3984 960.207 36.0905 962.881 Q39.7508 965.523 46.212 965.523 Q52.6732 965.523 56.3653 962.881 Q60.0256 960.207 60.0256 955.56 Q60.0256 950.913 56.3653 948.272 Q52.6732 945.598 46.212 945.598 Z" fill="#000000" fill-rule="evenodd" fill-opacity="1"></path><path clip-path="url(#clip870)" d="M49.9359 930.416 L28.3562 930.416 L28.3562 924.559 L49.7131 924.559 Q54.7739 924.559 57.3202 922.586 Q59.8346 920.613 59.8346 916.666 Q59.8346 911.923 56.8109 909.186 Q53.7872 906.417 48.5673 906.417 L28.3562 906.417 L28.3562 900.561 L64.0042 900.561 L64.0042 906.417 L58.5296 906.417 Q61.7762 908.55 63.3676 911.382 Q64.9272 914.183 64.9272 917.907 Q64.9272 924.05 61.1078 927.233 Q57.2883 930.416 49.9359 930.416 M27.4968 915.679 L27.4968 915.679 Z" fill="#000000" fill-rule="evenodd" fill-opacity="1"></path><path clip-path="url(#clip870)" d="M18.2347 882.705 L28.3562 882.705 L28.3562 870.642 L32.9077 870.642 L32.9077 882.705 L52.2594 882.705 Q56.6199 882.705 57.8613 881.527 Q59.1026 880.318 59.1026 876.657 L59.1026 870.642 L64.0042 870.642 L64.0042 876.657 Q64.0042 883.437 61.4897 886.015 Q58.9434 888.593 52.2594 888.593 L32.9077 888.593 L32.9077 892.89 L28.3562 892.89 L28.3562 888.593 L18.2347 888.593 L18.2347 882.705 Z" fill="#000000" fill-rule="evenodd" fill-opacity="1"></path><path clip-path="url(#clip870)" d="M46.0847 846.738 Q46.0847 853.836 47.7079 856.574 Q49.3312 859.311 53.2461 859.311 Q56.3653 859.311 58.2114 857.274 Q60.0256 855.205 60.0256 851.672 Q60.0256 846.802 56.5881 843.874 Q53.1188 840.914 47.3897 840.914 L46.0847 840.914 L46.0847 846.738 M43.6657 835.057 L64.0042 835.057 L64.0042 840.914 L58.5933 840.914 Q61.8398 842.919 63.3994 845.911 Q64.9272 848.903 64.9272 853.232 Q64.9272 858.706 61.8716 861.953 Q58.7843 865.167 53.6281 865.167 Q47.6125 865.167 44.5569 861.157 Q41.5014 857.115 41.5014 849.126 L41.5014 840.914 L40.9285 840.914 Q36.8862 840.914 34.6901 843.587 Q32.4621 846.229 32.4621 851.035 Q32.4621 854.091 33.1941 856.987 Q33.9262 859.884 35.3903 862.557 L29.9795 862.557 Q28.7381 859.343 28.1334 856.319 Q27.4968 853.295 27.4968 850.431 Q27.4968 842.696 31.5072 838.877 Q35.5176 835.057 43.6657 835.057 Z" fill="#000000" fill-rule="evenodd" fill-opacity="1"></path><path clip-path="url(#clip870)" d="M18.2347 817.202 L28.3562 817.202 L28.3562 805.139 L32.9077 805.139 L32.9077 817.202 L52.2594 817.202 Q56.6199 817.202 57.8613 816.024 Q59.1026 814.814 59.1026 811.154 L59.1026 805.139 L64.0042 805.139 L64.0042 811.154 Q64.0042 817.934 61.4897 820.512 Q58.9434 823.09 52.2594 823.09 L32.9077 823.09 L32.9077 827.387 L28.3562 827.387 L28.3562 823.09 L18.2347 823.09 L18.2347 817.202 Z" fill="#000000" fill-rule="evenodd" fill-opacity="1"></path><path clip-path="url(#clip870)" d="M28.3562 797.436 L28.3562 791.58 L64.0042 791.58 L64.0042 797.436 L28.3562 797.436 M14.479 797.436 L14.479 791.58 L21.895 791.58 L21.895 797.436 L14.479 797.436 Z" fill="#000000" fill-rule="evenodd" fill-opacity="1"></path><path clip-path="url(#clip870)" d="M32.4621 765.512 Q32.4621 770.223 36.1542 772.96 Q39.8145 775.697 46.212 775.697 Q52.6095 775.697 56.3017 772.992 Q59.9619 770.255 59.9619 765.512 Q59.9619 760.833 56.2698 758.096 Q52.5777 755.359 46.212 755.359 Q39.8781 755.359 36.186 758.096 Q32.4621 760.833 32.4621 765.512 M27.4968 765.512 Q27.4968 757.873 32.4621 753.513 Q37.4273 749.152 46.212 749.152 Q54.9649 749.152 59.9619 753.513 Q64.9272 757.873 64.9272 765.512 Q64.9272 773.183 59.9619 777.543 Q54.9649 781.872 46.212 781.872 Q37.4273 781.872 32.4621 777.543 Q27.4968 773.183 27.4968 765.512 Z" fill="#000000" fill-rule="evenodd" fill-opacity="1"></path><path clip-path="url(#clip870)" d="M42.4881 709.812 L64.0042 709.812 L64.0042 715.669 L42.679 715.669 Q37.6183 715.669 35.1038 717.642 Q32.5894 719.615 32.5894 723.562 Q32.5894 728.305 35.6131 731.042 Q38.6368 733.779 43.8567 733.779 L64.0042 733.779 L64.0042 739.667 L28.3562 739.667 L28.3562 733.779 L33.8944 733.779 Q30.6797 731.678 29.0883 728.846 Q27.4968 725.981 27.4968 722.257 Q27.4968 716.114 31.3163 712.963 Q35.1038 709.812 42.4881 709.812 Z" fill="#000000" fill-rule="evenodd" fill-opacity="1"></path><path clip-path="url(#clip870)" d="M16.4842 683.745 L16.4842 643.545 L21.895 643.545 L21.895 660.414 L64.0042 660.414 L64.0042 666.875 L21.895 666.875 L21.895 683.745 L16.4842 683.745 Z" fill="#000000" fill-rule="evenodd" fill-opacity="1"></path><path clip-path="url(#clip870)" d="M28.3562 639.598 L28.3562 633.742 L64.0042 633.742 L64.0042 639.598 L28.3562 639.598 M14.479 639.598 L14.479 633.742 L21.895 633.742 L21.895 639.598 L14.479 639.598 Z" fill="#000000" fill-rule="evenodd" fill-opacity="1"></path><path clip-path="url(#clip870)" d="M35.1993 593.733 Q31.2526 591.537 29.3747 588.482 Q27.4968 585.426 27.4968 581.289 Q27.4968 575.719 31.4117 572.695 Q35.2948 569.671 42.4881 569.671 L64.0042 569.671 L64.0042 575.559 L42.679 575.559 Q37.5546 575.559 35.072 577.374 Q32.5894 579.188 32.5894 582.912 Q32.5894 587.463 35.6131 590.105 Q38.6368 592.747 43.8567 592.747 L64.0042 592.747 L64.0042 598.635 L42.679 598.635 Q37.5228 598.635 35.072 600.449 Q32.5894 602.264 32.5894 606.051 Q32.5894 610.539 35.6449 613.181 Q38.6686 615.822 43.8567 615.822 L64.0042 615.822 L64.0042 621.711 L28.3562 621.711 L28.3562 615.822 L33.8944 615.822 Q30.616 613.817 29.0564 611.016 Q27.4968 608.215 27.4968 604.364 Q27.4968 600.481 29.4702 597.776 Q31.4436 595.038 35.1993 593.733 Z" fill="#000000" fill-rule="evenodd" fill-opacity="1"></path><path clip-path="url(#clip870)" d="M44.7161 527.498 L47.5806 527.498 L47.5806 554.425 Q53.6281 554.043 56.8109 550.797 Q59.9619 547.518 59.9619 541.694 Q59.9619 538.32 59.1344 535.169 Q58.3069 531.986 56.6518 528.867 L62.1899 528.867 Q63.5267 532.018 64.227 535.328 Q64.9272 538.638 64.9272 542.044 Q64.9272 550.574 59.9619 555.571 Q54.9967 560.536 46.5303 560.536 Q37.7774 560.536 32.6531 555.826 Q27.4968 551.083 27.4968 543.062 Q27.4968 535.869 32.1438 531.7 Q36.7589 527.498 44.7161 527.498 M42.9973 533.355 Q38.1912 533.418 35.3266 536.06 Q32.4621 538.67 32.4621 542.999 Q32.4621 547.9 35.2312 550.86 Q38.0002 553.789 43.0292 554.234 L42.9973 533.355 Z" fill="#000000" fill-rule="evenodd" fill-opacity="1"></path><path clip-path="url(#clip870)" d="M14.479 497.707 L14.479 484.212 L19.0304 484.212 L19.0304 491.85 L68.0464 491.85 L68.0464 484.212 L72.5979 484.212 L72.5979 497.707 L14.479 497.707 Z" fill="#000000" fill-rule="evenodd" fill-opacity="1"></path><path clip-path="url(#clip870)" d="M29.4065 449.009 L34.9447 449.009 Q33.6716 451.492 33.035 454.165 Q32.3984 456.839 32.3984 459.704 Q32.3984 464.064 33.7352 466.26 Q35.072 468.425 37.7456 468.425 Q39.7826 468.425 40.9603 466.865 Q42.1061 465.305 43.1565 460.595 L43.6021 458.59 Q44.9389 452.351 47.3897 449.741 Q49.8086 447.099 54.1691 447.099 Q59.1344 447.099 62.0308 451.046 Q64.9272 454.961 64.9272 461.836 Q64.9272 464.701 64.3543 467.82 Q63.8132 470.907 62.6992 474.345 L56.6518 474.345 Q58.3387 471.098 59.198 467.947 Q60.0256 464.796 60.0256 461.709 Q60.0256 457.571 58.6251 455.343 Q57.1929 453.115 54.6147 453.115 Q52.2276 453.115 50.9545 454.738 Q49.6813 456.33 48.5037 461.772 L48.0262 463.809 Q46.8804 469.252 44.5251 471.671 Q42.138 474.09 38.0002 474.09 Q32.9713 474.09 30.2341 470.525 Q27.4968 466.96 27.4968 460.404 Q27.4968 457.157 27.9743 454.293 Q28.4517 451.428 29.4065 449.009 Z" fill="#000000" fill-rule="evenodd" fill-opacity="1"></path><path clip-path="url(#clip870)" d="M14.479 424.087 L72.5979 424.087 L72.5979 437.583 L68.0464 437.583 L68.0464 429.976 L19.0304 429.976 L19.0304 437.583 L14.479 437.583 L14.479 424.087 Z" fill="#000000" fill-rule="evenodd" fill-opacity="1"></path><path clip-path="url(#clip870)" d="M612.585 16.7545 L612.585 25.383 Q608.453 21.5346 603.754 19.6307 Q599.095 17.7268 593.829 17.7268 Q583.459 17.7268 577.95 24.0867 Q572.44 30.4061 572.44 42.3968 Q572.44 54.3469 577.95 60.7069 Q583.459 67.0263 593.829 67.0263 Q599.095 67.0263 603.754 65.1223 Q608.453 63.2184 612.585 59.3701 L612.585 67.9175 Q608.291 70.8341 603.47 72.2924 Q598.69 73.7508 593.343 73.7508 Q579.611 73.7508 571.711 65.3654 Q563.812 56.9395 563.812 42.3968 Q563.812 27.8135 571.711 19.4281 Q579.611 11.0023 593.343 11.0023 Q598.771 11.0023 603.551 12.4606 Q608.372 13.8784 612.585 16.7545 Z" fill="#000000" fill-rule="evenodd" fill-opacity="1"></path><path clip-path="url(#clip870)" d="M642.481 32.4315 Q636.485 32.4315 633.002 37.1306 Q629.518 41.7891 629.518 49.9314 Q629.518 58.0738 632.961 62.7728 Q636.445 67.4314 642.481 67.4314 Q648.435 67.4314 651.919 62.7323 Q655.403 58.0333 655.403 49.9314 Q655.403 41.8701 651.919 37.1711 Q648.435 32.4315 642.481 32.4315 M642.481 26.1121 Q652.203 26.1121 657.753 32.4315 Q663.302 38.7509 663.302 49.9314 Q663.302 61.0714 657.753 67.4314 Q652.203 73.7508 642.481 73.7508 Q632.718 73.7508 627.168 67.4314 Q621.659 61.0714 621.659 49.9314 Q621.659 38.7509 627.168 32.4315 Q632.718 26.1121 642.481 26.1121 Z" fill="#000000" fill-rule="evenodd" fill-opacity="1"></path><path clip-path="url(#clip870)" d="M710.981 35.9153 Q713.777 30.8922 717.665 28.5022 Q721.554 26.1121 726.82 26.1121 Q733.91 26.1121 737.758 31.0947 Q741.606 36.0368 741.606 45.1919 L741.606 72.576 L734.112 72.576 L734.112 45.4349 Q734.112 38.913 731.803 35.7533 Q729.494 32.5936 724.754 32.5936 Q718.962 32.5936 715.599 36.4419 Q712.237 40.2903 712.237 46.9338 L712.237 72.576 L704.743 72.576 L704.743 45.4349 Q704.743 38.8725 702.434 35.7533 Q700.125 32.5936 695.304 32.5936 Q689.593 32.5936 686.23 36.4824 Q682.868 40.3308 682.868 46.9338 L682.868 72.576 L675.374 72.576 L675.374 27.2059 L682.868 27.2059 L682.868 34.2544 Q685.42 30.082 688.985 28.0971 Q692.55 26.1121 697.451 26.1121 Q702.393 26.1121 705.837 28.6237 Q709.321 31.1352 710.981 35.9153 Z" fill="#000000" fill-rule="evenodd" fill-opacity="1"></path><path clip-path="url(#clip870)" d="M763.684 65.7705 L763.684 89.8329 L756.19 89.8329 L756.19 27.2059 L763.684 27.2059 L763.684 34.0924 Q766.033 30.0415 769.598 28.0971 Q773.203 26.1121 778.186 26.1121 Q786.45 26.1121 791.594 32.6746 Q796.78 39.2371 796.78 49.9314 Q796.78 60.6258 791.594 67.1883 Q786.45 73.7508 778.186 73.7508 Q773.203 73.7508 769.598 71.8063 Q766.033 69.8214 763.684 65.7705 M789.042 49.9314 Q789.042 41.7081 785.64 37.0496 Q782.277 32.3505 776.363 32.3505 Q770.449 32.3505 767.046 37.0496 Q763.684 41.7081 763.684 49.9314 Q763.684 58.1548 767.046 62.8538 Q770.449 67.5124 776.363 67.5124 Q782.277 67.5124 785.64 62.8538 Q789.042 58.1548 789.042 49.9314 Z" fill="#000000" fill-rule="evenodd" fill-opacity="1"></path><path clip-path="url(#clip870)" d="M829.754 49.7694 Q820.72 49.7694 817.237 51.8354 Q813.753 53.9013 813.753 58.8839 Q813.753 62.8538 816.345 65.2034 Q818.979 67.5124 823.475 67.5124 Q829.673 67.5124 833.4 63.1374 Q837.167 58.7219 837.167 51.4303 L837.167 49.7694 L829.754 49.7694 M844.621 46.6907 L844.621 72.576 L837.167 72.576 L837.167 65.6895 Q834.615 69.8214 830.807 71.8063 Q826.999 73.7508 821.49 73.7508 Q814.523 73.7508 810.391 69.8619 Q806.299 65.9325 806.299 59.3701 Q806.299 51.7138 811.403 47.825 Q816.548 43.9361 826.716 43.9361 L837.167 43.9361 L837.167 43.2069 Q837.167 38.0623 833.764 35.2672 Q830.402 32.4315 824.285 32.4315 Q820.396 32.4315 816.71 33.3632 Q813.024 34.295 809.621 36.1584 L809.621 29.2718 Q813.712 27.692 817.561 26.9223 Q821.409 26.1121 825.055 26.1121 Q834.899 26.1121 839.76 31.2163 Q844.621 36.3204 844.621 46.6907 Z" fill="#000000" fill-rule="evenodd" fill-opacity="1"></path><path clip-path="url(#clip870)" d="M886.264 34.1734 Q885.008 33.4443 883.509 33.1202 Q882.051 32.7556 880.269 32.7556 Q873.949 32.7556 870.547 36.8875 Q867.184 40.9789 867.184 48.6757 L867.184 72.576 L859.69 72.576 L859.69 27.2059 L867.184 27.2059 L867.184 34.2544 Q869.534 30.1225 873.301 28.1376 Q877.068 26.1121 882.456 26.1121 Q883.226 26.1121 884.158 26.2337 Q885.089 26.3147 886.224 26.5172 L886.264 34.1734 Z" fill="#000000" fill-rule="evenodd" fill-opacity="1"></path><path clip-path="url(#clip870)" d="M894.082 27.2059 L901.536 27.2059 L901.536 72.576 L894.082 72.576 L894.082 27.2059 M894.082 9.54393 L901.536 9.54393 L901.536 18.9825 L894.082 18.9825 L894.082 9.54393 Z" fill="#000000" fill-rule="evenodd" fill-opacity="1"></path><path clip-path="url(#clip870)" d="M946.055 28.5427 L946.055 35.5912 Q942.896 33.9709 939.493 33.1607 Q936.09 32.3505 932.444 32.3505 Q926.895 32.3505 924.099 34.0519 Q921.345 35.7533 921.345 39.156 Q921.345 41.7486 923.33 43.2475 Q925.315 44.7058 931.31 46.0426 L933.862 46.6097 Q941.802 48.3111 945.124 51.4303 Q948.486 54.509 948.486 60.0587 Q948.486 66.3781 943.463 70.0644 Q938.48 73.7508 929.73 73.7508 Q926.084 73.7508 922.115 73.0216 Q918.185 72.3329 913.81 70.9151 L913.81 63.2184 Q917.942 65.3654 921.953 66.4591 Q925.963 67.5124 929.892 67.5124 Q935.158 67.5124 937.994 65.73 Q940.83 63.9071 940.83 60.6258 Q940.83 57.5877 938.764 55.9673 Q936.738 54.3469 929.811 52.8481 L927.219 52.2405 Q920.292 50.7821 917.213 47.7845 Q914.134 44.7463 914.134 39.4801 Q914.134 33.0797 918.671 29.5959 Q923.208 26.1121 931.553 26.1121 Q935.685 26.1121 939.331 26.7198 Q942.977 27.3274 946.055 28.5427 Z" fill="#000000" fill-rule="evenodd" fill-opacity="1"></path><path clip-path="url(#clip870)" d="M977.936 32.4315 Q971.941 32.4315 968.457 37.1306 Q964.973 41.7891 964.973 49.9314 Q964.973 58.0738 968.416 62.7728 Q971.9 67.4314 977.936 67.4314 Q983.891 67.4314 987.375 62.7323 Q990.858 58.0333 990.858 49.9314 Q990.858 41.8701 987.375 37.1711 Q983.891 32.4315 977.936 32.4315 M977.936 26.1121 Q987.658 26.1121 993.208 32.4315 Q998.758 38.7509 998.758 49.9314 Q998.758 61.0714 993.208 67.4314 Q987.658 73.7508 977.936 73.7508 Q968.173 73.7508 962.624 67.4314 Q957.114 61.0714 957.114 49.9314 Q957.114 38.7509 962.624 32.4315 Q968.173 26.1121 977.936 26.1121 Z" fill="#000000" fill-rule="evenodd" fill-opacity="1"></path><path clip-path="url(#clip870)" d="M1048.83 45.1919 L1048.83 72.576 L1041.37 72.576 L1041.37 45.4349 Q1041.37 38.994 1038.86 35.7938 Q1036.35 32.5936 1031.33 32.5936 Q1025.29 32.5936 1021.81 36.4419 Q1018.32 40.2903 1018.32 46.9338 L1018.32 72.576 L1010.83 72.576 L1010.83 27.2059 L1018.32 27.2059 L1018.32 34.2544 Q1021 30.163 1024.6 28.1376 Q1028.25 26.1121 1032.99 26.1121 Q1040.81 26.1121 1044.82 30.9732 Q1048.83 35.7938 1048.83 45.1919 Z" fill="#000000" fill-rule="evenodd" fill-opacity="1"></path><path clip-path="url(#clip870)" d="M1107.65 32.4315 Q1101.65 32.4315 1098.17 37.1306 Q1094.68 41.7891 1094.68 49.9314 Q1094.68 58.0738 1098.13 62.7728 Q1101.61 67.4314 1107.65 67.4314 Q1113.6 67.4314 1117.08 62.7323 Q1120.57 58.0333 1120.57 49.9314 Q1120.57 41.8701 1117.08 37.1711 Q1113.6 32.4315 1107.65 32.4315 M1107.65 26.1121 Q1117.37 26.1121 1122.92 32.4315 Q1128.47 38.7509 1128.47 49.9314 Q1128.47 61.0714 1122.92 67.4314 Q1117.37 73.7508 1107.65 73.7508 Q1097.88 73.7508 1092.33 67.4314 Q1086.82 61.0714 1086.82 49.9314 Q1086.82 38.7509 1092.33 32.4315 Q1097.88 26.1121 1107.65 26.1121 Z" fill="#000000" fill-rule="evenodd" fill-opacity="1"></path><path clip-path="url(#clip870)" d="M1163.79 9.54393 L1163.79 15.7418 L1156.66 15.7418 Q1152.65 15.7418 1151.07 17.3622 Q1149.53 18.9825 1149.53 23.1955 L1149.53 27.2059 L1161.81 27.2059 L1161.81 32.9987 L1149.53 32.9987 L1149.53 72.576 L1142.04 72.576 L1142.04 32.9987 L1134.91 32.9987 L1134.91 27.2059 L1142.04 27.2059 L1142.04 24.0462 Q1142.04 16.471 1145.56 13.0277 Q1149.09 9.54393 1156.74 9.54393 L1163.79 9.54393 Z" fill="#000000" fill-rule="evenodd" fill-opacity="1"></path><path clip-path="url(#clip870)" d="M1242.01 16.7545 L1242.01 25.383 Q1237.88 21.5346 1233.18 19.6307 Q1228.52 17.7268 1223.26 17.7268 Q1212.89 17.7268 1207.38 24.0867 Q1201.87 30.4061 1201.87 42.3968 Q1201.87 54.3469 1207.38 60.7069 Q1212.89 67.0263 1223.26 67.0263 Q1228.52 67.0263 1233.18 65.1223 Q1237.88 63.2184 1242.01 59.3701 L1242.01 67.9175 Q1237.72 70.8341 1232.9 72.2924 Q1228.12 73.7508 1222.77 73.7508 Q1209.04 73.7508 1201.14 65.3654 Q1193.24 56.9395 1193.24 42.3968 Q1193.24 27.8135 1201.14 19.4281 Q1209.04 11.0023 1222.77 11.0023 Q1228.2 11.0023 1232.98 12.4606 Q1237.8 13.8784 1242.01 16.7545 Z" fill="#000000" fill-rule="evenodd" fill-opacity="1"></path><path clip-path="url(#clip870)" d="M1271.91 32.4315 Q1265.91 32.4315 1262.43 37.1306 Q1258.95 41.7891 1258.95 49.9314 Q1258.95 58.0738 1262.39 62.7728 Q1265.87 67.4314 1271.91 67.4314 Q1277.86 67.4314 1281.35 62.7323 Q1284.83 58.0333 1284.83 49.9314 Q1284.83 41.8701 1281.35 37.1711 Q1277.86 32.4315 1271.91 32.4315 M1271.91 26.1121 Q1281.63 26.1121 1287.18 32.4315 Q1292.73 38.7509 1292.73 49.9314 Q1292.73 61.0714 1287.18 67.4314 Q1281.63 73.7508 1271.91 73.7508 Q1262.15 73.7508 1256.6 67.4314 Q1251.09 61.0714 1251.09 49.9314 Q1251.09 38.7509 1256.6 32.4315 Q1262.15 26.1121 1271.91 26.1121 Z" fill="#000000" fill-rule="evenodd" fill-opacity="1"></path><path clip-path="url(#clip870)" d="M1340.41 35.9153 Q1343.21 30.8922 1347.09 28.5022 Q1350.98 26.1121 1356.25 26.1121 Q1363.34 26.1121 1367.19 31.0947 Q1371.04 36.0368 1371.04 45.1919 L1371.04 72.576 L1363.54 72.576 L1363.54 45.4349 Q1363.54 38.913 1361.23 35.7533 Q1358.92 32.5936 1354.18 32.5936 Q1348.39 32.5936 1345.03 36.4419 Q1341.67 40.2903 1341.67 46.9338 L1341.67 72.576 L1334.17 72.576 L1334.17 45.4349 Q1334.17 38.8725 1331.86 35.7533 Q1329.55 32.5936 1324.73 32.5936 Q1319.02 32.5936 1315.66 36.4824 Q1312.3 40.3308 1312.3 46.9338 L1312.3 72.576 L1304.8 72.576 L1304.8 27.2059 L1312.3 27.2059 L1312.3 34.2544 Q1314.85 30.082 1318.41 28.0971 Q1321.98 26.1121 1326.88 26.1121 Q1331.82 26.1121 1335.27 28.6237 Q1338.75 31.1352 1340.41 35.9153 Z" fill="#000000" fill-rule="evenodd" fill-opacity="1"></path><path clip-path="url(#clip870)" d="M1393.11 65.7705 L1393.11 89.8329 L1385.62 89.8329 L1385.62 27.2059 L1393.11 27.2059 L1393.11 34.0924 Q1395.46 30.0415 1399.03 28.0971 Q1402.63 26.1121 1407.62 26.1121 Q1415.88 26.1121 1421.02 32.6746 Q1426.21 39.2371 1426.21 49.9314 Q1426.21 60.6258 1421.02 67.1883 Q1415.88 73.7508 1407.62 73.7508 Q1402.63 73.7508 1399.03 71.8063 Q1395.46 69.8214 1393.11 65.7705 M1418.47 49.9314 Q1418.47 41.7081 1415.07 37.0496 Q1411.71 32.3505 1405.79 32.3505 Q1399.88 32.3505 1396.48 37.0496 Q1393.11 41.7081 1393.11 49.9314 Q1393.11 58.1548 1396.48 62.8538 Q1399.88 67.5124 1405.79 67.5124 Q1411.71 67.5124 1415.07 62.8538 Q1418.47 58.1548 1418.47 49.9314 Z" fill="#000000" fill-rule="evenodd" fill-opacity="1"></path><path clip-path="url(#clip870)" d="M1437.79 54.671 L1437.79 27.2059 L1445.25 27.2059 L1445.25 54.3874 Q1445.25 60.8284 1447.76 64.0691 Q1450.27 67.2693 1455.29 67.2693 Q1461.33 67.2693 1464.81 63.421 Q1468.34 59.5726 1468.34 52.9291 L1468.34 27.2059 L1475.79 27.2059 L1475.79 72.576 L1468.34 72.576 L1468.34 65.6084 Q1465.62 69.7404 1462.02 71.7658 Q1458.45 73.7508 1453.71 73.7508 Q1445.9 73.7508 1441.85 68.8897 Q1437.79 64.0286 1437.79 54.671 M1456.55 26.1121 L1456.55 26.1121 Z" fill="#000000" fill-rule="evenodd" fill-opacity="1"></path><path clip-path="url(#clip870)" d="M1498.52 14.324 L1498.52 27.2059 L1513.87 27.2059 L1513.87 32.9987 L1498.52 32.9987 L1498.52 57.6282 Q1498.52 63.1779 1500.02 64.7578 Q1501.56 66.3376 1506.21 66.3376 L1513.87 66.3376 L1513.87 72.576 L1506.21 72.576 Q1497.59 72.576 1494.3 69.3758 Q1491.02 66.1351 1491.02 57.6282 L1491.02 32.9987 L1485.55 32.9987 L1485.55 27.2059 L1491.02 27.2059 L1491.02 14.324 L1498.52 14.324 Z" fill="#000000" fill-rule="evenodd" fill-opacity="1"></path><path clip-path="url(#clip870)" d="M1544.29 49.7694 Q1535.26 49.7694 1531.78 51.8354 Q1528.29 53.9013 1528.29 58.8839 Q1528.29 62.8538 1530.88 65.2034 Q1533.52 67.5124 1538.01 67.5124 Q1544.21 67.5124 1547.94 63.1374 Q1551.71 58.7219 1551.71 51.4303 L1551.71 49.7694 L1544.29 49.7694 M1559.16 46.6907 L1559.16 72.576 L1551.71 72.576 L1551.71 65.6895 Q1549.15 69.8214 1545.35 71.8063 Q1541.54 73.7508 1536.03 73.7508 Q1529.06 73.7508 1524.93 69.8619 Q1520.84 65.9325 1520.84 59.3701 Q1520.84 51.7138 1525.94 47.825 Q1531.09 43.9361 1541.25 43.9361 L1551.71 43.9361 L1551.71 43.2069 Q1551.71 38.0623 1548.3 35.2672 Q1544.94 32.4315 1538.82 32.4315 Q1534.94 32.4315 1531.25 33.3632 Q1527.56 34.295 1524.16 36.1584 L1524.16 29.2718 Q1528.25 27.692 1532.1 26.9223 Q1535.95 26.1121 1539.59 26.1121 Q1549.44 26.1121 1554.3 31.2163 Q1559.16 36.3204 1559.16 46.6907 Z" fill="#000000" fill-rule="evenodd" fill-opacity="1"></path><path clip-path="url(#clip870)" d="M1581.89 14.324 L1581.89 27.2059 L1597.24 27.2059 L1597.24 32.9987 L1581.89 32.9987 L1581.89 57.6282 Q1581.89 63.1779 1583.38 64.7578 Q1584.92 66.3376 1589.58 66.3376 L1597.24 66.3376 L1597.24 72.576 L1589.58 72.576 Q1580.95 72.576 1577.67 69.3758 Q1574.39 66.1351 1574.39 57.6282 L1574.39 32.9987 L1568.92 32.9987 L1568.92 27.2059 L1574.39 27.2059 L1574.39 14.324 L1581.89 14.324 Z" fill="#000000" fill-rule="evenodd" fill-opacity="1"></path><path clip-path="url(#clip870)" d="M1607.04 27.2059 L1614.5 27.2059 L1614.5 72.576 L1607.04 72.576 L1607.04 27.2059 M1607.04 9.54393 L1614.5 9.54393 L1614.5 18.9825 L1607.04 18.9825 L1607.04 9.54393 Z" fill="#000000" fill-rule="evenodd" fill-opacity="1"></path><path clip-path="url(#clip870)" d="M1647.67 32.4315 Q1641.68 32.4315 1638.19 37.1306 Q1634.71 41.7891 1634.71 49.9314 Q1634.71 58.0738 1638.15 62.7728 Q1641.64 67.4314 1647.67 67.4314 Q1653.63 67.4314 1657.11 62.7323 Q1660.59 58.0333 1660.59 49.9314 Q1660.59 41.8701 1657.11 37.1711 Q1653.63 32.4315 1647.67 32.4315 M1647.67 26.1121 Q1657.39 26.1121 1662.94 32.4315 Q1668.49 38.7509 1668.49 49.9314 Q1668.49 61.0714 1662.94 67.4314 Q1657.39 73.7508 1647.67 73.7508 Q1637.91 73.7508 1632.36 67.4314 Q1626.85 61.0714 1626.85 49.9314 Q1626.85 38.7509 1632.36 32.4315 Q1637.91 26.1121 1647.67 26.1121 Z" fill="#000000" fill-rule="evenodd" fill-opacity="1"></path><path clip-path="url(#clip870)" d="M1718.56 45.1919 L1718.56 72.576 L1711.11 72.576 L1711.11 45.4349 Q1711.11 38.994 1708.6 35.7938 Q1706.09 32.5936 1701.06 32.5936 Q1695.03 32.5936 1691.54 36.4419 Q1688.06 40.2903 1688.06 46.9338 L1688.06 72.576 L1680.57 72.576 L1680.57 27.2059 L1688.06 27.2059 L1688.06 34.2544 Q1690.73 30.163 1694.34 28.1376 Q1697.98 26.1121 1702.72 26.1121 Q1710.54 26.1121 1714.55 30.9732 Q1718.56 35.7938 1718.56 45.1919 Z" fill="#000000" fill-rule="evenodd" fill-opacity="1"></path><path clip-path="url(#clip870)" d="M1754.05 49.7694 Q1745.02 49.7694 1741.53 51.8354 Q1738.05 53.9013 1738.05 58.8839 Q1738.05 62.8538 1740.64 65.2034 Q1743.27 67.5124 1747.77 67.5124 Q1753.97 67.5124 1757.69 63.1374 Q1761.46 58.7219 1761.46 51.4303 L1761.46 49.7694 L1754.05 49.7694 M1768.92 46.6907 L1768.92 72.576 L1761.46 72.576 L1761.46 65.6895 Q1758.91 69.8214 1755.1 71.8063 Q1751.29 73.7508 1745.78 73.7508 Q1738.82 73.7508 1734.69 69.8619 Q1730.59 65.9325 1730.59 59.3701 Q1730.59 51.7138 1735.7 47.825 Q1740.84 43.9361 1751.01 43.9361 L1761.46 43.9361 L1761.46 43.2069 Q1761.46 38.0623 1758.06 35.2672 Q1754.7 32.4315 1748.58 32.4315 Q1744.69 32.4315 1741 33.3632 Q1737.32 34.295 1733.92 36.1584 L1733.92 29.2718 Q1738.01 27.692 1741.86 26.9223 Q1745.7 26.1121 1749.35 26.1121 Q1759.19 26.1121 1764.05 31.2163 Q1768.92 36.3204 1768.92 46.6907 Z" fill="#000000" fill-rule="evenodd" fill-opacity="1"></path><path clip-path="url(#clip870)" d="M1784.27 9.54393 L1791.72 9.54393 L1791.72 72.576 L1784.27 72.576 L1784.27 9.54393 Z" fill="#000000" fill-rule="evenodd" fill-opacity="1"></path><path clip-path="url(#clip870)" d="M1879.3 16.7545 L1879.3 25.383 Q1875.17 21.5346 1870.47 19.6307 Q1865.81 17.7268 1860.55 17.7268 Q1850.18 17.7268 1844.67 24.0867 Q1839.16 30.4061 1839.16 42.3968 Q1839.16 54.3469 1844.67 60.7069 Q1850.18 67.0263 1860.55 67.0263 Q1865.81 67.0263 1870.47 65.1223 Q1875.17 63.2184 1879.3 59.3701 L1879.3 67.9175 Q1875.01 70.8341 1870.19 72.2924 Q1865.41 73.7508 1860.06 73.7508 Q1846.33 73.7508 1838.43 65.3654 Q1830.53 56.9395 1830.53 42.3968 Q1830.53 27.8135 1838.43 19.4281 Q1846.33 11.0023 1860.06 11.0023 Q1865.49 11.0023 1870.27 12.4606 Q1875.09 13.8784 1879.3 16.7545 Z" fill="#000000" fill-rule="evenodd" fill-opacity="1"></path><path clip-path="url(#clip870)" d="M1909.2 32.4315 Q1903.2 32.4315 1899.72 37.1306 Q1896.24 41.7891 1896.24 49.9314 Q1896.24 58.0738 1899.68 62.7728 Q1903.16 67.4314 1909.2 67.4314 Q1915.15 67.4314 1918.64 62.7323 Q1922.12 58.0333 1922.12 49.9314 Q1922.12 41.8701 1918.64 37.1711 Q1915.15 32.4315 1909.2 32.4315 M1909.2 26.1121 Q1918.92 26.1121 1924.47 32.4315 Q1930.02 38.7509 1930.02 49.9314 Q1930.02 61.0714 1924.47 67.4314 Q1918.92 73.7508 1909.2 73.7508 Q1899.44 73.7508 1893.89 67.4314 Q1888.38 61.0714 1888.38 49.9314 Q1888.38 38.7509 1893.89 32.4315 Q1899.44 26.1121 1909.2 26.1121 Z" fill="#000000" fill-rule="evenodd" fill-opacity="1"></path><path clip-path="url(#clip870)" d="M1971.3 28.5427 L1971.3 35.5912 Q1968.14 33.9709 1964.74 33.1607 Q1961.33 32.3505 1957.69 32.3505 Q1952.14 32.3505 1949.34 34.0519 Q1946.59 35.7533 1946.59 39.156 Q1946.59 41.7486 1948.57 43.2475 Q1950.56 44.7058 1956.55 46.0426 L1959.11 46.6097 Q1967.05 48.3111 1970.37 51.4303 Q1973.73 54.509 1973.73 60.0587 Q1973.73 66.3781 1968.71 70.0644 Q1963.72 73.7508 1954.97 73.7508 Q1951.33 73.7508 1947.36 73.0216 Q1943.43 72.3329 1939.05 70.9151 L1939.05 63.2184 Q1943.19 65.3654 1947.2 66.4591 Q1951.21 67.5124 1955.14 67.5124 Q1960.4 67.5124 1963.24 65.73 Q1966.07 63.9071 1966.07 60.6258 Q1966.07 57.5877 1964.01 55.9673 Q1961.98 54.3469 1955.05 52.8481 L1952.46 52.2405 Q1945.53 50.7821 1942.46 47.7845 Q1939.38 44.7463 1939.38 39.4801 Q1939.38 33.0797 1943.91 29.5959 Q1948.45 26.1121 1956.8 26.1121 Q1960.93 26.1121 1964.57 26.7198 Q1968.22 27.3274 1971.3 28.5427 Z" fill="#000000" fill-rule="evenodd" fill-opacity="1"></path><path clip-path="url(#clip870)" d="M1992.97 14.324 L1992.97 27.2059 L2008.32 27.2059 L2008.32 32.9987 L1992.97 32.9987 L1992.97 57.6282 Q1992.97 63.1779 1994.47 64.7578 Q1996.01 66.3376 2000.67 66.3376 L2008.32 66.3376 L2008.32 72.576 L2000.67 72.576 Q1992.04 72.576 1988.76 69.3758 Q1985.48 66.1351 1985.48 57.6282 L1985.48 32.9987 L1980.01 32.9987 L1980.01 27.2059 L1985.48 27.2059 L1985.48 14.324 L1992.97 14.324 Z" fill="#000000" fill-rule="evenodd" fill-opacity="1"></path><polyline clip-path="url(#clip872)" style="stroke:#009af9; stroke-linecap:round; stroke-linejoin:round; stroke-width:4; stroke-opacity:1; fill:none" points="
  279.759,1386.4 567.276,1386.02 1142.31,1357.23 1717.34,1233.91 2292.38,704.004 
  "></polyline>
<polyline clip-path="url(#clip872)" style="stroke:#e26f46; stroke-linecap:round; stroke-linejoin:round; stroke-width:4; stroke-opacity:1; fill:none" points="
  279.759,1385.63 567.276,1380.83 1142.31,1316.58 1717.34,1045.23 2292.38,414.417 
  "></polyline>
<polyline clip-path="url(#clip872)" style="stroke:#3da44d; stroke-linecap:round; stroke-linejoin:round; stroke-width:4; stroke-opacity:1; fill:none" points="
  279.759,1385.08 567.276,1379.29 1142.31,1289.72 1717.34,978.661 2292.38,160.256 
  "></polyline>
<polyline clip-path="url(#clip872)" style="stroke:#c271d2; stroke-linecap:round; stroke-linejoin:round; stroke-width:4; stroke-opacity:1; fill:none" points="
  279.759,1386.2 567.276,1383.07 1142.31,1359.13 1717.34,1322.36 2292.38,1208.36 
  "></polyline>
<polyline clip-path="url(#clip872)" style="stroke:#ac8d18; stroke-linecap:round; stroke-linejoin:round; stroke-width:4; stroke-opacity:1; fill:none" points="
  279.759,1385.78 567.276,1379.32 1142.31,1373.14 1717.34,1341.92 2292.38,1266.22 
  "></polyline>
<path clip-path="url(#clip870)" d="
M290.493 477.836 L905.495 477.836 L905.495 166.796 L290.493 166.796  Z
  " fill="#ffffff" fill-rule="evenodd" fill-opacity="1"></path>
<polyline clip-path="url(#clip870)" style="stroke:#000000; stroke-linecap:round; stroke-linejoin:round; stroke-width:4; stroke-opacity:1; fill:none" points="
  290.493,477.836 905.495,477.836 905.495,166.796 290.493,166.796 290.493,477.836 
  "></polyline>
<polyline clip-path="url(#clip870)" style="stroke:#009af9; stroke-linecap:round; stroke-linejoin:round; stroke-width:4; stroke-opacity:1; fill:none" points="
  314.197,218.636 456.422,218.636 
  "></polyline>
<path clip-path="url(#clip870)" d="M480.126 201.356 L499.987 201.356 L499.987 205.291 L484.802 205.291 L484.802 215.476 L498.506 215.476 L498.506 219.411 L484.802 219.411 L484.802 235.916 L480.126 235.916 L480.126 201.356 Z" fill="#000000" fill-rule="evenodd" fill-opacity="1"></path><path clip-path="url(#clip870)" d="M515.566 212.976 Q512.14 212.976 510.149 215.661 Q508.158 218.323 508.158 222.976 Q508.158 227.629 510.126 230.314 Q512.117 232.976 515.566 232.976 Q518.968 232.976 520.959 230.291 Q522.95 227.606 522.95 222.976 Q522.95 218.37 520.959 215.684 Q518.968 212.976 515.566 212.976 M515.566 209.365 Q521.121 209.365 524.293 212.976 Q527.464 216.587 527.464 222.976 Q527.464 229.342 524.293 232.976 Q521.121 236.587 515.566 236.587 Q509.987 236.587 506.816 232.976 Q503.668 229.342 503.668 222.976 Q503.668 216.587 506.816 212.976 Q509.987 209.365 515.566 209.365 Z" fill="#000000" fill-rule="evenodd" fill-opacity="1"></path><path clip-path="url(#clip870)" d="M549.547 213.971 Q548.829 213.555 547.973 213.37 Q547.14 213.161 546.121 213.161 Q542.51 213.161 540.566 215.522 Q538.644 217.86 538.644 222.258 L538.644 235.916 L534.362 235.916 L534.362 209.99 L538.644 209.99 L538.644 214.018 Q539.987 211.657 542.14 210.522 Q544.292 209.365 547.371 209.365 Q547.811 209.365 548.343 209.434 Q548.876 209.481 549.524 209.596 L549.547 213.971 Z" fill="#000000" fill-rule="evenodd" fill-opacity="1"></path><path clip-path="url(#clip870)" d="M551.538 209.99 L555.797 209.99 L561.121 230.221 L566.422 209.99 L571.445 209.99 L576.769 230.221 L582.07 209.99 L586.329 209.99 L579.547 235.916 L574.524 235.916 L568.945 214.666 L563.343 235.916 L558.32 235.916 L551.538 209.99 Z" fill="#000000" fill-rule="evenodd" fill-opacity="1"></path><path clip-path="url(#clip870)" d="M604.57 222.883 Q599.408 222.883 597.417 224.064 Q595.426 225.244 595.426 228.092 Q595.426 230.36 596.908 231.703 Q598.412 233.022 600.982 233.022 Q604.524 233.022 606.653 230.522 Q608.806 227.999 608.806 223.832 L608.806 222.883 L604.57 222.883 M613.065 221.124 L613.065 235.916 L608.806 235.916 L608.806 231.981 Q607.348 234.342 605.172 235.476 Q602.996 236.587 599.848 236.587 Q595.866 236.587 593.505 234.365 Q591.167 232.119 591.167 228.369 Q591.167 223.994 594.084 221.772 Q597.024 219.55 602.834 219.55 L608.806 219.55 L608.806 219.133 Q608.806 216.194 606.862 214.596 Q604.94 212.976 601.445 212.976 Q599.223 212.976 597.116 213.508 Q595.01 214.041 593.065 215.106 L593.065 211.17 Q595.403 210.268 597.602 209.828 Q599.801 209.365 601.885 209.365 Q607.51 209.365 610.287 212.282 Q613.065 215.198 613.065 221.124 Z" fill="#000000" fill-rule="evenodd" fill-opacity="1"></path><path clip-path="url(#clip870)" d="M636.861 213.971 Q636.144 213.555 635.287 213.37 Q634.454 213.161 633.435 213.161 Q629.824 213.161 627.88 215.522 Q625.959 217.86 625.959 222.258 L625.959 235.916 L621.676 235.916 L621.676 209.99 L625.959 209.99 L625.959 214.018 Q627.301 211.657 629.454 210.522 Q631.607 209.365 634.685 209.365 Q635.125 209.365 635.658 209.434 Q636.19 209.481 636.838 209.596 L636.861 213.971 Z" fill="#000000" fill-rule="evenodd" fill-opacity="1"></path><path clip-path="url(#clip870)" d="M657.556 213.925 L657.556 199.897 L661.815 199.897 L661.815 235.916 L657.556 235.916 L657.556 232.027 Q656.213 234.342 654.153 235.476 Q652.116 236.587 649.246 236.587 Q644.546 236.587 641.584 232.837 Q638.644 229.087 638.644 222.976 Q638.644 216.865 641.584 213.115 Q644.546 209.365 649.246 209.365 Q652.116 209.365 654.153 210.499 Q656.213 211.61 657.556 213.925 M643.042 222.976 Q643.042 227.675 644.963 230.36 Q646.908 233.022 650.287 233.022 Q653.667 233.022 655.611 230.36 Q657.556 227.675 657.556 222.976 Q657.556 218.277 655.611 215.615 Q653.667 212.93 650.287 212.93 Q646.908 212.93 644.963 215.615 Q643.042 218.277 643.042 222.976 Z" fill="#000000" fill-rule="evenodd" fill-opacity="1"></path><polyline clip-path="url(#clip870)" style="stroke:#e26f46; stroke-linecap:round; stroke-linejoin:round; stroke-width:4; stroke-opacity:1; fill:none" points="
  314.197,270.476 456.422,270.476 
  "></polyline>
<path clip-path="url(#clip870)" d="M496.515 271.552 Q498.02 272.061 499.432 273.728 Q500.867 275.395 502.302 278.311 L507.047 287.756 L502.024 287.756 L497.603 278.89 Q495.89 275.418 494.27 274.284 Q492.672 273.149 489.895 273.149 L484.802 273.149 L484.802 287.756 L480.126 287.756 L480.126 253.196 L490.682 253.196 Q496.607 253.196 499.524 255.673 Q502.441 258.149 502.441 263.149 Q502.441 266.413 500.913 268.566 Q499.408 270.719 496.515 271.552 M484.802 257.038 L484.802 269.307 L490.682 269.307 Q494.061 269.307 495.774 267.756 Q497.51 266.182 497.51 263.149 Q497.51 260.117 495.774 258.589 Q494.061 257.038 490.682 257.038 L484.802 257.038 Z" fill="#000000" fill-rule="evenodd" fill-opacity="1"></path><path clip-path="url(#clip870)" d="M532.927 273.728 L532.927 275.811 L513.343 275.811 Q513.621 280.209 515.982 282.524 Q518.367 284.816 522.603 284.816 Q525.056 284.816 527.348 284.214 Q529.663 283.612 531.931 282.409 L531.931 286.436 Q529.64 287.408 527.232 287.918 Q524.825 288.427 522.348 288.427 Q516.144 288.427 512.51 284.816 Q508.899 281.205 508.899 275.047 Q508.899 268.682 512.325 264.955 Q515.774 261.205 521.607 261.205 Q526.839 261.205 529.871 264.585 Q532.927 267.941 532.927 273.728 M528.667 272.478 Q528.621 268.983 526.7 266.899 Q524.802 264.816 521.654 264.816 Q518.089 264.816 515.936 266.83 Q513.806 268.844 513.482 272.501 L528.667 272.478 Z" fill="#000000" fill-rule="evenodd" fill-opacity="1"></path><path clip-path="url(#clip870)" d="M536.862 261.83 L541.376 261.83 L549.478 283.589 L557.579 261.83 L562.093 261.83 L552.371 287.756 L546.584 287.756 L536.862 261.83 Z" fill="#000000" fill-rule="evenodd" fill-opacity="1"></path><path clip-path="url(#clip870)" d="M590.149 273.728 L590.149 275.811 L570.565 275.811 Q570.843 280.209 573.204 282.524 Q575.589 284.816 579.825 284.816 Q582.278 284.816 584.57 284.214 Q586.885 283.612 589.153 282.409 L589.153 286.436 Q586.862 287.408 584.454 287.918 Q582.047 288.427 579.57 288.427 Q573.366 288.427 569.732 284.816 Q566.121 281.205 566.121 275.047 Q566.121 268.682 569.547 264.955 Q572.996 261.205 578.829 261.205 Q584.061 261.205 587.093 264.585 Q590.149 267.941 590.149 273.728 M585.889 272.478 Q585.843 268.983 583.922 266.899 Q582.024 264.816 578.876 264.816 Q575.311 264.816 573.158 266.83 Q571.028 268.844 570.704 272.501 L585.889 272.478 Z" fill="#000000" fill-rule="evenodd" fill-opacity="1"></path><path clip-path="url(#clip870)" d="M612.162 265.811 Q611.445 265.395 610.588 265.21 Q609.755 265.001 608.737 265.001 Q605.125 265.001 603.181 267.362 Q601.26 269.7 601.26 274.098 L601.26 287.756 L596.977 287.756 L596.977 261.83 L601.26 261.83 L601.26 265.858 Q602.602 263.497 604.755 262.362 Q606.908 261.205 609.986 261.205 Q610.426 261.205 610.959 261.274 Q611.491 261.321 612.139 261.436 L612.162 265.811 Z" fill="#000000" fill-rule="evenodd" fill-opacity="1"></path><path clip-path="url(#clip870)" d="M633.158 262.594 L633.158 266.622 Q631.352 265.696 629.408 265.233 Q627.463 264.77 625.38 264.77 Q622.209 264.77 620.611 265.742 Q619.037 266.714 619.037 268.659 Q619.037 270.14 620.172 270.997 Q621.306 271.83 624.732 272.594 L626.19 272.918 Q630.727 273.89 632.625 275.672 Q634.547 277.432 634.547 280.603 Q634.547 284.214 631.676 286.321 Q628.829 288.427 623.829 288.427 Q621.746 288.427 619.477 288.01 Q617.232 287.617 614.732 286.807 L614.732 282.409 Q617.093 283.635 619.385 284.26 Q621.676 284.862 623.922 284.862 Q626.931 284.862 628.551 283.844 Q630.172 282.802 630.172 280.927 Q630.172 279.191 628.991 278.265 Q627.834 277.339 623.875 276.483 L622.394 276.135 Q618.436 275.302 616.676 273.589 Q614.917 271.853 614.917 268.844 Q614.917 265.186 617.51 263.196 Q620.102 261.205 624.871 261.205 Q627.232 261.205 629.315 261.552 Q631.398 261.899 633.158 262.594 Z" fill="#000000" fill-rule="evenodd" fill-opacity="1"></path><path clip-path="url(#clip870)" d="M663.505 273.728 L663.505 275.811 L643.922 275.811 Q644.199 280.209 646.56 282.524 Q648.945 284.816 653.181 284.816 Q655.634 284.816 657.926 284.214 Q660.241 283.612 662.509 282.409 L662.509 286.436 Q660.218 287.408 657.81 287.918 Q655.403 288.427 652.926 288.427 Q646.722 288.427 643.088 284.816 Q639.477 281.205 639.477 275.047 Q639.477 268.682 642.903 264.955 Q646.352 261.205 652.185 261.205 Q657.417 261.205 660.449 264.585 Q663.505 267.941 663.505 273.728 M659.245 272.478 Q659.199 268.983 657.278 266.899 Q655.38 264.816 652.232 264.816 Q648.667 264.816 646.514 266.83 Q644.384 268.844 644.06 272.501 L659.245 272.478 Z" fill="#000000" fill-rule="evenodd" fill-opacity="1"></path><polyline clip-path="url(#clip870)" style="stroke:#3da44d; stroke-linecap:round; stroke-linejoin:round; stroke-width:4; stroke-opacity:1; fill:none" points="
  314.197,322.316 456.422,322.316 
  "></polyline>
<path clip-path="url(#clip870)" d="M480.658 305.036 L507.811 305.036 L507.811 308.601 L485.959 335.661 L508.344 335.661 L508.344 339.596 L480.126 339.596 L480.126 336.031 L501.978 308.971 L480.658 308.971 L480.658 305.036 Z" fill="#000000" fill-rule="evenodd" fill-opacity="1"></path><path clip-path="url(#clip870)" d="M525.728 342.003 Q523.922 346.633 522.209 348.045 Q520.496 349.457 517.626 349.457 L514.223 349.457 L514.223 345.892 L516.723 345.892 Q518.482 345.892 519.455 345.059 Q520.427 344.225 521.607 341.123 L522.371 339.179 L511.885 313.67 L516.399 313.67 L524.501 333.948 L532.603 313.67 L537.117 313.67 L525.728 342.003 Z" fill="#000000" fill-rule="evenodd" fill-opacity="1"></path><path clip-path="url(#clip870)" d="M560.056 326.332 Q560.056 321.702 558.135 319.156 Q556.237 316.61 552.788 316.61 Q549.362 316.61 547.441 319.156 Q545.542 321.702 545.542 326.332 Q545.542 330.938 547.441 333.485 Q549.362 336.031 552.788 336.031 Q556.237 336.031 558.135 333.485 Q560.056 330.938 560.056 326.332 M564.315 336.378 Q564.315 342.998 561.376 346.216 Q558.436 349.457 552.371 349.457 Q550.126 349.457 548.135 349.11 Q546.144 348.785 544.269 348.091 L544.269 343.948 Q546.144 344.966 547.973 345.452 Q549.802 345.938 551.7 345.938 Q555.89 345.938 557.973 343.739 Q560.056 341.563 560.056 337.142 L560.056 335.036 Q558.737 337.327 556.677 338.461 Q554.616 339.596 551.746 339.596 Q546.978 339.596 544.061 335.961 Q541.144 332.327 541.144 326.332 Q541.144 320.313 544.061 316.679 Q546.978 313.045 551.746 313.045 Q554.616 313.045 556.677 314.179 Q558.737 315.313 560.056 317.605 L560.056 313.67 L564.315 313.67 L564.315 336.378 Z" fill="#000000" fill-rule="evenodd" fill-opacity="1"></path><path clip-path="url(#clip870)" d="M583.135 316.656 Q579.709 316.656 577.718 319.341 Q575.727 322.003 575.727 326.656 Q575.727 331.309 577.695 333.994 Q579.686 336.656 583.135 336.656 Q586.538 336.656 588.528 333.971 Q590.519 331.286 590.519 326.656 Q590.519 322.05 588.528 319.364 Q586.538 316.656 583.135 316.656 M583.135 313.045 Q588.69 313.045 591.862 316.656 Q595.033 320.267 595.033 326.656 Q595.033 333.022 591.862 336.656 Q588.69 340.267 583.135 340.267 Q577.556 340.267 574.385 336.656 Q571.237 333.022 571.237 326.656 Q571.237 320.267 574.385 316.656 Q577.556 313.045 583.135 313.045 Z" fill="#000000" fill-rule="evenodd" fill-opacity="1"></path><path clip-path="url(#clip870)" d="M606.306 306.309 L606.306 313.67 L615.079 313.67 L615.079 316.98 L606.306 316.98 L606.306 331.054 Q606.306 334.225 607.162 335.128 Q608.042 336.031 610.704 336.031 L615.079 336.031 L615.079 339.596 L610.704 339.596 Q605.774 339.596 603.899 337.767 Q602.024 335.915 602.024 331.054 L602.024 316.98 L598.899 316.98 L598.899 313.67 L602.024 313.67 L602.024 306.309 L606.306 306.309 Z" fill="#000000" fill-rule="evenodd" fill-opacity="1"></path><path clip-path="url(#clip870)" d="M642.857 325.568 L642.857 327.651 L623.273 327.651 Q623.551 332.049 625.912 334.364 Q628.297 336.656 632.533 336.656 Q634.986 336.656 637.278 336.054 Q639.593 335.452 641.861 334.249 L641.861 338.276 Q639.57 339.248 637.162 339.758 Q634.755 340.267 632.278 340.267 Q626.074 340.267 622.44 336.656 Q618.829 333.045 618.829 326.887 Q618.829 320.522 622.255 316.795 Q625.704 313.045 631.537 313.045 Q636.769 313.045 639.801 316.425 Q642.857 319.781 642.857 325.568 M638.597 324.318 Q638.551 320.823 636.63 318.739 Q634.732 316.656 631.584 316.656 Q628.019 316.656 625.866 318.67 Q623.736 320.684 623.412 324.341 L638.597 324.318 Z" fill="#000000" fill-rule="evenodd" fill-opacity="1"></path><polyline clip-path="url(#clip870)" style="stroke:#c271d2; stroke-linecap:round; stroke-linejoin:round; stroke-width:4; stroke-opacity:1; fill:none" points="
  314.197,374.156 456.422,374.156 
  "></polyline>
<path clip-path="url(#clip870)" d="M496.145 360.047 Q491.052 360.047 488.043 363.843 Q485.057 367.64 485.057 374.19 Q485.057 380.718 488.043 384.514 Q491.052 388.311 496.145 388.311 Q501.237 388.311 504.2 384.514 Q507.186 380.718 507.186 374.19 Q507.186 367.64 504.2 363.843 Q501.237 360.047 496.145 360.047 M496.145 356.251 Q503.413 356.251 507.765 361.135 Q512.117 365.996 512.117 374.19 Q512.117 382.362 507.765 387.246 Q503.413 392.107 496.145 392.107 Q488.853 392.107 484.478 387.246 Q480.126 382.385 480.126 374.19 Q480.126 365.996 484.478 361.135 Q488.853 356.251 496.145 356.251 Z" fill="#000000" fill-rule="evenodd" fill-opacity="1"></path><path clip-path="url(#clip870)" d="M523.367 387.547 L523.367 401.297 L519.084 401.297 L519.084 365.51 L523.367 365.51 L523.367 369.445 Q524.709 367.13 526.746 366.019 Q528.806 364.885 531.654 364.885 Q536.376 364.885 539.316 368.635 Q542.279 372.385 542.279 378.496 Q542.279 384.607 539.316 388.357 Q536.376 392.107 531.654 392.107 Q528.806 392.107 526.746 390.996 Q524.709 389.862 523.367 387.547 M537.857 378.496 Q537.857 373.797 535.913 371.135 Q533.992 368.45 530.612 368.45 Q527.232 368.45 525.288 371.135 Q523.367 373.797 523.367 378.496 Q523.367 383.195 525.288 385.88 Q527.232 388.542 530.612 388.542 Q533.992 388.542 535.913 385.88 Q537.857 383.195 537.857 378.496 Z" fill="#000000" fill-rule="evenodd" fill-opacity="1"></path><path clip-path="url(#clip870)" d="M553.552 358.149 L553.552 365.51 L562.325 365.51 L562.325 368.82 L553.552 368.82 L553.552 382.894 Q553.552 386.065 554.408 386.968 Q555.288 387.871 557.95 387.871 L562.325 387.871 L562.325 391.436 L557.95 391.436 Q553.019 391.436 551.144 389.607 Q549.269 387.755 549.269 382.894 L549.269 368.82 L546.144 368.82 L546.144 365.51 L549.269 365.51 L549.269 358.149 L553.552 358.149 Z" fill="#000000" fill-rule="evenodd" fill-opacity="1"></path><path clip-path="url(#clip870)" d="M567.927 365.51 L572.186 365.51 L572.186 391.436 L567.927 391.436 L567.927 365.51 M567.927 355.417 L572.186 355.417 L572.186 360.811 L567.927 360.811 L567.927 355.417 Z" fill="#000000" fill-rule="evenodd" fill-opacity="1"></path><path clip-path="url(#clip870)" d="M601.283 370.487 Q602.88 367.616 605.102 366.251 Q607.324 364.885 610.334 364.885 Q614.385 364.885 616.584 367.732 Q618.783 370.556 618.783 375.788 L618.783 391.436 L614.5 391.436 L614.5 375.927 Q614.5 372.2 613.181 370.394 Q611.861 368.589 609.153 368.589 Q605.843 368.589 603.922 370.788 Q602 372.987 602 376.783 L602 391.436 L597.718 391.436 L597.718 375.927 Q597.718 372.177 596.399 370.394 Q595.079 368.589 592.325 368.589 Q589.061 368.589 587.139 370.811 Q585.218 373.01 585.218 376.783 L585.218 391.436 L580.936 391.436 L580.936 365.51 L585.218 365.51 L585.218 369.538 Q586.676 367.153 588.713 366.019 Q590.75 364.885 593.551 364.885 Q596.375 364.885 598.343 366.32 Q600.334 367.755 601.283 370.487 Z" fill="#000000" fill-rule="evenodd" fill-opacity="1"></path><path clip-path="url(#clip870)" d="M640.195 376.552 L652.671 376.552 L652.671 380.348 L640.195 380.348 L640.195 376.552 Z" fill="#000000" fill-rule="evenodd" fill-opacity="1"></path><path clip-path="url(#clip870)" d="M674.708 356.876 L694.569 356.876 L694.569 360.811 L679.384 360.811 L679.384 370.996 L693.088 370.996 L693.088 374.931 L679.384 374.931 L679.384 391.436 L674.708 391.436 L674.708 356.876 Z" fill="#000000" fill-rule="evenodd" fill-opacity="1"></path><path clip-path="url(#clip870)" d="M710.148 368.496 Q706.722 368.496 704.731 371.181 Q702.741 373.843 702.741 378.496 Q702.741 383.149 704.708 385.834 Q706.699 388.496 710.148 388.496 Q713.551 388.496 715.541 385.811 Q717.532 383.126 717.532 378.496 Q717.532 373.89 715.541 371.204 Q713.551 368.496 710.148 368.496 M710.148 364.885 Q715.704 364.885 718.875 368.496 Q722.046 372.107 722.046 378.496 Q722.046 384.862 718.875 388.496 Q715.704 392.107 710.148 392.107 Q704.569 392.107 701.398 388.496 Q698.25 384.862 698.25 378.496 Q698.25 372.107 701.398 368.496 Q704.569 364.885 710.148 364.885 Z" fill="#000000" fill-rule="evenodd" fill-opacity="1"></path><path clip-path="url(#clip870)" d="M744.129 369.491 Q743.412 369.075 742.555 368.89 Q741.722 368.681 740.703 368.681 Q737.092 368.681 735.148 371.042 Q733.227 373.38 733.227 377.778 L733.227 391.436 L728.944 391.436 L728.944 365.51 L733.227 365.51 L733.227 369.538 Q734.569 367.177 736.722 366.042 Q738.875 364.885 741.953 364.885 Q742.393 364.885 742.926 364.954 Q743.458 365.001 744.106 365.116 L744.129 369.491 Z" fill="#000000" fill-rule="evenodd" fill-opacity="1"></path><path clip-path="url(#clip870)" d="M746.12 365.51 L750.379 365.51 L755.703 385.741 L761.004 365.51 L766.027 365.51 L771.351 385.741 L776.652 365.51 L780.912 365.51 L774.129 391.436 L769.106 391.436 L763.527 370.186 L757.926 391.436 L752.902 391.436 L746.12 365.51 Z" fill="#000000" fill-rule="evenodd" fill-opacity="1"></path><path clip-path="url(#clip870)" d="M799.152 378.403 Q793.99 378.403 791.999 379.584 Q790.009 380.764 790.009 383.612 Q790.009 385.88 791.49 387.223 Q792.995 388.542 795.564 388.542 Q799.106 388.542 801.235 386.042 Q803.388 383.519 803.388 379.352 L803.388 378.403 L799.152 378.403 M807.647 376.644 L807.647 391.436 L803.388 391.436 L803.388 387.501 Q801.93 389.862 799.754 390.996 Q797.578 392.107 794.43 392.107 Q790.448 392.107 788.087 389.885 Q785.749 387.639 785.749 383.889 Q785.749 379.514 788.666 377.292 Q791.606 375.07 797.416 375.07 L803.388 375.07 L803.388 374.653 Q803.388 371.714 801.444 370.116 Q799.523 368.496 796.027 368.496 Q793.805 368.496 791.698 369.028 Q789.592 369.561 787.648 370.626 L787.648 366.69 Q789.986 365.788 792.185 365.348 Q794.384 364.885 796.467 364.885 Q802.092 364.885 804.87 367.802 Q807.647 370.718 807.647 376.644 Z" fill="#000000" fill-rule="evenodd" fill-opacity="1"></path><path clip-path="url(#clip870)" d="M831.444 369.491 Q830.726 369.075 829.87 368.89 Q829.036 368.681 828.018 368.681 Q824.407 368.681 822.462 371.042 Q820.541 373.38 820.541 377.778 L820.541 391.436 L816.259 391.436 L816.259 365.51 L820.541 365.51 L820.541 369.538 Q821.884 367.177 824.036 366.042 Q826.189 364.885 829.268 364.885 Q829.708 364.885 830.24 364.954 Q830.772 365.001 831.42 365.116 L831.444 369.491 Z" fill="#000000" fill-rule="evenodd" fill-opacity="1"></path><path clip-path="url(#clip870)" d="M852.138 369.445 L852.138 355.417 L856.397 355.417 L856.397 391.436 L852.138 391.436 L852.138 387.547 Q850.795 389.862 848.735 390.996 Q846.698 392.107 843.828 392.107 Q839.129 392.107 836.166 388.357 Q833.226 384.607 833.226 378.496 Q833.226 372.385 836.166 368.635 Q839.129 364.885 843.828 364.885 Q846.698 364.885 848.735 366.019 Q850.795 367.13 852.138 369.445 M837.624 378.496 Q837.624 383.195 839.545 385.88 Q841.49 388.542 844.869 388.542 Q848.249 388.542 850.194 385.88 Q852.138 383.195 852.138 378.496 Q852.138 373.797 850.194 371.135 Q848.249 368.45 844.869 368.45 Q841.49 368.45 839.545 371.135 Q837.624 373.797 837.624 378.496 Z" fill="#000000" fill-rule="evenodd" fill-opacity="1"></path><polyline clip-path="url(#clip870)" style="stroke:#ac8d18; stroke-linecap:round; stroke-linejoin:round; stroke-width:4; stroke-opacity:1; fill:none" points="
  314.197,425.996 456.422,425.996 
  "></polyline>
<path clip-path="url(#clip870)" d="M496.145 411.887 Q491.052 411.887 488.043 415.683 Q485.057 419.48 485.057 426.03 Q485.057 432.558 488.043 436.354 Q491.052 440.151 496.145 440.151 Q501.237 440.151 504.2 436.354 Q507.186 432.558 507.186 426.03 Q507.186 419.48 504.2 415.683 Q501.237 411.887 496.145 411.887 M496.145 408.091 Q503.413 408.091 507.765 412.975 Q512.117 417.836 512.117 426.03 Q512.117 434.202 507.765 439.086 Q503.413 443.947 496.145 443.947 Q488.853 443.947 484.478 439.086 Q480.126 434.225 480.126 426.03 Q480.126 417.836 484.478 412.975 Q488.853 408.091 496.145 408.091 Z" fill="#000000" fill-rule="evenodd" fill-opacity="1"></path><path clip-path="url(#clip870)" d="M523.367 439.387 L523.367 453.137 L519.084 453.137 L519.084 417.35 L523.367 417.35 L523.367 421.285 Q524.709 418.97 526.746 417.859 Q528.806 416.725 531.654 416.725 Q536.376 416.725 539.316 420.475 Q542.279 424.225 542.279 430.336 Q542.279 436.447 539.316 440.197 Q536.376 443.947 531.654 443.947 Q528.806 443.947 526.746 442.836 Q524.709 441.702 523.367 439.387 M537.857 430.336 Q537.857 425.637 535.913 422.975 Q533.992 420.29 530.612 420.29 Q527.232 420.29 525.288 422.975 Q523.367 425.637 523.367 430.336 Q523.367 435.035 525.288 437.72 Q527.232 440.382 530.612 440.382 Q533.992 440.382 535.913 437.72 Q537.857 435.035 537.857 430.336 Z" fill="#000000" fill-rule="evenodd" fill-opacity="1"></path><path clip-path="url(#clip870)" d="M553.552 409.989 L553.552 417.35 L562.325 417.35 L562.325 420.66 L553.552 420.66 L553.552 434.734 Q553.552 437.905 554.408 438.808 Q555.288 439.711 557.95 439.711 L562.325 439.711 L562.325 443.276 L557.95 443.276 Q553.019 443.276 551.144 441.447 Q549.269 439.595 549.269 434.734 L549.269 420.66 L546.144 420.66 L546.144 417.35 L549.269 417.35 L549.269 409.989 L553.552 409.989 Z" fill="#000000" fill-rule="evenodd" fill-opacity="1"></path><path clip-path="url(#clip870)" d="M567.927 417.35 L572.186 417.35 L572.186 443.276 L567.927 443.276 L567.927 417.35 M567.927 407.257 L572.186 407.257 L572.186 412.651 L567.927 412.651 L567.927 407.257 Z" fill="#000000" fill-rule="evenodd" fill-opacity="1"></path><path clip-path="url(#clip870)" d="M601.283 422.327 Q602.88 419.456 605.102 418.091 Q607.324 416.725 610.334 416.725 Q614.385 416.725 616.584 419.572 Q618.783 422.396 618.783 427.628 L618.783 443.276 L614.5 443.276 L614.5 427.767 Q614.5 424.04 613.181 422.234 Q611.861 420.429 609.153 420.429 Q605.843 420.429 603.922 422.628 Q602 424.827 602 428.623 L602 443.276 L597.718 443.276 L597.718 427.767 Q597.718 424.017 596.399 422.234 Q595.079 420.429 592.325 420.429 Q589.061 420.429 587.139 422.651 Q585.218 424.85 585.218 428.623 L585.218 443.276 L580.936 443.276 L580.936 417.35 L585.218 417.35 L585.218 421.378 Q586.676 418.993 588.713 417.859 Q590.75 416.725 593.551 416.725 Q596.375 416.725 598.343 418.16 Q600.334 419.595 601.283 422.327 Z" fill="#000000" fill-rule="evenodd" fill-opacity="1"></path><path clip-path="url(#clip870)" d="M640.195 428.392 L652.671 428.392 L652.671 432.188 L640.195 432.188 L640.195 428.392 Z" fill="#000000" fill-rule="evenodd" fill-opacity="1"></path><path clip-path="url(#clip870)" d="M691.097 427.072 Q692.602 427.581 694.014 429.248 Q695.449 430.915 696.884 433.831 L701.63 443.276 L696.606 443.276 L692.185 434.41 Q690.472 430.938 688.852 429.804 Q687.255 428.669 684.477 428.669 L679.384 428.669 L679.384 443.276 L674.708 443.276 L674.708 408.716 L685.264 408.716 Q691.19 408.716 694.106 411.193 Q697.023 413.669 697.023 418.669 Q697.023 421.933 695.495 424.086 Q693.991 426.239 691.097 427.072 M679.384 412.558 L679.384 424.827 L685.264 424.827 Q688.643 424.827 690.356 423.276 Q692.093 421.702 692.093 418.669 Q692.093 415.637 690.356 414.109 Q688.643 412.558 685.264 412.558 L679.384 412.558 Z" fill="#000000" fill-rule="evenodd" fill-opacity="1"></path><path clip-path="url(#clip870)" d="M727.509 429.248 L727.509 431.331 L707.926 431.331 Q708.204 435.729 710.565 438.044 Q712.949 440.336 717.185 440.336 Q719.639 440.336 721.93 439.734 Q724.245 439.132 726.514 437.929 L726.514 441.956 Q724.222 442.928 721.815 443.438 Q719.407 443.947 716.93 443.947 Q710.727 443.947 707.092 440.336 Q703.481 436.725 703.481 430.567 Q703.481 424.202 706.907 420.475 Q710.356 416.725 716.19 416.725 Q721.421 416.725 724.453 420.105 Q727.509 423.461 727.509 429.248 M723.25 427.998 Q723.203 424.503 721.282 422.419 Q719.384 420.336 716.236 420.336 Q712.671 420.336 710.518 422.35 Q708.389 424.364 708.065 428.021 L723.25 427.998 Z" fill="#000000" fill-rule="evenodd" fill-opacity="1"></path><path clip-path="url(#clip870)" d="M731.444 417.35 L735.958 417.35 L744.06 439.109 L752.162 417.35 L756.676 417.35 L746.953 443.276 L741.166 443.276 L731.444 417.35 Z" fill="#000000" fill-rule="evenodd" fill-opacity="1"></path><path clip-path="url(#clip870)" d="M784.731 429.248 L784.731 431.331 L765.148 431.331 Q765.425 435.729 767.787 438.044 Q770.171 440.336 774.407 440.336 Q776.861 440.336 779.152 439.734 Q781.467 439.132 783.736 437.929 L783.736 441.956 Q781.444 442.928 779.037 443.438 Q776.629 443.947 774.152 443.947 Q767.949 443.947 764.314 440.336 Q760.703 436.725 760.703 430.567 Q760.703 424.202 764.129 420.475 Q767.578 416.725 773.412 416.725 Q778.643 416.725 781.675 420.105 Q784.731 423.461 784.731 429.248 M780.472 427.998 Q780.425 424.503 778.504 422.419 Q776.606 420.336 773.458 420.336 Q769.893 420.336 767.74 422.35 Q765.611 424.364 765.287 428.021 L780.472 427.998 Z" fill="#000000" fill-rule="evenodd" fill-opacity="1"></path><path clip-path="url(#clip870)" d="M806.745 421.331 Q806.027 420.915 805.171 420.73 Q804.337 420.521 803.319 420.521 Q799.708 420.521 797.763 422.882 Q795.842 425.22 795.842 429.618 L795.842 443.276 L791.56 443.276 L791.56 417.35 L795.842 417.35 L795.842 421.378 Q797.185 419.017 799.337 417.882 Q801.49 416.725 804.569 416.725 Q805.009 416.725 805.541 416.794 Q806.073 416.841 806.722 416.956 L806.745 421.331 Z" fill="#000000" fill-rule="evenodd" fill-opacity="1"></path><path clip-path="url(#clip870)" d="M827.74 418.114 L827.74 422.142 Q825.934 421.216 823.99 420.753 Q822.046 420.29 819.962 420.29 Q816.791 420.29 815.194 421.262 Q813.62 422.234 813.62 424.179 Q813.62 425.66 814.754 426.517 Q815.888 427.35 819.314 428.114 L820.772 428.438 Q825.309 429.41 827.208 431.192 Q829.129 432.952 829.129 436.123 Q829.129 439.734 826.258 441.841 Q823.411 443.947 818.411 443.947 Q816.328 443.947 814.059 443.53 Q811.814 443.137 809.314 442.327 L809.314 437.929 Q811.675 439.155 813.967 439.78 Q816.259 440.382 818.504 440.382 Q821.513 440.382 823.134 439.364 Q824.754 438.322 824.754 436.447 Q824.754 434.711 823.573 433.785 Q822.416 432.859 818.458 432.003 L816.976 431.655 Q813.018 430.822 811.259 429.109 Q809.499 427.373 809.499 424.364 Q809.499 420.706 812.092 418.716 Q814.684 416.725 819.453 416.725 Q821.814 416.725 823.897 417.072 Q825.981 417.419 827.74 418.114 Z" fill="#000000" fill-rule="evenodd" fill-opacity="1"></path><path clip-path="url(#clip870)" d="M858.087 429.248 L858.087 431.331 L838.504 431.331 Q838.782 435.729 841.143 438.044 Q843.527 440.336 847.763 440.336 Q850.217 440.336 852.508 439.734 Q854.823 439.132 857.092 437.929 L857.092 441.956 Q854.8 442.928 852.393 443.438 Q849.985 443.947 847.508 443.947 Q841.305 443.947 837.67 440.336 Q834.059 436.725 834.059 430.567 Q834.059 424.202 837.485 420.475 Q840.934 416.725 846.768 416.725 Q851.999 416.725 855.031 420.105 Q858.087 423.461 858.087 429.248 M853.828 427.998 Q853.781 424.503 851.86 422.419 Q849.962 420.336 846.814 420.336 Q843.249 420.336 841.096 422.35 Q838.967 424.364 838.643 428.021 L853.828 427.998 Z" fill="#000000" fill-rule="evenodd" fill-opacity="1"></path></svg>